G04 #@! TF.GenerationSoftware,KiCad,Pcbnew,8.0.9-8.0.9-0~ubuntu22.04.1*
G04 #@! TF.CreationDate,2025-08-04T16:28:20+08:00*
G04 #@! TF.ProjectId,macropad,6d616372-6f70-4616-942e-6b696361645f,rev?*
G04 #@! TF.SameCoordinates,Original*
G04 #@! TF.FileFunction,Legend,Top*
G04 #@! TF.FilePolarity,Positive*
%FSLAX46Y46*%
G04 Gerber Fmt 4.6, Leading zero omitted, Abs format (unit mm)*
G04 Created by KiCad (PCBNEW 8.0.9-8.0.9-0~ubuntu22.04.1) date 2025-08-04 16:28:20*
%MOMM*%
%LPD*%
G01*
G04 APERTURE LIST*
G04 Aperture macros list*
%AMRoundRect*
0 Rectangle with rounded corners*
0 $1 Rounding radius*
0 $2 $3 $4 $5 $6 $7 $8 $9 X,Y pos of 4 corners*
0 Add a 4 corners polygon primitive as box body*
4,1,4,$2,$3,$4,$5,$6,$7,$8,$9,$2,$3,0*
0 Add four circle primitives for the rounded corners*
1,1,$1+$1,$2,$3*
1,1,$1+$1,$4,$5*
1,1,$1+$1,$6,$7*
1,1,$1+$1,$8,$9*
0 Add four rect primitives between the rounded corners*
20,1,$1+$1,$2,$3,$4,$5,0*
20,1,$1+$1,$4,$5,$6,$7,0*
20,1,$1+$1,$6,$7,$8,$9,0*
20,1,$1+$1,$8,$9,$2,$3,0*%
G04 Aperture macros list end*
%ADD10C,0.150000*%
%ADD11C,0.120000*%
%ADD12C,4.300000*%
%ADD13C,5.000000*%
%ADD14C,1.700000*%
%ADD15C,4.000000*%
%ADD16C,2.200000*%
%ADD17RoundRect,0.400000X-0.900000X-0.400000X0.900000X-0.400000X0.900000X0.400000X-0.900000X0.400000X0*%
%ADD18RoundRect,0.400050X-0.899950X-0.400050X0.899950X-0.400050X0.899950X0.400050X-0.899950X0.400050X0*%
%ADD19RoundRect,0.400000X-0.400000X-0.900000X0.400000X-0.900000X0.400000X0.900000X-0.400000X0.900000X0*%
%ADD20RoundRect,0.393700X-0.393700X-0.906300X0.393700X-0.906300X0.393700X0.906300X-0.393700X0.906300X0*%
G04 APERTURE END LIST*
D10*
X188666666Y-127154819D02*
X188333333Y-126678628D01*
X188095238Y-127154819D02*
X188095238Y-126154819D01*
X188095238Y-126154819D02*
X188476190Y-126154819D01*
X188476190Y-126154819D02*
X188571428Y-126202438D01*
X188571428Y-126202438D02*
X188619047Y-126250057D01*
X188619047Y-126250057D02*
X188666666Y-126345295D01*
X188666666Y-126345295D02*
X188666666Y-126488152D01*
X188666666Y-126488152D02*
X188619047Y-126583390D01*
X188619047Y-126583390D02*
X188571428Y-126631009D01*
X188571428Y-126631009D02*
X188476190Y-126678628D01*
X188476190Y-126678628D02*
X188095238Y-126678628D01*
X189095238Y-126631009D02*
X189428571Y-126631009D01*
X189571428Y-127154819D02*
X189095238Y-127154819D01*
X189095238Y-127154819D02*
X189095238Y-126154819D01*
X189095238Y-126154819D02*
X189571428Y-126154819D01*
X190333333Y-126631009D02*
X190000000Y-126631009D01*
X190000000Y-127154819D02*
X190000000Y-126154819D01*
X190000000Y-126154819D02*
X190476190Y-126154819D01*
X191000000Y-126154819D02*
X191000000Y-126392914D01*
X190761905Y-126297676D02*
X191000000Y-126392914D01*
X191000000Y-126392914D02*
X191238095Y-126297676D01*
X190857143Y-126583390D02*
X191000000Y-126392914D01*
X191000000Y-126392914D02*
X191142857Y-126583390D01*
X191761905Y-126154819D02*
X191761905Y-126392914D01*
X191523810Y-126297676D02*
X191761905Y-126392914D01*
X191761905Y-126392914D02*
X192000000Y-126297676D01*
X191619048Y-126583390D02*
X191761905Y-126392914D01*
X191761905Y-126392914D02*
X191904762Y-126583390D01*
X179238095Y-99929819D02*
X179238095Y-98929819D01*
X179238095Y-99406009D02*
X179809523Y-99406009D01*
X179809523Y-99929819D02*
X179809523Y-98929819D01*
X180714285Y-99263152D02*
X180714285Y-99929819D01*
X180476190Y-98882200D02*
X180238095Y-99596485D01*
X180238095Y-99596485D02*
X180857142Y-99596485D01*
X199238095Y-62929819D02*
X199238095Y-61929819D01*
X199238095Y-62406009D02*
X199809523Y-62406009D01*
X199809523Y-62929819D02*
X199809523Y-61929819D01*
X200190476Y-61929819D02*
X200809523Y-61929819D01*
X200809523Y-61929819D02*
X200476190Y-62310771D01*
X200476190Y-62310771D02*
X200619047Y-62310771D01*
X200619047Y-62310771D02*
X200714285Y-62358390D01*
X200714285Y-62358390D02*
X200761904Y-62406009D01*
X200761904Y-62406009D02*
X200809523Y-62501247D01*
X200809523Y-62501247D02*
X200809523Y-62739342D01*
X200809523Y-62739342D02*
X200761904Y-62834580D01*
X200761904Y-62834580D02*
X200714285Y-62882200D01*
X200714285Y-62882200D02*
X200619047Y-62929819D01*
X200619047Y-62929819D02*
X200333333Y-62929819D01*
X200333333Y-62929819D02*
X200238095Y-62882200D01*
X200238095Y-62882200D02*
X200190476Y-62834580D01*
X199238095Y-99929819D02*
X199238095Y-98929819D01*
X199238095Y-99406009D02*
X199809523Y-99406009D01*
X199809523Y-99929819D02*
X199809523Y-98929819D01*
X200238095Y-99025057D02*
X200285714Y-98977438D01*
X200285714Y-98977438D02*
X200380952Y-98929819D01*
X200380952Y-98929819D02*
X200619047Y-98929819D01*
X200619047Y-98929819D02*
X200714285Y-98977438D01*
X200714285Y-98977438D02*
X200761904Y-99025057D01*
X200761904Y-99025057D02*
X200809523Y-99120295D01*
X200809523Y-99120295D02*
X200809523Y-99215533D01*
X200809523Y-99215533D02*
X200761904Y-99358390D01*
X200761904Y-99358390D02*
X200190476Y-99929819D01*
X200190476Y-99929819D02*
X200809523Y-99929819D01*
X179238095Y-62929819D02*
X179238095Y-61929819D01*
X179238095Y-62406009D02*
X179809523Y-62406009D01*
X179809523Y-62929819D02*
X179809523Y-61929819D01*
X180809523Y-62929819D02*
X180238095Y-62929819D01*
X180523809Y-62929819D02*
X180523809Y-61929819D01*
X180523809Y-61929819D02*
X180428571Y-62072676D01*
X180428571Y-62072676D02*
X180333333Y-62167914D01*
X180333333Y-62167914D02*
X180238095Y-62215533D01*
D11*
X183015000Y-69390000D02*
X196985000Y-69390000D01*
X183015000Y-83360000D02*
X183015000Y-69390000D01*
X196985000Y-69390000D02*
X196985000Y-83360000D01*
X196985000Y-83360000D02*
X183015000Y-83360000D01*
X183015000Y-88440000D02*
X196985000Y-88440000D01*
X183015000Y-102410000D02*
X183015000Y-88440000D01*
X196985000Y-88440000D02*
X196985000Y-102410000D01*
X196985000Y-102410000D02*
X183015000Y-102410000D01*
X183015000Y-107490000D02*
X196985000Y-107490000D01*
X183015000Y-121460000D02*
X183015000Y-107490000D01*
X196985000Y-107490000D02*
X196985000Y-121460000D01*
X196985000Y-121460000D02*
X183015000Y-121460000D01*
%LPC*%
D12*
X190000000Y-132000000D03*
D13*
X180000000Y-105475000D03*
X200000000Y-68475000D03*
X200000000Y-105475000D03*
X180000000Y-68475000D03*
D14*
X190000000Y-71295000D03*
D15*
X190000000Y-76375000D03*
D14*
X190000000Y-81455000D03*
D16*
X195080000Y-78915000D03*
X192540000Y-72565000D03*
D14*
X190000000Y-90345000D03*
D15*
X190000000Y-95425000D03*
D14*
X190000000Y-100505000D03*
D16*
X195080000Y-97965000D03*
X192540000Y-91615000D03*
D14*
X190000000Y-109395000D03*
D15*
X190000000Y-114475000D03*
D14*
X190000000Y-119555000D03*
D16*
X195080000Y-117015000D03*
X192540000Y-110665000D03*
D17*
X198220000Y-42945000D03*
X198220000Y-45485000D03*
X198220000Y-48025000D03*
X198220000Y-50565000D03*
X198220000Y-53105000D03*
D18*
X198220000Y-55645000D03*
X198220000Y-58185000D03*
X198220000Y-60725000D03*
X198220000Y-63265000D03*
D19*
X195080000Y-64075000D03*
D20*
X192540000Y-64075000D03*
X190000000Y-64075000D03*
X187460000Y-64075000D03*
X184920000Y-64075000D03*
D18*
X181780000Y-63265000D03*
X181780000Y-60725000D03*
X181780000Y-58185000D03*
X181780000Y-55645000D03*
X181780000Y-42945000D03*
X181780000Y-45485000D03*
X181780000Y-48025000D03*
X181780000Y-53105000D03*
X181780000Y-50565000D03*
%LPD*%
M02*
