%TF.GenerationSoftware,KiCad,Pcbnew,8.0.9-8.0.9-0~ubuntu22.04.1*%
%TF.CreationDate,2025-08-04T16:28:35+08:00*%
%TF.ProjectId,macropad,6d616372-6f70-4616-942e-6b696361645f,rev?*%
%TF.SameCoordinates,Original*%
%TF.FileFunction,Drillmap*%
%TF.FilePolarity,Positive*%
%FSLAX45Y45*%
G04 Gerber Fmt 4.5, Leading zero omitted, Abs format (unit mm)*
G04 Created by KiCad (PCBNEW 8.0.9-8.0.9-0~ubuntu22.04.1) date 2025-08-04 16:28:35*
%MOMM*%
%LPD*%
G01*
G04 APERTURE LIST*
%ADD10C,0.050000*%
%ADD11C,0.200000*%
%ADD12C,0.100000*%
%ADD13C,0.150000*%
G04 APERTURE END LIST*
D10*
X18000000Y-13000000D02*
X17800000Y-13000000D01*
X20000000Y-13000000D02*
X20200000Y-13000000D01*
X20000000Y-13000000D02*
G75*
G02*
X18000000Y-13000000I-1000000J600000D01*
G01*
X17500000Y-12700000D02*
X17500000Y-4400000D01*
X20500000Y-4400000D02*
X20500000Y-12700000D01*
X17800000Y-4100000D02*
X20200000Y-4100000D01*
X17500000Y-4400000D02*
G75*
G02*
X17800000Y-4100000I300000J0D01*
G01*
X20200000Y-4100000D02*
G75*
G02*
X20500000Y-4400000I0J-300000D01*
G01*
X20500000Y-12700000D02*
G75*
G02*
X20200000Y-13000000I-300000J0D01*
G01*
X17800000Y-13000000D02*
G75*
G02*
X17500000Y-12700000I0J300000D01*
G01*
D11*
D12*
X18198000Y-4254500D02*
X18278000Y-4334500D01*
X18278000Y-4254500D02*
X18198000Y-4334500D01*
X18198000Y-4508500D02*
X18278000Y-4588500D01*
X18278000Y-4508500D02*
X18198000Y-4588500D01*
X18198000Y-4762500D02*
X18278000Y-4842500D01*
X18278000Y-4762500D02*
X18198000Y-4842500D01*
X18198000Y-5016500D02*
X18278000Y-5096500D01*
X18278000Y-5016500D02*
X18198000Y-5096500D01*
X18198000Y-5270500D02*
X18278000Y-5350500D01*
X18278000Y-5270500D02*
X18198000Y-5350500D01*
X18198000Y-5524500D02*
X18278000Y-5604500D01*
X18278000Y-5524500D02*
X18198000Y-5604500D01*
X18198000Y-5778500D02*
X18278000Y-5858500D01*
X18278000Y-5778500D02*
X18198000Y-5858500D01*
X18198000Y-6032500D02*
X18278000Y-6112500D01*
X18278000Y-6032500D02*
X18198000Y-6112500D01*
X18198000Y-6286500D02*
X18278000Y-6366500D01*
X18278000Y-6286500D02*
X18198000Y-6366500D01*
X18452000Y-6307500D02*
X18532000Y-6387500D01*
X18532000Y-6307500D02*
X18452000Y-6387500D01*
X18706000Y-6307500D02*
X18786000Y-6387500D01*
X18786000Y-6307500D02*
X18706000Y-6387500D01*
X18960000Y-6307500D02*
X19040000Y-6387500D01*
X19040000Y-6307500D02*
X18960000Y-6387500D01*
X19214000Y-6307500D02*
X19294000Y-6387500D01*
X19294000Y-6307500D02*
X19214000Y-6387500D01*
X19468000Y-6307500D02*
X19548000Y-6387500D01*
X19548000Y-6307500D02*
X19468000Y-6387500D01*
X19722000Y-4254500D02*
X19802000Y-4334500D01*
X19802000Y-4254500D02*
X19722000Y-4334500D01*
X19722000Y-4508500D02*
X19802000Y-4588500D01*
X19802000Y-4508500D02*
X19722000Y-4588500D01*
X19722000Y-4762500D02*
X19802000Y-4842500D01*
X19802000Y-4762500D02*
X19722000Y-4842500D01*
X19722000Y-5016500D02*
X19802000Y-5096500D01*
X19802000Y-5016500D02*
X19722000Y-5096500D01*
X19722000Y-5270500D02*
X19802000Y-5350500D01*
X19802000Y-5270500D02*
X19722000Y-5350500D01*
X19722000Y-5524500D02*
X19802000Y-5604500D01*
X19802000Y-5524500D02*
X19722000Y-5604500D01*
X19722000Y-5778500D02*
X19802000Y-5858500D01*
X19802000Y-5778500D02*
X19722000Y-5858500D01*
X19722000Y-6032500D02*
X19802000Y-6112500D01*
X19802000Y-6032500D02*
X19722000Y-6112500D01*
X19722000Y-6286500D02*
X19802000Y-6366500D01*
X19802000Y-6286500D02*
X19722000Y-6366500D01*
D13*
X19329000Y-7256500D02*
G75*
G02*
X19179000Y-7256500I-75000J0D01*
G01*
X19179000Y-7256500D02*
G75*
G02*
X19329000Y-7256500I75000J0D01*
G01*
X19329000Y-9161500D02*
G75*
G02*
X19179000Y-9161500I-75000J0D01*
G01*
X19179000Y-9161500D02*
G75*
G02*
X19329000Y-9161500I75000J0D01*
G01*
X19329000Y-11066500D02*
G75*
G02*
X19179000Y-11066500I-75000J0D01*
G01*
X19179000Y-11066500D02*
G75*
G02*
X19329000Y-11066500I75000J0D01*
G01*
X19583000Y-7891500D02*
G75*
G02*
X19433000Y-7891500I-75000J0D01*
G01*
X19433000Y-7891500D02*
G75*
G02*
X19583000Y-7891500I75000J0D01*
G01*
X19583000Y-9796500D02*
G75*
G02*
X19433000Y-9796500I-75000J0D01*
G01*
X19433000Y-9796500D02*
G75*
G02*
X19583000Y-9796500I75000J0D01*
G01*
X19583000Y-11701500D02*
G75*
G02*
X19433000Y-11701500I-75000J0D01*
G01*
X19433000Y-11701500D02*
G75*
G02*
X19583000Y-11701500I75000J0D01*
G01*
D11*
X17758277Y-13880174D02*
X17758277Y-13680174D01*
X17758277Y-13680174D02*
X17805896Y-13680174D01*
X17805896Y-13680174D02*
X17834467Y-13689698D01*
X17834467Y-13689698D02*
X17853515Y-13708745D01*
X17853515Y-13708745D02*
X17863039Y-13727793D01*
X17863039Y-13727793D02*
X17872563Y-13765888D01*
X17872563Y-13765888D02*
X17872563Y-13794460D01*
X17872563Y-13794460D02*
X17863039Y-13832555D01*
X17863039Y-13832555D02*
X17853515Y-13851603D01*
X17853515Y-13851603D02*
X17834467Y-13870650D01*
X17834467Y-13870650D02*
X17805896Y-13880174D01*
X17805896Y-13880174D02*
X17758277Y-13880174D01*
X17958277Y-13880174D02*
X17958277Y-13746841D01*
X17958277Y-13784936D02*
X17967801Y-13765888D01*
X17967801Y-13765888D02*
X17977324Y-13756364D01*
X17977324Y-13756364D02*
X17996372Y-13746841D01*
X17996372Y-13746841D02*
X18015420Y-13746841D01*
X18082086Y-13880174D02*
X18082086Y-13746841D01*
X18082086Y-13680174D02*
X18072563Y-13689698D01*
X18072563Y-13689698D02*
X18082086Y-13699222D01*
X18082086Y-13699222D02*
X18091610Y-13689698D01*
X18091610Y-13689698D02*
X18082086Y-13680174D01*
X18082086Y-13680174D02*
X18082086Y-13699222D01*
X18205896Y-13880174D02*
X18186848Y-13870650D01*
X18186848Y-13870650D02*
X18177324Y-13851603D01*
X18177324Y-13851603D02*
X18177324Y-13680174D01*
X18310658Y-13880174D02*
X18291610Y-13870650D01*
X18291610Y-13870650D02*
X18282086Y-13851603D01*
X18282086Y-13851603D02*
X18282086Y-13680174D01*
X18539229Y-13880174D02*
X18539229Y-13680174D01*
X18539229Y-13680174D02*
X18605896Y-13823031D01*
X18605896Y-13823031D02*
X18672563Y-13680174D01*
X18672563Y-13680174D02*
X18672563Y-13880174D01*
X18853515Y-13880174D02*
X18853515Y-13775412D01*
X18853515Y-13775412D02*
X18843991Y-13756364D01*
X18843991Y-13756364D02*
X18824944Y-13746841D01*
X18824944Y-13746841D02*
X18786848Y-13746841D01*
X18786848Y-13746841D02*
X18767801Y-13756364D01*
X18853515Y-13870650D02*
X18834467Y-13880174D01*
X18834467Y-13880174D02*
X18786848Y-13880174D01*
X18786848Y-13880174D02*
X18767801Y-13870650D01*
X18767801Y-13870650D02*
X18758277Y-13851603D01*
X18758277Y-13851603D02*
X18758277Y-13832555D01*
X18758277Y-13832555D02*
X18767801Y-13813507D01*
X18767801Y-13813507D02*
X18786848Y-13803984D01*
X18786848Y-13803984D02*
X18834467Y-13803984D01*
X18834467Y-13803984D02*
X18853515Y-13794460D01*
X18948753Y-13746841D02*
X18948753Y-13946841D01*
X18948753Y-13756364D02*
X18967801Y-13746841D01*
X18967801Y-13746841D02*
X19005896Y-13746841D01*
X19005896Y-13746841D02*
X19024944Y-13756364D01*
X19024944Y-13756364D02*
X19034467Y-13765888D01*
X19034467Y-13765888D02*
X19043991Y-13784936D01*
X19043991Y-13784936D02*
X19043991Y-13842079D01*
X19043991Y-13842079D02*
X19034467Y-13861126D01*
X19034467Y-13861126D02*
X19024944Y-13870650D01*
X19024944Y-13870650D02*
X19005896Y-13880174D01*
X19005896Y-13880174D02*
X18967801Y-13880174D01*
X18967801Y-13880174D02*
X18948753Y-13870650D01*
X19129705Y-13861126D02*
X19139229Y-13870650D01*
X19139229Y-13870650D02*
X19129705Y-13880174D01*
X19129705Y-13880174D02*
X19120182Y-13870650D01*
X19120182Y-13870650D02*
X19129705Y-13861126D01*
X19129705Y-13861126D02*
X19129705Y-13880174D01*
X19129705Y-13756364D02*
X19139229Y-13765888D01*
X19139229Y-13765888D02*
X19129705Y-13775412D01*
X19129705Y-13775412D02*
X19120182Y-13765888D01*
X19120182Y-13765888D02*
X19129705Y-13756364D01*
X19129705Y-13756364D02*
X19129705Y-13775412D01*
D12*
X17417500Y-14168690D02*
X17497500Y-14248690D01*
X17497500Y-14168690D02*
X17417500Y-14248690D01*
D11*
X17796372Y-14100174D02*
X17815420Y-14100174D01*
X17815420Y-14100174D02*
X17834467Y-14109698D01*
X17834467Y-14109698D02*
X17843991Y-14119222D01*
X17843991Y-14119222D02*
X17853515Y-14138269D01*
X17853515Y-14138269D02*
X17863039Y-14176364D01*
X17863039Y-14176364D02*
X17863039Y-14223984D01*
X17863039Y-14223984D02*
X17853515Y-14262079D01*
X17853515Y-14262079D02*
X17843991Y-14281126D01*
X17843991Y-14281126D02*
X17834467Y-14290650D01*
X17834467Y-14290650D02*
X17815420Y-14300174D01*
X17815420Y-14300174D02*
X17796372Y-14300174D01*
X17796372Y-14300174D02*
X17777324Y-14290650D01*
X17777324Y-14290650D02*
X17767801Y-14281126D01*
X17767801Y-14281126D02*
X17758277Y-14262079D01*
X17758277Y-14262079D02*
X17748753Y-14223984D01*
X17748753Y-14223984D02*
X17748753Y-14176364D01*
X17748753Y-14176364D02*
X17758277Y-14138269D01*
X17758277Y-14138269D02*
X17767801Y-14119222D01*
X17767801Y-14119222D02*
X17777324Y-14109698D01*
X17777324Y-14109698D02*
X17796372Y-14100174D01*
X17948753Y-14281126D02*
X17958277Y-14290650D01*
X17958277Y-14290650D02*
X17948753Y-14300174D01*
X17948753Y-14300174D02*
X17939229Y-14290650D01*
X17939229Y-14290650D02*
X17948753Y-14281126D01*
X17948753Y-14281126D02*
X17948753Y-14300174D01*
X18072563Y-14185888D02*
X18053515Y-14176364D01*
X18053515Y-14176364D02*
X18043991Y-14166841D01*
X18043991Y-14166841D02*
X18034467Y-14147793D01*
X18034467Y-14147793D02*
X18034467Y-14138269D01*
X18034467Y-14138269D02*
X18043991Y-14119222D01*
X18043991Y-14119222D02*
X18053515Y-14109698D01*
X18053515Y-14109698D02*
X18072563Y-14100174D01*
X18072563Y-14100174D02*
X18110658Y-14100174D01*
X18110658Y-14100174D02*
X18129705Y-14109698D01*
X18129705Y-14109698D02*
X18139229Y-14119222D01*
X18139229Y-14119222D02*
X18148753Y-14138269D01*
X18148753Y-14138269D02*
X18148753Y-14147793D01*
X18148753Y-14147793D02*
X18139229Y-14166841D01*
X18139229Y-14166841D02*
X18129705Y-14176364D01*
X18129705Y-14176364D02*
X18110658Y-14185888D01*
X18110658Y-14185888D02*
X18072563Y-14185888D01*
X18072563Y-14185888D02*
X18053515Y-14195412D01*
X18053515Y-14195412D02*
X18043991Y-14204936D01*
X18043991Y-14204936D02*
X18034467Y-14223984D01*
X18034467Y-14223984D02*
X18034467Y-14262079D01*
X18034467Y-14262079D02*
X18043991Y-14281126D01*
X18043991Y-14281126D02*
X18053515Y-14290650D01*
X18053515Y-14290650D02*
X18072563Y-14300174D01*
X18072563Y-14300174D02*
X18110658Y-14300174D01*
X18110658Y-14300174D02*
X18129705Y-14290650D01*
X18129705Y-14290650D02*
X18139229Y-14281126D01*
X18139229Y-14281126D02*
X18148753Y-14262079D01*
X18148753Y-14262079D02*
X18148753Y-14223984D01*
X18148753Y-14223984D02*
X18139229Y-14204936D01*
X18139229Y-14204936D02*
X18129705Y-14195412D01*
X18129705Y-14195412D02*
X18110658Y-14185888D01*
X18272563Y-14100174D02*
X18291610Y-14100174D01*
X18291610Y-14100174D02*
X18310658Y-14109698D01*
X18310658Y-14109698D02*
X18320182Y-14119222D01*
X18320182Y-14119222D02*
X18329705Y-14138269D01*
X18329705Y-14138269D02*
X18339229Y-14176364D01*
X18339229Y-14176364D02*
X18339229Y-14223984D01*
X18339229Y-14223984D02*
X18329705Y-14262079D01*
X18329705Y-14262079D02*
X18320182Y-14281126D01*
X18320182Y-14281126D02*
X18310658Y-14290650D01*
X18310658Y-14290650D02*
X18291610Y-14300174D01*
X18291610Y-14300174D02*
X18272563Y-14300174D01*
X18272563Y-14300174D02*
X18253515Y-14290650D01*
X18253515Y-14290650D02*
X18243991Y-14281126D01*
X18243991Y-14281126D02*
X18234467Y-14262079D01*
X18234467Y-14262079D02*
X18224944Y-14223984D01*
X18224944Y-14223984D02*
X18224944Y-14176364D01*
X18224944Y-14176364D02*
X18234467Y-14138269D01*
X18234467Y-14138269D02*
X18243991Y-14119222D01*
X18243991Y-14119222D02*
X18253515Y-14109698D01*
X18253515Y-14109698D02*
X18272563Y-14100174D01*
X18463039Y-14100174D02*
X18482086Y-14100174D01*
X18482086Y-14100174D02*
X18501134Y-14109698D01*
X18501134Y-14109698D02*
X18510658Y-14119222D01*
X18510658Y-14119222D02*
X18520182Y-14138269D01*
X18520182Y-14138269D02*
X18529705Y-14176364D01*
X18529705Y-14176364D02*
X18529705Y-14223984D01*
X18529705Y-14223984D02*
X18520182Y-14262079D01*
X18520182Y-14262079D02*
X18510658Y-14281126D01*
X18510658Y-14281126D02*
X18501134Y-14290650D01*
X18501134Y-14290650D02*
X18482086Y-14300174D01*
X18482086Y-14300174D02*
X18463039Y-14300174D01*
X18463039Y-14300174D02*
X18443991Y-14290650D01*
X18443991Y-14290650D02*
X18434467Y-14281126D01*
X18434467Y-14281126D02*
X18424944Y-14262079D01*
X18424944Y-14262079D02*
X18415420Y-14223984D01*
X18415420Y-14223984D02*
X18415420Y-14176364D01*
X18415420Y-14176364D02*
X18424944Y-14138269D01*
X18424944Y-14138269D02*
X18434467Y-14119222D01*
X18434467Y-14119222D02*
X18443991Y-14109698D01*
X18443991Y-14109698D02*
X18463039Y-14100174D01*
X18615420Y-14300174D02*
X18615420Y-14166841D01*
X18615420Y-14185888D02*
X18624944Y-14176364D01*
X18624944Y-14176364D02*
X18643991Y-14166841D01*
X18643991Y-14166841D02*
X18672563Y-14166841D01*
X18672563Y-14166841D02*
X18691610Y-14176364D01*
X18691610Y-14176364D02*
X18701134Y-14195412D01*
X18701134Y-14195412D02*
X18701134Y-14300174D01*
X18701134Y-14195412D02*
X18710658Y-14176364D01*
X18710658Y-14176364D02*
X18729705Y-14166841D01*
X18729705Y-14166841D02*
X18758277Y-14166841D01*
X18758277Y-14166841D02*
X18777325Y-14176364D01*
X18777325Y-14176364D02*
X18786848Y-14195412D01*
X18786848Y-14195412D02*
X18786848Y-14300174D01*
X18882086Y-14300174D02*
X18882086Y-14166841D01*
X18882086Y-14185888D02*
X18891610Y-14176364D01*
X18891610Y-14176364D02*
X18910658Y-14166841D01*
X18910658Y-14166841D02*
X18939229Y-14166841D01*
X18939229Y-14166841D02*
X18958277Y-14176364D01*
X18958277Y-14176364D02*
X18967801Y-14195412D01*
X18967801Y-14195412D02*
X18967801Y-14300174D01*
X18967801Y-14195412D02*
X18977325Y-14176364D01*
X18977325Y-14176364D02*
X18996372Y-14166841D01*
X18996372Y-14166841D02*
X19024944Y-14166841D01*
X19024944Y-14166841D02*
X19043991Y-14176364D01*
X19043991Y-14176364D02*
X19053515Y-14195412D01*
X19053515Y-14195412D02*
X19053515Y-14300174D01*
X19443991Y-14090650D02*
X19272563Y-14347793D01*
X19701134Y-14100174D02*
X19720182Y-14100174D01*
X19720182Y-14100174D02*
X19739229Y-14109698D01*
X19739229Y-14109698D02*
X19748753Y-14119222D01*
X19748753Y-14119222D02*
X19758277Y-14138269D01*
X19758277Y-14138269D02*
X19767801Y-14176364D01*
X19767801Y-14176364D02*
X19767801Y-14223984D01*
X19767801Y-14223984D02*
X19758277Y-14262079D01*
X19758277Y-14262079D02*
X19748753Y-14281126D01*
X19748753Y-14281126D02*
X19739229Y-14290650D01*
X19739229Y-14290650D02*
X19720182Y-14300174D01*
X19720182Y-14300174D02*
X19701134Y-14300174D01*
X19701134Y-14300174D02*
X19682087Y-14290650D01*
X19682087Y-14290650D02*
X19672563Y-14281126D01*
X19672563Y-14281126D02*
X19663039Y-14262079D01*
X19663039Y-14262079D02*
X19653515Y-14223984D01*
X19653515Y-14223984D02*
X19653515Y-14176364D01*
X19653515Y-14176364D02*
X19663039Y-14138269D01*
X19663039Y-14138269D02*
X19672563Y-14119222D01*
X19672563Y-14119222D02*
X19682087Y-14109698D01*
X19682087Y-14109698D02*
X19701134Y-14100174D01*
X19853515Y-14281126D02*
X19863039Y-14290650D01*
X19863039Y-14290650D02*
X19853515Y-14300174D01*
X19853515Y-14300174D02*
X19843991Y-14290650D01*
X19843991Y-14290650D02*
X19853515Y-14281126D01*
X19853515Y-14281126D02*
X19853515Y-14300174D01*
X19986848Y-14100174D02*
X20005896Y-14100174D01*
X20005896Y-14100174D02*
X20024944Y-14109698D01*
X20024944Y-14109698D02*
X20034468Y-14119222D01*
X20034468Y-14119222D02*
X20043991Y-14138269D01*
X20043991Y-14138269D02*
X20053515Y-14176364D01*
X20053515Y-14176364D02*
X20053515Y-14223984D01*
X20053515Y-14223984D02*
X20043991Y-14262079D01*
X20043991Y-14262079D02*
X20034468Y-14281126D01*
X20034468Y-14281126D02*
X20024944Y-14290650D01*
X20024944Y-14290650D02*
X20005896Y-14300174D01*
X20005896Y-14300174D02*
X19986848Y-14300174D01*
X19986848Y-14300174D02*
X19967801Y-14290650D01*
X19967801Y-14290650D02*
X19958277Y-14281126D01*
X19958277Y-14281126D02*
X19948753Y-14262079D01*
X19948753Y-14262079D02*
X19939229Y-14223984D01*
X19939229Y-14223984D02*
X19939229Y-14176364D01*
X19939229Y-14176364D02*
X19948753Y-14138269D01*
X19948753Y-14138269D02*
X19958277Y-14119222D01*
X19958277Y-14119222D02*
X19967801Y-14109698D01*
X19967801Y-14109698D02*
X19986848Y-14100174D01*
X20120182Y-14100174D02*
X20243991Y-14100174D01*
X20243991Y-14100174D02*
X20177325Y-14176364D01*
X20177325Y-14176364D02*
X20205896Y-14176364D01*
X20205896Y-14176364D02*
X20224944Y-14185888D01*
X20224944Y-14185888D02*
X20234468Y-14195412D01*
X20234468Y-14195412D02*
X20243991Y-14214460D01*
X20243991Y-14214460D02*
X20243991Y-14262079D01*
X20243991Y-14262079D02*
X20234468Y-14281126D01*
X20234468Y-14281126D02*
X20224944Y-14290650D01*
X20224944Y-14290650D02*
X20205896Y-14300174D01*
X20205896Y-14300174D02*
X20148753Y-14300174D01*
X20148753Y-14300174D02*
X20129706Y-14290650D01*
X20129706Y-14290650D02*
X20120182Y-14281126D01*
X20434468Y-14300174D02*
X20320182Y-14300174D01*
X20377325Y-14300174D02*
X20377325Y-14100174D01*
X20377325Y-14100174D02*
X20358277Y-14128745D01*
X20358277Y-14128745D02*
X20339229Y-14147793D01*
X20339229Y-14147793D02*
X20320182Y-14157317D01*
X20615420Y-14100174D02*
X20520182Y-14100174D01*
X20520182Y-14100174D02*
X20510658Y-14195412D01*
X20510658Y-14195412D02*
X20520182Y-14185888D01*
X20520182Y-14185888D02*
X20539229Y-14176364D01*
X20539229Y-14176364D02*
X20586849Y-14176364D01*
X20586849Y-14176364D02*
X20605896Y-14185888D01*
X20605896Y-14185888D02*
X20615420Y-14195412D01*
X20615420Y-14195412D02*
X20624944Y-14214460D01*
X20624944Y-14214460D02*
X20624944Y-14262079D01*
X20624944Y-14262079D02*
X20615420Y-14281126D01*
X20615420Y-14281126D02*
X20605896Y-14290650D01*
X20605896Y-14290650D02*
X20586849Y-14300174D01*
X20586849Y-14300174D02*
X20539229Y-14300174D01*
X20539229Y-14300174D02*
X20520182Y-14290650D01*
X20520182Y-14290650D02*
X20510658Y-14281126D01*
X20701134Y-14100174D02*
X20701134Y-14138269D01*
X20777325Y-14100174D02*
X20777325Y-14138269D01*
X21072563Y-14376364D02*
X21063039Y-14366841D01*
X21063039Y-14366841D02*
X21043991Y-14338269D01*
X21043991Y-14338269D02*
X21034468Y-14319222D01*
X21034468Y-14319222D02*
X21024944Y-14290650D01*
X21024944Y-14290650D02*
X21015420Y-14243031D01*
X21015420Y-14243031D02*
X21015420Y-14204936D01*
X21015420Y-14204936D02*
X21024944Y-14157317D01*
X21024944Y-14157317D02*
X21034468Y-14128745D01*
X21034468Y-14128745D02*
X21043991Y-14109698D01*
X21043991Y-14109698D02*
X21063039Y-14081126D01*
X21063039Y-14081126D02*
X21072563Y-14071603D01*
X21139230Y-14119222D02*
X21148753Y-14109698D01*
X21148753Y-14109698D02*
X21167801Y-14100174D01*
X21167801Y-14100174D02*
X21215420Y-14100174D01*
X21215420Y-14100174D02*
X21234468Y-14109698D01*
X21234468Y-14109698D02*
X21243991Y-14119222D01*
X21243991Y-14119222D02*
X21253515Y-14138269D01*
X21253515Y-14138269D02*
X21253515Y-14157317D01*
X21253515Y-14157317D02*
X21243991Y-14185888D01*
X21243991Y-14185888D02*
X21129706Y-14300174D01*
X21129706Y-14300174D02*
X21253515Y-14300174D01*
X21320182Y-14100174D02*
X21443991Y-14100174D01*
X21443991Y-14100174D02*
X21377325Y-14176364D01*
X21377325Y-14176364D02*
X21405896Y-14176364D01*
X21405896Y-14176364D02*
X21424944Y-14185888D01*
X21424944Y-14185888D02*
X21434468Y-14195412D01*
X21434468Y-14195412D02*
X21443991Y-14214460D01*
X21443991Y-14214460D02*
X21443991Y-14262079D01*
X21443991Y-14262079D02*
X21434468Y-14281126D01*
X21434468Y-14281126D02*
X21424944Y-14290650D01*
X21424944Y-14290650D02*
X21405896Y-14300174D01*
X21405896Y-14300174D02*
X21348753Y-14300174D01*
X21348753Y-14300174D02*
X21329706Y-14290650D01*
X21329706Y-14290650D02*
X21320182Y-14281126D01*
X21682087Y-14300174D02*
X21682087Y-14100174D01*
X21767801Y-14300174D02*
X21767801Y-14195412D01*
X21767801Y-14195412D02*
X21758277Y-14176364D01*
X21758277Y-14176364D02*
X21739230Y-14166841D01*
X21739230Y-14166841D02*
X21710658Y-14166841D01*
X21710658Y-14166841D02*
X21691611Y-14176364D01*
X21691611Y-14176364D02*
X21682087Y-14185888D01*
X21891611Y-14300174D02*
X21872563Y-14290650D01*
X21872563Y-14290650D02*
X21863039Y-14281126D01*
X21863039Y-14281126D02*
X21853515Y-14262079D01*
X21853515Y-14262079D02*
X21853515Y-14204936D01*
X21853515Y-14204936D02*
X21863039Y-14185888D01*
X21863039Y-14185888D02*
X21872563Y-14176364D01*
X21872563Y-14176364D02*
X21891611Y-14166841D01*
X21891611Y-14166841D02*
X21920182Y-14166841D01*
X21920182Y-14166841D02*
X21939230Y-14176364D01*
X21939230Y-14176364D02*
X21948753Y-14185888D01*
X21948753Y-14185888D02*
X21958277Y-14204936D01*
X21958277Y-14204936D02*
X21958277Y-14262079D01*
X21958277Y-14262079D02*
X21948753Y-14281126D01*
X21948753Y-14281126D02*
X21939230Y-14290650D01*
X21939230Y-14290650D02*
X21920182Y-14300174D01*
X21920182Y-14300174D02*
X21891611Y-14300174D01*
X22072563Y-14300174D02*
X22053515Y-14290650D01*
X22053515Y-14290650D02*
X22043992Y-14271603D01*
X22043992Y-14271603D02*
X22043992Y-14100174D01*
X22224944Y-14290650D02*
X22205896Y-14300174D01*
X22205896Y-14300174D02*
X22167801Y-14300174D01*
X22167801Y-14300174D02*
X22148753Y-14290650D01*
X22148753Y-14290650D02*
X22139230Y-14271603D01*
X22139230Y-14271603D02*
X22139230Y-14195412D01*
X22139230Y-14195412D02*
X22148753Y-14176364D01*
X22148753Y-14176364D02*
X22167801Y-14166841D01*
X22167801Y-14166841D02*
X22205896Y-14166841D01*
X22205896Y-14166841D02*
X22224944Y-14176364D01*
X22224944Y-14176364D02*
X22234468Y-14195412D01*
X22234468Y-14195412D02*
X22234468Y-14214460D01*
X22234468Y-14214460D02*
X22139230Y-14233507D01*
X22310658Y-14290650D02*
X22329706Y-14300174D01*
X22329706Y-14300174D02*
X22367801Y-14300174D01*
X22367801Y-14300174D02*
X22386849Y-14290650D01*
X22386849Y-14290650D02*
X22396372Y-14271603D01*
X22396372Y-14271603D02*
X22396372Y-14262079D01*
X22396372Y-14262079D02*
X22386849Y-14243031D01*
X22386849Y-14243031D02*
X22367801Y-14233507D01*
X22367801Y-14233507D02*
X22339230Y-14233507D01*
X22339230Y-14233507D02*
X22320182Y-14223984D01*
X22320182Y-14223984D02*
X22310658Y-14204936D01*
X22310658Y-14204936D02*
X22310658Y-14195412D01*
X22310658Y-14195412D02*
X22320182Y-14176364D01*
X22320182Y-14176364D02*
X22339230Y-14166841D01*
X22339230Y-14166841D02*
X22367801Y-14166841D01*
X22367801Y-14166841D02*
X22386849Y-14176364D01*
X22463039Y-14376364D02*
X22472563Y-14366841D01*
X22472563Y-14366841D02*
X22491611Y-14338269D01*
X22491611Y-14338269D02*
X22501134Y-14319222D01*
X22501134Y-14319222D02*
X22510658Y-14290650D01*
X22510658Y-14290650D02*
X22520182Y-14243031D01*
X22520182Y-14243031D02*
X22520182Y-14204936D01*
X22520182Y-14204936D02*
X22510658Y-14157317D01*
X22510658Y-14157317D02*
X22501134Y-14128745D01*
X22501134Y-14128745D02*
X22491611Y-14109698D01*
X22491611Y-14109698D02*
X22472563Y-14081126D01*
X22472563Y-14081126D02*
X22463039Y-14071603D01*
D13*
X17497500Y-14472690D02*
G75*
G02*
X17347500Y-14472690I-75000J0D01*
G01*
X17347500Y-14472690D02*
G75*
G02*
X17497500Y-14472690I75000J0D01*
G01*
D11*
X17863039Y-14564174D02*
X17748753Y-14564174D01*
X17805896Y-14564174D02*
X17805896Y-14364174D01*
X17805896Y-14364174D02*
X17786848Y-14392745D01*
X17786848Y-14392745D02*
X17767801Y-14411793D01*
X17767801Y-14411793D02*
X17748753Y-14421317D01*
X17948753Y-14545126D02*
X17958277Y-14554650D01*
X17958277Y-14554650D02*
X17948753Y-14564174D01*
X17948753Y-14564174D02*
X17939229Y-14554650D01*
X17939229Y-14554650D02*
X17948753Y-14545126D01*
X17948753Y-14545126D02*
X17948753Y-14564174D01*
X18139229Y-14364174D02*
X18043991Y-14364174D01*
X18043991Y-14364174D02*
X18034467Y-14459412D01*
X18034467Y-14459412D02*
X18043991Y-14449888D01*
X18043991Y-14449888D02*
X18063039Y-14440364D01*
X18063039Y-14440364D02*
X18110658Y-14440364D01*
X18110658Y-14440364D02*
X18129705Y-14449888D01*
X18129705Y-14449888D02*
X18139229Y-14459412D01*
X18139229Y-14459412D02*
X18148753Y-14478460D01*
X18148753Y-14478460D02*
X18148753Y-14526079D01*
X18148753Y-14526079D02*
X18139229Y-14545126D01*
X18139229Y-14545126D02*
X18129705Y-14554650D01*
X18129705Y-14554650D02*
X18110658Y-14564174D01*
X18110658Y-14564174D02*
X18063039Y-14564174D01*
X18063039Y-14564174D02*
X18043991Y-14554650D01*
X18043991Y-14554650D02*
X18034467Y-14545126D01*
X18272563Y-14364174D02*
X18291610Y-14364174D01*
X18291610Y-14364174D02*
X18310658Y-14373698D01*
X18310658Y-14373698D02*
X18320182Y-14383222D01*
X18320182Y-14383222D02*
X18329705Y-14402269D01*
X18329705Y-14402269D02*
X18339229Y-14440364D01*
X18339229Y-14440364D02*
X18339229Y-14487984D01*
X18339229Y-14487984D02*
X18329705Y-14526079D01*
X18329705Y-14526079D02*
X18320182Y-14545126D01*
X18320182Y-14545126D02*
X18310658Y-14554650D01*
X18310658Y-14554650D02*
X18291610Y-14564174D01*
X18291610Y-14564174D02*
X18272563Y-14564174D01*
X18272563Y-14564174D02*
X18253515Y-14554650D01*
X18253515Y-14554650D02*
X18243991Y-14545126D01*
X18243991Y-14545126D02*
X18234467Y-14526079D01*
X18234467Y-14526079D02*
X18224944Y-14487984D01*
X18224944Y-14487984D02*
X18224944Y-14440364D01*
X18224944Y-14440364D02*
X18234467Y-14402269D01*
X18234467Y-14402269D02*
X18243991Y-14383222D01*
X18243991Y-14383222D02*
X18253515Y-14373698D01*
X18253515Y-14373698D02*
X18272563Y-14364174D01*
X18463039Y-14364174D02*
X18482086Y-14364174D01*
X18482086Y-14364174D02*
X18501134Y-14373698D01*
X18501134Y-14373698D02*
X18510658Y-14383222D01*
X18510658Y-14383222D02*
X18520182Y-14402269D01*
X18520182Y-14402269D02*
X18529705Y-14440364D01*
X18529705Y-14440364D02*
X18529705Y-14487984D01*
X18529705Y-14487984D02*
X18520182Y-14526079D01*
X18520182Y-14526079D02*
X18510658Y-14545126D01*
X18510658Y-14545126D02*
X18501134Y-14554650D01*
X18501134Y-14554650D02*
X18482086Y-14564174D01*
X18482086Y-14564174D02*
X18463039Y-14564174D01*
X18463039Y-14564174D02*
X18443991Y-14554650D01*
X18443991Y-14554650D02*
X18434467Y-14545126D01*
X18434467Y-14545126D02*
X18424944Y-14526079D01*
X18424944Y-14526079D02*
X18415420Y-14487984D01*
X18415420Y-14487984D02*
X18415420Y-14440364D01*
X18415420Y-14440364D02*
X18424944Y-14402269D01*
X18424944Y-14402269D02*
X18434467Y-14383222D01*
X18434467Y-14383222D02*
X18443991Y-14373698D01*
X18443991Y-14373698D02*
X18463039Y-14364174D01*
X18615420Y-14564174D02*
X18615420Y-14430841D01*
X18615420Y-14449888D02*
X18624944Y-14440364D01*
X18624944Y-14440364D02*
X18643991Y-14430841D01*
X18643991Y-14430841D02*
X18672563Y-14430841D01*
X18672563Y-14430841D02*
X18691610Y-14440364D01*
X18691610Y-14440364D02*
X18701134Y-14459412D01*
X18701134Y-14459412D02*
X18701134Y-14564174D01*
X18701134Y-14459412D02*
X18710658Y-14440364D01*
X18710658Y-14440364D02*
X18729705Y-14430841D01*
X18729705Y-14430841D02*
X18758277Y-14430841D01*
X18758277Y-14430841D02*
X18777325Y-14440364D01*
X18777325Y-14440364D02*
X18786848Y-14459412D01*
X18786848Y-14459412D02*
X18786848Y-14564174D01*
X18882086Y-14564174D02*
X18882086Y-14430841D01*
X18882086Y-14449888D02*
X18891610Y-14440364D01*
X18891610Y-14440364D02*
X18910658Y-14430841D01*
X18910658Y-14430841D02*
X18939229Y-14430841D01*
X18939229Y-14430841D02*
X18958277Y-14440364D01*
X18958277Y-14440364D02*
X18967801Y-14459412D01*
X18967801Y-14459412D02*
X18967801Y-14564174D01*
X18967801Y-14459412D02*
X18977325Y-14440364D01*
X18977325Y-14440364D02*
X18996372Y-14430841D01*
X18996372Y-14430841D02*
X19024944Y-14430841D01*
X19024944Y-14430841D02*
X19043991Y-14440364D01*
X19043991Y-14440364D02*
X19053515Y-14459412D01*
X19053515Y-14459412D02*
X19053515Y-14564174D01*
X19443991Y-14354650D02*
X19272563Y-14611793D01*
X19701134Y-14364174D02*
X19720182Y-14364174D01*
X19720182Y-14364174D02*
X19739229Y-14373698D01*
X19739229Y-14373698D02*
X19748753Y-14383222D01*
X19748753Y-14383222D02*
X19758277Y-14402269D01*
X19758277Y-14402269D02*
X19767801Y-14440364D01*
X19767801Y-14440364D02*
X19767801Y-14487984D01*
X19767801Y-14487984D02*
X19758277Y-14526079D01*
X19758277Y-14526079D02*
X19748753Y-14545126D01*
X19748753Y-14545126D02*
X19739229Y-14554650D01*
X19739229Y-14554650D02*
X19720182Y-14564174D01*
X19720182Y-14564174D02*
X19701134Y-14564174D01*
X19701134Y-14564174D02*
X19682087Y-14554650D01*
X19682087Y-14554650D02*
X19672563Y-14545126D01*
X19672563Y-14545126D02*
X19663039Y-14526079D01*
X19663039Y-14526079D02*
X19653515Y-14487984D01*
X19653515Y-14487984D02*
X19653515Y-14440364D01*
X19653515Y-14440364D02*
X19663039Y-14402269D01*
X19663039Y-14402269D02*
X19672563Y-14383222D01*
X19672563Y-14383222D02*
X19682087Y-14373698D01*
X19682087Y-14373698D02*
X19701134Y-14364174D01*
X19853515Y-14545126D02*
X19863039Y-14554650D01*
X19863039Y-14554650D02*
X19853515Y-14564174D01*
X19853515Y-14564174D02*
X19843991Y-14554650D01*
X19843991Y-14554650D02*
X19853515Y-14545126D01*
X19853515Y-14545126D02*
X19853515Y-14564174D01*
X19986848Y-14364174D02*
X20005896Y-14364174D01*
X20005896Y-14364174D02*
X20024944Y-14373698D01*
X20024944Y-14373698D02*
X20034468Y-14383222D01*
X20034468Y-14383222D02*
X20043991Y-14402269D01*
X20043991Y-14402269D02*
X20053515Y-14440364D01*
X20053515Y-14440364D02*
X20053515Y-14487984D01*
X20053515Y-14487984D02*
X20043991Y-14526079D01*
X20043991Y-14526079D02*
X20034468Y-14545126D01*
X20034468Y-14545126D02*
X20024944Y-14554650D01*
X20024944Y-14554650D02*
X20005896Y-14564174D01*
X20005896Y-14564174D02*
X19986848Y-14564174D01*
X19986848Y-14564174D02*
X19967801Y-14554650D01*
X19967801Y-14554650D02*
X19958277Y-14545126D01*
X19958277Y-14545126D02*
X19948753Y-14526079D01*
X19948753Y-14526079D02*
X19939229Y-14487984D01*
X19939229Y-14487984D02*
X19939229Y-14440364D01*
X19939229Y-14440364D02*
X19948753Y-14402269D01*
X19948753Y-14402269D02*
X19958277Y-14383222D01*
X19958277Y-14383222D02*
X19967801Y-14373698D01*
X19967801Y-14373698D02*
X19986848Y-14364174D01*
X20234468Y-14364174D02*
X20139229Y-14364174D01*
X20139229Y-14364174D02*
X20129706Y-14459412D01*
X20129706Y-14459412D02*
X20139229Y-14449888D01*
X20139229Y-14449888D02*
X20158277Y-14440364D01*
X20158277Y-14440364D02*
X20205896Y-14440364D01*
X20205896Y-14440364D02*
X20224944Y-14449888D01*
X20224944Y-14449888D02*
X20234468Y-14459412D01*
X20234468Y-14459412D02*
X20243991Y-14478460D01*
X20243991Y-14478460D02*
X20243991Y-14526079D01*
X20243991Y-14526079D02*
X20234468Y-14545126D01*
X20234468Y-14545126D02*
X20224944Y-14554650D01*
X20224944Y-14554650D02*
X20205896Y-14564174D01*
X20205896Y-14564174D02*
X20158277Y-14564174D01*
X20158277Y-14564174D02*
X20139229Y-14554650D01*
X20139229Y-14554650D02*
X20129706Y-14545126D01*
X20339229Y-14564174D02*
X20377325Y-14564174D01*
X20377325Y-14564174D02*
X20396372Y-14554650D01*
X20396372Y-14554650D02*
X20405896Y-14545126D01*
X20405896Y-14545126D02*
X20424944Y-14516555D01*
X20424944Y-14516555D02*
X20434468Y-14478460D01*
X20434468Y-14478460D02*
X20434468Y-14402269D01*
X20434468Y-14402269D02*
X20424944Y-14383222D01*
X20424944Y-14383222D02*
X20415420Y-14373698D01*
X20415420Y-14373698D02*
X20396372Y-14364174D01*
X20396372Y-14364174D02*
X20358277Y-14364174D01*
X20358277Y-14364174D02*
X20339229Y-14373698D01*
X20339229Y-14373698D02*
X20329706Y-14383222D01*
X20329706Y-14383222D02*
X20320182Y-14402269D01*
X20320182Y-14402269D02*
X20320182Y-14449888D01*
X20320182Y-14449888D02*
X20329706Y-14468936D01*
X20329706Y-14468936D02*
X20339229Y-14478460D01*
X20339229Y-14478460D02*
X20358277Y-14487984D01*
X20358277Y-14487984D02*
X20396372Y-14487984D01*
X20396372Y-14487984D02*
X20415420Y-14478460D01*
X20415420Y-14478460D02*
X20424944Y-14468936D01*
X20424944Y-14468936D02*
X20434468Y-14449888D01*
X20624944Y-14564174D02*
X20510658Y-14564174D01*
X20567801Y-14564174D02*
X20567801Y-14364174D01*
X20567801Y-14364174D02*
X20548753Y-14392745D01*
X20548753Y-14392745D02*
X20529706Y-14411793D01*
X20529706Y-14411793D02*
X20510658Y-14421317D01*
X20701134Y-14364174D02*
X20701134Y-14402269D01*
X20777325Y-14364174D02*
X20777325Y-14402269D01*
X21072563Y-14640364D02*
X21063039Y-14630841D01*
X21063039Y-14630841D02*
X21043991Y-14602269D01*
X21043991Y-14602269D02*
X21034468Y-14583222D01*
X21034468Y-14583222D02*
X21024944Y-14554650D01*
X21024944Y-14554650D02*
X21015420Y-14507031D01*
X21015420Y-14507031D02*
X21015420Y-14468936D01*
X21015420Y-14468936D02*
X21024944Y-14421317D01*
X21024944Y-14421317D02*
X21034468Y-14392745D01*
X21034468Y-14392745D02*
X21043991Y-14373698D01*
X21043991Y-14373698D02*
X21063039Y-14345126D01*
X21063039Y-14345126D02*
X21072563Y-14335603D01*
X21234468Y-14364174D02*
X21196372Y-14364174D01*
X21196372Y-14364174D02*
X21177325Y-14373698D01*
X21177325Y-14373698D02*
X21167801Y-14383222D01*
X21167801Y-14383222D02*
X21148753Y-14411793D01*
X21148753Y-14411793D02*
X21139230Y-14449888D01*
X21139230Y-14449888D02*
X21139230Y-14526079D01*
X21139230Y-14526079D02*
X21148753Y-14545126D01*
X21148753Y-14545126D02*
X21158277Y-14554650D01*
X21158277Y-14554650D02*
X21177325Y-14564174D01*
X21177325Y-14564174D02*
X21215420Y-14564174D01*
X21215420Y-14564174D02*
X21234468Y-14554650D01*
X21234468Y-14554650D02*
X21243991Y-14545126D01*
X21243991Y-14545126D02*
X21253515Y-14526079D01*
X21253515Y-14526079D02*
X21253515Y-14478460D01*
X21253515Y-14478460D02*
X21243991Y-14459412D01*
X21243991Y-14459412D02*
X21234468Y-14449888D01*
X21234468Y-14449888D02*
X21215420Y-14440364D01*
X21215420Y-14440364D02*
X21177325Y-14440364D01*
X21177325Y-14440364D02*
X21158277Y-14449888D01*
X21158277Y-14449888D02*
X21148753Y-14459412D01*
X21148753Y-14459412D02*
X21139230Y-14478460D01*
X21491611Y-14564174D02*
X21491611Y-14364174D01*
X21577325Y-14564174D02*
X21577325Y-14459412D01*
X21577325Y-14459412D02*
X21567801Y-14440364D01*
X21567801Y-14440364D02*
X21548753Y-14430841D01*
X21548753Y-14430841D02*
X21520182Y-14430841D01*
X21520182Y-14430841D02*
X21501134Y-14440364D01*
X21501134Y-14440364D02*
X21491611Y-14449888D01*
X21701134Y-14564174D02*
X21682087Y-14554650D01*
X21682087Y-14554650D02*
X21672563Y-14545126D01*
X21672563Y-14545126D02*
X21663039Y-14526079D01*
X21663039Y-14526079D02*
X21663039Y-14468936D01*
X21663039Y-14468936D02*
X21672563Y-14449888D01*
X21672563Y-14449888D02*
X21682087Y-14440364D01*
X21682087Y-14440364D02*
X21701134Y-14430841D01*
X21701134Y-14430841D02*
X21729706Y-14430841D01*
X21729706Y-14430841D02*
X21748753Y-14440364D01*
X21748753Y-14440364D02*
X21758277Y-14449888D01*
X21758277Y-14449888D02*
X21767801Y-14468936D01*
X21767801Y-14468936D02*
X21767801Y-14526079D01*
X21767801Y-14526079D02*
X21758277Y-14545126D01*
X21758277Y-14545126D02*
X21748753Y-14554650D01*
X21748753Y-14554650D02*
X21729706Y-14564174D01*
X21729706Y-14564174D02*
X21701134Y-14564174D01*
X21882087Y-14564174D02*
X21863039Y-14554650D01*
X21863039Y-14554650D02*
X21853515Y-14535603D01*
X21853515Y-14535603D02*
X21853515Y-14364174D01*
X22034468Y-14554650D02*
X22015420Y-14564174D01*
X22015420Y-14564174D02*
X21977325Y-14564174D01*
X21977325Y-14564174D02*
X21958277Y-14554650D01*
X21958277Y-14554650D02*
X21948753Y-14535603D01*
X21948753Y-14535603D02*
X21948753Y-14459412D01*
X21948753Y-14459412D02*
X21958277Y-14440364D01*
X21958277Y-14440364D02*
X21977325Y-14430841D01*
X21977325Y-14430841D02*
X22015420Y-14430841D01*
X22015420Y-14430841D02*
X22034468Y-14440364D01*
X22034468Y-14440364D02*
X22043992Y-14459412D01*
X22043992Y-14459412D02*
X22043992Y-14478460D01*
X22043992Y-14478460D02*
X21948753Y-14497507D01*
X22120182Y-14554650D02*
X22139230Y-14564174D01*
X22139230Y-14564174D02*
X22177325Y-14564174D01*
X22177325Y-14564174D02*
X22196373Y-14554650D01*
X22196373Y-14554650D02*
X22205896Y-14535603D01*
X22205896Y-14535603D02*
X22205896Y-14526079D01*
X22205896Y-14526079D02*
X22196373Y-14507031D01*
X22196373Y-14507031D02*
X22177325Y-14497507D01*
X22177325Y-14497507D02*
X22148753Y-14497507D01*
X22148753Y-14497507D02*
X22129706Y-14487984D01*
X22129706Y-14487984D02*
X22120182Y-14468936D01*
X22120182Y-14468936D02*
X22120182Y-14459412D01*
X22120182Y-14459412D02*
X22129706Y-14440364D01*
X22129706Y-14440364D02*
X22148753Y-14430841D01*
X22148753Y-14430841D02*
X22177325Y-14430841D01*
X22177325Y-14430841D02*
X22196373Y-14440364D01*
X22272563Y-14640364D02*
X22282087Y-14630841D01*
X22282087Y-14630841D02*
X22301134Y-14602269D01*
X22301134Y-14602269D02*
X22310658Y-14583222D01*
X22310658Y-14583222D02*
X22320182Y-14554650D01*
X22320182Y-14554650D02*
X22329706Y-14507031D01*
X22329706Y-14507031D02*
X22329706Y-14468936D01*
X22329706Y-14468936D02*
X22320182Y-14421317D01*
X22320182Y-14421317D02*
X22310658Y-14392745D01*
X22310658Y-14392745D02*
X22301134Y-14373698D01*
X22301134Y-14373698D02*
X22282087Y-14345126D01*
X22282087Y-14345126D02*
X22272563Y-14335603D01*
M02*
