G04 #@! TF.GenerationSoftware,KiCad,Pcbnew,8.0.9-8.0.9-0~ubuntu22.04.1*
G04 #@! TF.CreationDate,2025-08-04T16:28:20+08:00*
G04 #@! TF.ProjectId,macropad,6d616372-6f70-4616-942e-6b696361645f,rev?*
G04 #@! TF.SameCoordinates,Original*
G04 #@! TF.FileFunction,Copper,L2,Bot*
G04 #@! TF.FilePolarity,Positive*
%FSLAX46Y46*%
G04 Gerber Fmt 4.6, Leading zero omitted, Abs format (unit mm)*
G04 Created by KiCad (PCBNEW 8.0.9-8.0.9-0~ubuntu22.04.1) date 2025-08-04 16:28:20*
%MOMM*%
%LPD*%
G01*
G04 APERTURE LIST*
G04 Aperture macros list*
%AMRoundRect*
0 Rectangle with rounded corners*
0 $1 Rounding radius*
0 $2 $3 $4 $5 $6 $7 $8 $9 X,Y pos of 4 corners*
0 Add a 4 corners polygon primitive as box body*
4,1,4,$2,$3,$4,$5,$6,$7,$8,$9,$2,$3,0*
0 Add four circle primitives for the rounded corners*
1,1,$1+$1,$2,$3*
1,1,$1+$1,$4,$5*
1,1,$1+$1,$6,$7*
1,1,$1+$1,$8,$9*
0 Add four rect primitives between the rounded corners*
20,1,$1+$1,$2,$3,$4,$5,0*
20,1,$1+$1,$4,$5,$6,$7,0*
20,1,$1+$1,$6,$7,$8,$9,0*
20,1,$1+$1,$8,$9,$2,$3,0*%
G04 Aperture macros list end*
G04 #@! TA.AperFunction,ComponentPad*
%ADD10C,2.200000*%
G04 #@! TD*
G04 #@! TA.AperFunction,ComponentPad*
%ADD11RoundRect,0.400000X-0.900000X-0.400000X0.900000X-0.400000X0.900000X0.400000X-0.900000X0.400000X0*%
G04 #@! TD*
G04 #@! TA.AperFunction,ComponentPad*
%ADD12RoundRect,0.400050X-0.899950X-0.400050X0.899950X-0.400050X0.899950X0.400050X-0.899950X0.400050X0*%
G04 #@! TD*
G04 #@! TA.AperFunction,ComponentPad*
%ADD13RoundRect,0.400000X-0.400000X-0.900000X0.400000X-0.900000X0.400000X0.900000X-0.400000X0.900000X0*%
G04 #@! TD*
G04 #@! TA.AperFunction,ComponentPad*
%ADD14RoundRect,0.393700X-0.393700X-0.906300X0.393700X-0.906300X0.393700X0.906300X-0.393700X0.906300X0*%
G04 #@! TD*
G04 #@! TA.AperFunction,Conductor*
%ADD15C,0.500000*%
G04 #@! TD*
G04 APERTURE END LIST*
D10*
X195080000Y-78915000D03*
X192540000Y-72565000D03*
X195080000Y-97965000D03*
X192540000Y-91615000D03*
X195080000Y-117015000D03*
X192540000Y-110665000D03*
D11*
X198220000Y-42945000D03*
X198220000Y-45485000D03*
X198220000Y-48025000D03*
X198220000Y-50565000D03*
X198220000Y-53105000D03*
D12*
X198220000Y-55645000D03*
X198220000Y-58185000D03*
X198220000Y-60725000D03*
X198220000Y-63265000D03*
D13*
X195080000Y-64075000D03*
D14*
X192540000Y-64075000D03*
X190000000Y-64075000D03*
X187460000Y-64075000D03*
X184920000Y-64075000D03*
D12*
X181780000Y-63265000D03*
X181780000Y-60725000D03*
X181780000Y-58185000D03*
X181780000Y-55645000D03*
X181780000Y-42945000D03*
X181780000Y-45485000D03*
X181780000Y-48025000D03*
X181780000Y-53105000D03*
X181780000Y-50565000D03*
D15*
X195080000Y-97965000D02*
X194470000Y-98575000D01*
X192540000Y-64335000D02*
X192540000Y-63475000D01*
X194470000Y-98575000D02*
X188600000Y-98575000D01*
X188600000Y-98575000D02*
X186500000Y-96475000D01*
X186500000Y-96475000D02*
X186500000Y-70375000D01*
X186500000Y-70375000D02*
X192540000Y-64335000D01*
X195080000Y-117015000D02*
X194520000Y-117575000D01*
X194520000Y-117575000D02*
X188200000Y-117575000D01*
X190000000Y-65275000D02*
X190000000Y-63475000D01*
X188200000Y-117575000D02*
X185800000Y-115175000D01*
X185800000Y-115175000D02*
X185800000Y-69475000D01*
X185800000Y-69475000D02*
X190000000Y-65275000D01*
X195025000Y-64870000D02*
X195080000Y-64925000D01*
M02*
