M48
; DRILL file {KiCad 8.0.9-8.0.9-0~ubuntu22.04.1} date 2025-08-04T16:28:34+0800
; FORMAT={-:-/ absolute / metric / decimal}
; #@! TF.CreationDate,2025-08-04T16:28:34+08:00
; #@! TF.GenerationSoftware,Kicad,Pcbnew,8.0.9-8.0.9-0~ubuntu22.04.1
; #@! TF.FileFunction,Plated,1,2,PTH
FMAT,2
METRIC
; #@! TA.AperFunction,Plated,PTH,ComponentDrill
T1C0.800
; #@! TA.AperFunction,Plated,PTH,ComponentDrill
T2C1.500
%
G90
G05
T1
X182.38Y-42.945
X182.38Y-45.485
X182.38Y-48.025
X182.38Y-50.565
X182.38Y-53.105
X182.38Y-55.645
X182.38Y-58.185
X182.38Y-60.725
X182.38Y-63.265
X184.92Y-63.475
X187.46Y-63.475
X190.0Y-63.475
X192.54Y-63.475
X195.08Y-63.475
X197.62Y-42.945
X197.62Y-45.485
X197.62Y-48.025
X197.62Y-50.565
X197.62Y-53.105
X197.62Y-55.645
X197.62Y-58.185
X197.62Y-60.725
X197.62Y-63.265
T2
X192.54Y-72.565
X192.54Y-91.615
X192.54Y-110.665
X195.08Y-78.915
X195.08Y-97.965
X195.08Y-117.015
M30
