<?xml version="1.0" standalone="no"?>
 <!DOCTYPE svg PUBLIC "-//W3C//DTD SVG 1.1//EN" 
 "http://www.w3.org/Graphics/SVG/1.1/DTD/svg11.dtd"> 
<svg
  xmlns:svg="http://www.w3.org/2000/svg"
  xmlns="http://www.w3.org/2000/svg"
  xmlns:xlink="http://www.w3.org/1999/xlink"
  version="1.1"
  width="297.0022mm" height="210.0072mm" viewBox="0.0000 0.0000 297.0022 210.0072">
<title>SVG Image created as macropad-B_Cu.svg date 2025/07/30 23:53:18 </title>
  <desc>Image generated by PCBNEW </desc>
<g style="fill:#000000; fill-opacity:1.0000;stroke:#000000; stroke-opacity:1.0000;
stroke-linecap:round; stroke-linejoin:round;"
 transform="translate(0 0) scale(1 1)">
</g>
<g style="fill:none; 
stroke:#000000; stroke-width:0.1500; stroke-opacity:1; 
stroke-linecap:round; stroke-linejoin:round;">
<path d="M177.0022 166.0072
L285.0022 166.0072
L285.0022 198.0072
L177.0022 198.0072
L177.0022 166.0072
" />
</g>
<g style="fill:none; 
stroke:#000000; stroke-width:0.1500; stroke-opacity:1; 
stroke-linecap:round; stroke-linejoin:round;">
<path d="M10.0000 10.0000
L287.0022 10.0000
L287.0022 200.0072
L10.0000 200.0072
L10.0000 10.0000
" />
</g>
<g style="fill:none; 
stroke:#000000; stroke-width:0.1500; stroke-opacity:1; 
stroke-linecap:round; stroke-linejoin:round;">
<path d="M12.0000 12.0000
L285.0022 12.0000
L285.0022 198.0072
L12.0000 198.0072
L12.0000 12.0000
" />
</g>
<g style="fill:none; 
stroke:#000000; stroke-width:0.1500; stroke-opacity:1; 
stroke-linecap:round; stroke-linejoin:round;">
<path d="M60.0000 12.0000
L60.0000 10.0000
" />
</g>
<g style="fill:none; 
stroke:#000000; stroke-width:0.1500; stroke-opacity:1; 
stroke-linecap:round; stroke-linejoin:round;">
<path d="M110.0000 12.0000
L110.0000 10.0000
" />
</g>
<g style="fill:none; 
stroke:#000000; stroke-width:0.1500; stroke-opacity:1; 
stroke-linecap:round; stroke-linejoin:round;">
<path d="M160.0000 12.0000
L160.0000 10.0000
" />
</g>
<g style="fill:none; 
stroke:#000000; stroke-width:0.1500; stroke-opacity:1; 
stroke-linecap:round; stroke-linejoin:round;">
<path d="M210.0000 12.0000
L210.0000 10.0000
" />
</g>
<g style="fill:none; 
stroke:#000000; stroke-width:0.1500; stroke-opacity:1; 
stroke-linecap:round; stroke-linejoin:round;">
<path d="M260.0000 12.0000
L260.0000 10.0000
" />
</g>
<g style="fill:none; 
stroke:#000000; stroke-width:0.1500; stroke-opacity:1; 
stroke-linecap:round; stroke-linejoin:round;">
<text x="35.0000" y="11.6500"
textLength="1.4281" font-size="1.7333" lengthAdjust="spacingAndGlyphs"
text-anchor="start" opacity="0" stroke-opacity="0">1</text>
<g class="stroked-text"><desc>1</desc>
<path d="M36.0892 11.5936
L35.3463 11.5936
" />
<path d="M35.7177 11.5936
L35.7177 10.2936
" />
<path d="M35.7177 10.2936
L35.5939 10.4793
" />
<path d="M35.5939 10.4793
L35.4701 10.6031
" />
<path d="M35.4701 10.6031
L35.3463 10.6650
" />
</g></g>
<g style="fill:none; 
stroke:#000000; stroke-width:0.1500; stroke-opacity:1; 
stroke-linecap:round; stroke-linejoin:round;">
<text x="85.0000" y="11.6500"
textLength="1.4281" font-size="1.7333" lengthAdjust="spacingAndGlyphs"
text-anchor="start" opacity="0" stroke-opacity="0">2</text>
<g class="stroked-text"><desc>2</desc>
<path d="M85.3463 10.4174
L85.4082 10.3555
" />
<path d="M85.4082 10.3555
L85.5320 10.2936
" />
<path d="M85.5320 10.2936
L85.8415 10.2936
" />
<path d="M85.8415 10.2936
L85.9654 10.3555
" />
<path d="M85.9654 10.3555
L86.0273 10.4174
" />
<path d="M86.0273 10.4174
L86.0892 10.5412
" />
<path d="M86.0892 10.5412
L86.0892 10.6650
" />
<path d="M86.0892 10.6650
L86.0273 10.8507
" />
<path d="M86.0273 10.8507
L85.2844 11.5936
" />
<path d="M85.2844 11.5936
L86.0892 11.5936
" />
</g></g>
<g style="fill:none; 
stroke:#000000; stroke-width:0.1500; stroke-opacity:1; 
stroke-linecap:round; stroke-linejoin:round;">
<text x="135.0000" y="11.6500"
textLength="1.4281" font-size="1.7333" lengthAdjust="spacingAndGlyphs"
text-anchor="start" opacity="0" stroke-opacity="0">3</text>
<g class="stroked-text"><desc>3</desc>
<path d="M135.2844 10.2936
L136.0892 10.2936
" />
<path d="M136.0892 10.2936
L135.6558 10.7888
" />
<path d="M135.6558 10.7888
L135.8415 10.7888
" />
<path d="M135.8415 10.7888
L135.9654 10.8507
" />
<path d="M135.9654 10.8507
L136.0273 10.9127
" />
<path d="M136.0273 10.9127
L136.0892 11.0365
" />
<path d="M136.0892 11.0365
L136.0892 11.3460
" />
<path d="M136.0892 11.3460
L136.0273 11.4698
" />
<path d="M136.0273 11.4698
L135.9654 11.5317
" />
<path d="M135.9654 11.5317
L135.8415 11.5936
" />
<path d="M135.8415 11.5936
L135.4701 11.5936
" />
<path d="M135.4701 11.5936
L135.3463 11.5317
" />
<path d="M135.3463 11.5317
L135.2844 11.4698
" />
</g></g>
<g style="fill:none; 
stroke:#000000; stroke-width:0.1500; stroke-opacity:1; 
stroke-linecap:round; stroke-linejoin:round;">
<text x="185.0000" y="11.6500"
textLength="1.4281" font-size="1.7333" lengthAdjust="spacingAndGlyphs"
text-anchor="start" opacity="0" stroke-opacity="0">4</text>
<g class="stroked-text"><desc>4</desc>
<path d="M185.9654 10.7269
L185.9654 11.5936
" />
<path d="M185.6558 10.2317
L185.3463 11.1603
" />
<path d="M185.3463 11.1603
L186.1511 11.1603
" />
</g></g>
<g style="fill:none; 
stroke:#000000; stroke-width:0.1500; stroke-opacity:1; 
stroke-linecap:round; stroke-linejoin:round;">
<text x="235.0000" y="11.6500"
textLength="1.4281" font-size="1.7333" lengthAdjust="spacingAndGlyphs"
text-anchor="start" opacity="0" stroke-opacity="0">5</text>
<g class="stroked-text"><desc>5</desc>
<path d="M236.0273 10.2936
L235.4082 10.2936
" />
<path d="M235.4082 10.2936
L235.3463 10.9127
" />
<path d="M235.3463 10.9127
L235.4082 10.8507
" />
<path d="M235.4082 10.8507
L235.5320 10.7888
" />
<path d="M235.5320 10.7888
L235.8415 10.7888
" />
<path d="M235.8415 10.7888
L235.9654 10.8507
" />
<path d="M235.9654 10.8507
L236.0273 10.9127
" />
<path d="M236.0273 10.9127
L236.0892 11.0365
" />
<path d="M236.0892 11.0365
L236.0892 11.3460
" />
<path d="M236.0892 11.3460
L236.0273 11.4698
" />
<path d="M236.0273 11.4698
L235.9654 11.5317
" />
<path d="M235.9654 11.5317
L235.8415 11.5936
" />
<path d="M235.8415 11.5936
L235.5320 11.5936
" />
<path d="M235.5320 11.5936
L235.4082 11.5317
" />
<path d="M235.4082 11.5317
L235.3463 11.4698
" />
</g></g>
<g style="fill:none; 
stroke:#000000; stroke-width:0.1500; stroke-opacity:1; 
stroke-linecap:round; stroke-linejoin:round;">
<text x="285.0000" y="11.6500"
textLength="1.4281" font-size="1.7333" lengthAdjust="spacingAndGlyphs"
text-anchor="start" opacity="0" stroke-opacity="0">6</text>
<g class="stroked-text"><desc>6</desc>
<path d="M285.9654 10.2936
L285.7177 10.2936
" />
<path d="M285.7177 10.2936
L285.5939 10.3555
" />
<path d="M285.5939 10.3555
L285.5320 10.4174
" />
<path d="M285.5320 10.4174
L285.4082 10.6031
" />
<path d="M285.4082 10.6031
L285.3463 10.8507
" />
<path d="M285.3463 10.8507
L285.3463 11.3460
" />
<path d="M285.3463 11.3460
L285.4082 11.4698
" />
<path d="M285.4082 11.4698
L285.4701 11.5317
" />
<path d="M285.4701 11.5317
L285.5939 11.5936
" />
<path d="M285.5939 11.5936
L285.8415 11.5936
" />
<path d="M285.8415 11.5936
L285.9654 11.5317
" />
<path d="M285.9654 11.5317
L286.0273 11.4698
" />
<path d="M286.0273 11.4698
L286.0892 11.3460
" />
<path d="M286.0892 11.3460
L286.0892 11.0365
" />
<path d="M286.0892 11.0365
L286.0273 10.9127
" />
<path d="M286.0273 10.9127
L285.9654 10.8507
" />
<path d="M285.9654 10.8507
L285.8415 10.7888
" />
<path d="M285.8415 10.7888
L285.5939 10.7888
" />
<path d="M285.5939 10.7888
L285.4701 10.8507
" />
<path d="M285.4701 10.8507
L285.4082 10.9127
" />
<path d="M285.4082 10.9127
L285.3463 11.0365
" />
</g></g>
<g style="fill:none; 
stroke:#000000; stroke-width:0.1500; stroke-opacity:1; 
stroke-linecap:round; stroke-linejoin:round;">
<path d="M60.0000 198.0072
L60.0000 200.0072
" />
</g>
<g style="fill:none; 
stroke:#000000; stroke-width:0.1500; stroke-opacity:1; 
stroke-linecap:round; stroke-linejoin:round;">
<path d="M110.0000 198.0072
L110.0000 200.0072
" />
</g>
<g style="fill:none; 
stroke:#000000; stroke-width:0.1500; stroke-opacity:1; 
stroke-linecap:round; stroke-linejoin:round;">
<path d="M160.0000 198.0072
L160.0000 200.0072
" />
</g>
<g style="fill:none; 
stroke:#000000; stroke-width:0.1500; stroke-opacity:1; 
stroke-linecap:round; stroke-linejoin:round;">
<path d="M210.0000 198.0072
L210.0000 200.0072
" />
</g>
<g style="fill:none; 
stroke:#000000; stroke-width:0.1500; stroke-opacity:1; 
stroke-linecap:round; stroke-linejoin:round;">
<path d="M260.0000 198.0072
L260.0000 200.0072
" />
</g>
<g style="fill:none; 
stroke:#000000; stroke-width:0.1500; stroke-opacity:1; 
stroke-linecap:round; stroke-linejoin:round;">
<text x="35.0000" y="199.6572"
textLength="1.4281" font-size="1.7333" lengthAdjust="spacingAndGlyphs"
text-anchor="start" opacity="0" stroke-opacity="0">1</text>
<g class="stroked-text"><desc>1</desc>
<path d="M36.0892 199.6008
L35.3463 199.6008
" />
<path d="M35.7177 199.6008
L35.7177 198.3008
" />
<path d="M35.7177 198.3008
L35.5939 198.4865
" />
<path d="M35.5939 198.4865
L35.4701 198.6103
" />
<path d="M35.4701 198.6103
L35.3463 198.6722
" />
</g></g>
<g style="fill:none; 
stroke:#000000; stroke-width:0.1500; stroke-opacity:1; 
stroke-linecap:round; stroke-linejoin:round;">
<text x="85.0000" y="199.6572"
textLength="1.4281" font-size="1.7333" lengthAdjust="spacingAndGlyphs"
text-anchor="start" opacity="0" stroke-opacity="0">2</text>
<g class="stroked-text"><desc>2</desc>
<path d="M85.3463 198.4246
L85.4082 198.3627
" />
<path d="M85.4082 198.3627
L85.5320 198.3008
" />
<path d="M85.5320 198.3008
L85.8415 198.3008
" />
<path d="M85.8415 198.3008
L85.9654 198.3627
" />
<path d="M85.9654 198.3627
L86.0273 198.4246
" />
<path d="M86.0273 198.4246
L86.0892 198.5484
" />
<path d="M86.0892 198.5484
L86.0892 198.6722
" />
<path d="M86.0892 198.6722
L86.0273 198.8579
" />
<path d="M86.0273 198.8579
L85.2844 199.6008
" />
<path d="M85.2844 199.6008
L86.0892 199.6008
" />
</g></g>
<g style="fill:none; 
stroke:#000000; stroke-width:0.1500; stroke-opacity:1; 
stroke-linecap:round; stroke-linejoin:round;">
<text x="135.0000" y="199.6572"
textLength="1.4281" font-size="1.7333" lengthAdjust="spacingAndGlyphs"
text-anchor="start" opacity="0" stroke-opacity="0">3</text>
<g class="stroked-text"><desc>3</desc>
<path d="M135.2844 198.3008
L136.0892 198.3008
" />
<path d="M136.0892 198.3008
L135.6558 198.7960
" />
<path d="M135.6558 198.7960
L135.8415 198.7960
" />
<path d="M135.8415 198.7960
L135.9654 198.8579
" />
<path d="M135.9654 198.8579
L136.0273 198.9199
" />
<path d="M136.0273 198.9199
L136.0892 199.0437
" />
<path d="M136.0892 199.0437
L136.0892 199.3532
" />
<path d="M136.0892 199.3532
L136.0273 199.4770
" />
<path d="M136.0273 199.4770
L135.9654 199.5389
" />
<path d="M135.9654 199.5389
L135.8415 199.6008
" />
<path d="M135.8415 199.6008
L135.4701 199.6008
" />
<path d="M135.4701 199.6008
L135.3463 199.5389
" />
<path d="M135.3463 199.5389
L135.2844 199.4770
" />
</g></g>
<g style="fill:none; 
stroke:#000000; stroke-width:0.1500; stroke-opacity:1; 
stroke-linecap:round; stroke-linejoin:round;">
<text x="185.0000" y="199.6572"
textLength="1.4281" font-size="1.7333" lengthAdjust="spacingAndGlyphs"
text-anchor="start" opacity="0" stroke-opacity="0">4</text>
<g class="stroked-text"><desc>4</desc>
<path d="M185.9654 198.7341
L185.9654 199.6008
" />
<path d="M185.6558 198.2389
L185.3463 199.1675
" />
<path d="M185.3463 199.1675
L186.1511 199.1675
" />
</g></g>
<g style="fill:none; 
stroke:#000000; stroke-width:0.1500; stroke-opacity:1; 
stroke-linecap:round; stroke-linejoin:round;">
<text x="235.0000" y="199.6572"
textLength="1.4281" font-size="1.7333" lengthAdjust="spacingAndGlyphs"
text-anchor="start" opacity="0" stroke-opacity="0">5</text>
<g class="stroked-text"><desc>5</desc>
<path d="M236.0273 198.3008
L235.4082 198.3008
" />
<path d="M235.4082 198.3008
L235.3463 198.9199
" />
<path d="M235.3463 198.9199
L235.4082 198.8579
" />
<path d="M235.4082 198.8579
L235.5320 198.7960
" />
<path d="M235.5320 198.7960
L235.8415 198.7960
" />
<path d="M235.8415 198.7960
L235.9654 198.8579
" />
<path d="M235.9654 198.8579
L236.0273 198.9199
" />
<path d="M236.0273 198.9199
L236.0892 199.0437
" />
<path d="M236.0892 199.0437
L236.0892 199.3532
" />
<path d="M236.0892 199.3532
L236.0273 199.4770
" />
<path d="M236.0273 199.4770
L235.9654 199.5389
" />
<path d="M235.9654 199.5389
L235.8415 199.6008
" />
<path d="M235.8415 199.6008
L235.5320 199.6008
" />
<path d="M235.5320 199.6008
L235.4082 199.5389
" />
<path d="M235.4082 199.5389
L235.3463 199.4770
" />
</g></g>
<g style="fill:none; 
stroke:#000000; stroke-width:0.1500; stroke-opacity:1; 
stroke-linecap:round; stroke-linejoin:round;">
<text x="285.0000" y="199.6572"
textLength="1.4281" font-size="1.7333" lengthAdjust="spacingAndGlyphs"
text-anchor="start" opacity="0" stroke-opacity="0">6</text>
<g class="stroked-text"><desc>6</desc>
<path d="M285.9654 198.3008
L285.7177 198.3008
" />
<path d="M285.7177 198.3008
L285.5939 198.3627
" />
<path d="M285.5939 198.3627
L285.5320 198.4246
" />
<path d="M285.5320 198.4246
L285.4082 198.6103
" />
<path d="M285.4082 198.6103
L285.3463 198.8579
" />
<path d="M285.3463 198.8579
L285.3463 199.3532
" />
<path d="M285.3463 199.3532
L285.4082 199.4770
" />
<path d="M285.4082 199.4770
L285.4701 199.5389
" />
<path d="M285.4701 199.5389
L285.5939 199.6008
" />
<path d="M285.5939 199.6008
L285.8415 199.6008
" />
<path d="M285.8415 199.6008
L285.9654 199.5389
" />
<path d="M285.9654 199.5389
L286.0273 199.4770
" />
<path d="M286.0273 199.4770
L286.0892 199.3532
" />
<path d="M286.0892 199.3532
L286.0892 199.0437
" />
<path d="M286.0892 199.0437
L286.0273 198.9199
" />
<path d="M286.0273 198.9199
L285.9654 198.8579
" />
<path d="M285.9654 198.8579
L285.8415 198.7960
" />
<path d="M285.8415 198.7960
L285.5939 198.7960
" />
<path d="M285.5939 198.7960
L285.4701 198.8579
" />
<path d="M285.4701 198.8579
L285.4082 198.9199
" />
<path d="M285.4082 198.9199
L285.3463 199.0437
" />
</g></g>
<g style="fill:none; 
stroke:#000000; stroke-width:0.1500; stroke-opacity:1; 
stroke-linecap:round; stroke-linejoin:round;">
<path d="M10.0000 60.0000
L12.0000 60.0000
" />
</g>
<g style="fill:none; 
stroke:#000000; stroke-width:0.1500; stroke-opacity:1; 
stroke-linecap:round; stroke-linejoin:round;">
<path d="M10.0000 110.0000
L12.0000 110.0000
" />
</g>
<g style="fill:none; 
stroke:#000000; stroke-width:0.1500; stroke-opacity:1; 
stroke-linecap:round; stroke-linejoin:round;">
<path d="M10.0000 160.0000
L12.0000 160.0000
" />
</g>
<g style="fill:none; 
stroke:#000000; stroke-width:0.1500; stroke-opacity:1; 
stroke-linecap:round; stroke-linejoin:round;">
<text x="11.0000" y="35.6500"
textLength="1.3043" font-size="1.7333" lengthAdjust="spacingAndGlyphs"
text-anchor="middle" opacity="0" stroke-opacity="0">A</text>
<g class="stroked-text"><desc>A</desc>
<path d="M10.6905 35.2222
L11.3095 35.2222
" />
<path d="M10.5667 35.5936
L11.0000 34.2936
" />
<path d="M11.0000 34.2936
L11.4333 35.5936
" />
</g></g>
<g style="fill:none; 
stroke:#000000; stroke-width:0.1500; stroke-opacity:1; 
stroke-linecap:round; stroke-linejoin:round;">
<text x="11.0000" y="85.6500"
textLength="1.4900" font-size="1.7333" lengthAdjust="spacingAndGlyphs"
text-anchor="middle" opacity="0" stroke-opacity="0">B</text>
<g class="stroked-text"><desc>B</desc>
<path d="M11.0929 84.9127
L11.2786 84.9746
" />
<path d="M11.2786 84.9746
L11.3405 85.0365
" />
<path d="M11.3405 85.0365
L11.4024 85.1603
" />
<path d="M11.4024 85.1603
L11.4024 85.3460
" />
<path d="M11.4024 85.3460
L11.3405 85.4698
" />
<path d="M11.3405 85.4698
L11.2786 85.5317
" />
<path d="M11.2786 85.5317
L11.1548 85.5936
" />
<path d="M11.1548 85.5936
L10.6595 85.5936
" />
<path d="M10.6595 85.5936
L10.6595 84.2936
" />
<path d="M10.6595 84.2936
L11.0929 84.2936
" />
<path d="M11.0929 84.2936
L11.2167 84.3555
" />
<path d="M11.2167 84.3555
L11.2786 84.4174
" />
<path d="M11.2786 84.4174
L11.3405 84.5412
" />
<path d="M11.3405 84.5412
L11.3405 84.6650
" />
<path d="M11.3405 84.6650
L11.2786 84.7888
" />
<path d="M11.2786 84.7888
L11.2167 84.8507
" />
<path d="M11.2167 84.8507
L11.0929 84.9127
" />
<path d="M11.0929 84.9127
L10.6595 84.9127
" />
</g></g>
<g style="fill:none; 
stroke:#000000; stroke-width:0.1500; stroke-opacity:1; 
stroke-linecap:round; stroke-linejoin:round;">
<text x="11.0000" y="135.6500"
textLength="1.4900" font-size="1.7333" lengthAdjust="spacingAndGlyphs"
text-anchor="middle" opacity="0" stroke-opacity="0">C</text>
<g class="stroked-text"><desc>C</desc>
<path d="M11.4024 135.4698
L11.3405 135.5317
" />
<path d="M11.3405 135.5317
L11.1548 135.5936
" />
<path d="M11.1548 135.5936
L11.0310 135.5936
" />
<path d="M11.0310 135.5936
L10.8452 135.5317
" />
<path d="M10.8452 135.5317
L10.7214 135.4079
" />
<path d="M10.7214 135.4079
L10.6595 135.2841
" />
<path d="M10.6595 135.2841
L10.5976 135.0365
" />
<path d="M10.5976 135.0365
L10.5976 134.8507
" />
<path d="M10.5976 134.8507
L10.6595 134.6031
" />
<path d="M10.6595 134.6031
L10.7214 134.4793
" />
<path d="M10.7214 134.4793
L10.8452 134.3555
" />
<path d="M10.8452 134.3555
L11.0310 134.2936
" />
<path d="M11.0310 134.2936
L11.1548 134.2936
" />
<path d="M11.1548 134.2936
L11.3405 134.3555
" />
<path d="M11.3405 134.3555
L11.4024 134.4174
" />
</g></g>
<g style="fill:none; 
stroke:#000000; stroke-width:0.1500; stroke-opacity:1; 
stroke-linecap:round; stroke-linejoin:round;">
<text x="11.0000" y="185.6500"
textLength="1.4900" font-size="1.7333" lengthAdjust="spacingAndGlyphs"
text-anchor="middle" opacity="0" stroke-opacity="0">D</text>
<g class="stroked-text"><desc>D</desc>
<path d="M10.6595 185.5936
L10.6595 184.2936
" />
<path d="M10.6595 184.2936
L10.9690 184.2936
" />
<path d="M10.9690 184.2936
L11.1548 184.3555
" />
<path d="M11.1548 184.3555
L11.2786 184.4793
" />
<path d="M11.2786 184.4793
L11.3405 184.6031
" />
<path d="M11.3405 184.6031
L11.4024 184.8507
" />
<path d="M11.4024 184.8507
L11.4024 185.0365
" />
<path d="M11.4024 185.0365
L11.3405 185.2841
" />
<path d="M11.3405 185.2841
L11.2786 185.4079
" />
<path d="M11.2786 185.4079
L11.1548 185.5317
" />
<path d="M11.1548 185.5317
L10.9690 185.5936
" />
<path d="M10.9690 185.5936
L10.6595 185.5936
" />
</g></g>
<g style="fill:none; 
stroke:#000000; stroke-width:0.1500; stroke-opacity:1; 
stroke-linecap:round; stroke-linejoin:round;">
<path d="M287.0022 60.0000
L285.0022 60.0000
" />
</g>
<g style="fill:none; 
stroke:#000000; stroke-width:0.1500; stroke-opacity:1; 
stroke-linecap:round; stroke-linejoin:round;">
<path d="M287.0022 110.0000
L285.0022 110.0000
" />
</g>
<g style="fill:none; 
stroke:#000000; stroke-width:0.1500; stroke-opacity:1; 
stroke-linecap:round; stroke-linejoin:round;">
<path d="M287.0022 160.0000
L285.0022 160.0000
" />
</g>
<g style="fill:none; 
stroke:#000000; stroke-width:0.1500; stroke-opacity:1; 
stroke-linecap:round; stroke-linejoin:round;">
<text x="286.0022" y="35.6500"
textLength="1.3043" font-size="1.7333" lengthAdjust="spacingAndGlyphs"
text-anchor="middle" opacity="0" stroke-opacity="0">A</text>
<g class="stroked-text"><desc>A</desc>
<path d="M285.6927 35.2222
L286.3117 35.2222
" />
<path d="M285.5689 35.5936
L286.0022 34.2936
" />
<path d="M286.0022 34.2936
L286.4355 35.5936
" />
</g></g>
<g style="fill:none; 
stroke:#000000; stroke-width:0.1500; stroke-opacity:1; 
stroke-linecap:round; stroke-linejoin:round;">
<text x="286.0022" y="85.6500"
textLength="1.4900" font-size="1.7333" lengthAdjust="spacingAndGlyphs"
text-anchor="middle" opacity="0" stroke-opacity="0">B</text>
<g class="stroked-text"><desc>B</desc>
<path d="M286.0951 84.9127
L286.2808 84.9746
" />
<path d="M286.2808 84.9746
L286.3427 85.0365
" />
<path d="M286.3427 85.0365
L286.4046 85.1603
" />
<path d="M286.4046 85.1603
L286.4046 85.3460
" />
<path d="M286.4046 85.3460
L286.3427 85.4698
" />
<path d="M286.3427 85.4698
L286.2808 85.5317
" />
<path d="M286.2808 85.5317
L286.1570 85.5936
" />
<path d="M286.1570 85.5936
L285.6617 85.5936
" />
<path d="M285.6617 85.5936
L285.6617 84.2936
" />
<path d="M285.6617 84.2936
L286.0951 84.2936
" />
<path d="M286.0951 84.2936
L286.2189 84.3555
" />
<path d="M286.2189 84.3555
L286.2808 84.4174
" />
<path d="M286.2808 84.4174
L286.3427 84.5412
" />
<path d="M286.3427 84.5412
L286.3427 84.6650
" />
<path d="M286.3427 84.6650
L286.2808 84.7888
" />
<path d="M286.2808 84.7888
L286.2189 84.8507
" />
<path d="M286.2189 84.8507
L286.0951 84.9127
" />
<path d="M286.0951 84.9127
L285.6617 84.9127
" />
</g></g>
<g style="fill:none; 
stroke:#000000; stroke-width:0.1500; stroke-opacity:1; 
stroke-linecap:round; stroke-linejoin:round;">
<text x="286.0022" y="135.6500"
textLength="1.4900" font-size="1.7333" lengthAdjust="spacingAndGlyphs"
text-anchor="middle" opacity="0" stroke-opacity="0">C</text>
<g class="stroked-text"><desc>C</desc>
<path d="M286.4046 135.4698
L286.3427 135.5317
" />
<path d="M286.3427 135.5317
L286.1570 135.5936
" />
<path d="M286.1570 135.5936
L286.0332 135.5936
" />
<path d="M286.0332 135.5936
L285.8474 135.5317
" />
<path d="M285.8474 135.5317
L285.7236 135.4079
" />
<path d="M285.7236 135.4079
L285.6617 135.2841
" />
<path d="M285.6617 135.2841
L285.5998 135.0365
" />
<path d="M285.5998 135.0365
L285.5998 134.8507
" />
<path d="M285.5998 134.8507
L285.6617 134.6031
" />
<path d="M285.6617 134.6031
L285.7236 134.4793
" />
<path d="M285.7236 134.4793
L285.8474 134.3555
" />
<path d="M285.8474 134.3555
L286.0332 134.2936
" />
<path d="M286.0332 134.2936
L286.1570 134.2936
" />
<path d="M286.1570 134.2936
L286.3427 134.3555
" />
<path d="M286.3427 134.3555
L286.4046 134.4174
" />
</g></g>
<g style="fill:none; 
stroke:#000000; stroke-width:0.1500; stroke-opacity:1; 
stroke-linecap:round; stroke-linejoin:round;">
<text x="286.0022" y="185.6500"
textLength="1.4900" font-size="1.7333" lengthAdjust="spacingAndGlyphs"
text-anchor="middle" opacity="0" stroke-opacity="0">D</text>
<g class="stroked-text"><desc>D</desc>
<path d="M285.6617 185.5936
L285.6617 184.2936
" />
<path d="M285.6617 184.2936
L285.9712 184.2936
" />
<path d="M285.9712 184.2936
L286.1570 184.3555
" />
<path d="M286.1570 184.3555
L286.2808 184.4793
" />
<path d="M286.2808 184.4793
L286.3427 184.6031
" />
<path d="M286.3427 184.6031
L286.4046 184.8507
" />
<path d="M286.4046 184.8507
L286.4046 185.0365
" />
<path d="M286.4046 185.0365
L286.3427 185.2841
" />
<path d="M286.3427 185.2841
L286.2808 185.4079
" />
<path d="M286.2808 185.4079
L286.1570 185.5317
" />
<path d="M286.1570 185.5317
L285.9712 185.5936
" />
<path d="M285.9712 185.5936
L285.6617 185.5936
" />
</g></g>
<g style="fill:none; 
stroke:#000000; stroke-width:0.1500; stroke-opacity:1; 
stroke-linecap:round; stroke-linejoin:round;">
<text x="200.0022" y="193.8572"
textLength="7.0071" font-size="2.0000" lengthAdjust="spacingAndGlyphs"
text-anchor="start" opacity="0" stroke-opacity="0">Date: </text>
<g class="stroked-text"><desc>Date: </desc>
<path d="M200.4580 193.7933
L200.4580 192.2933
" />
<path d="M200.4580 192.2933
L200.8152 192.2933
" />
<path d="M200.8152 192.2933
L201.0295 192.3648
" />
<path d="M201.0295 192.3648
L201.1723 192.5076
" />
<path d="M201.1723 192.5076
L201.2437 192.6505
" />
<path d="M201.2437 192.6505
L201.3152 192.9362
" />
<path d="M201.3152 192.9362
L201.3152 193.1505
" />
<path d="M201.3152 193.1505
L201.2437 193.4362
" />
<path d="M201.2437 193.4362
L201.1723 193.5790
" />
<path d="M201.1723 193.5790
L201.0295 193.7219
" />
<path d="M201.0295 193.7219
L200.8152 193.7933
" />
<path d="M200.8152 193.7933
L200.4580 193.7933
" />
<path d="M202.6009 193.7933
L202.6009 193.0076
" />
<path d="M202.6009 193.0076
L202.5295 192.8648
" />
<path d="M202.5295 192.8648
L202.3866 192.7933
" />
<path d="M202.3866 192.7933
L202.1009 192.7933
" />
<path d="M202.1009 192.7933
L201.9580 192.8648
" />
<path d="M202.6009 193.7219
L202.4580 193.7933
" />
<path d="M202.4580 193.7933
L202.1009 193.7933
" />
<path d="M202.1009 193.7933
L201.9580 193.7219
" />
<path d="M201.9580 193.7219
L201.8866 193.5790
" />
<path d="M201.8866 193.5790
L201.8866 193.4362
" />
<path d="M201.8866 193.4362
L201.9580 193.2933
" />
<path d="M201.9580 193.2933
L202.1009 193.2219
" />
<path d="M202.1009 193.2219
L202.4580 193.2219
" />
<path d="M202.4580 193.2219
L202.6009 193.1505
" />
<path d="M203.1009 192.7933
L203.6723 192.7933
" />
<path d="M203.3152 192.2933
L203.3152 193.5790
" />
<path d="M203.3152 193.5790
L203.3866 193.7219
" />
<path d="M203.3866 193.7219
L203.5295 193.7933
" />
<path d="M203.5295 193.7933
L203.6723 193.7933
" />
<path d="M204.7437 193.7219
L204.6009 193.7933
" />
<path d="M204.6009 193.7933
L204.3152 193.7933
" />
<path d="M204.3152 193.7933
L204.1723 193.7219
" />
<path d="M204.1723 193.7219
L204.1009 193.5790
" />
<path d="M204.1009 193.5790
L204.1009 193.0076
" />
<path d="M204.1009 193.0076
L204.1723 192.8648
" />
<path d="M204.1723 192.8648
L204.3152 192.7933
" />
<path d="M204.3152 192.7933
L204.6009 192.7933
" />
<path d="M204.6009 192.7933
L204.7437 192.8648
" />
<path d="M204.7437 192.8648
L204.8152 193.0076
" />
<path d="M204.8152 193.0076
L204.8152 193.1505
" />
<path d="M204.8152 193.1505
L204.1009 193.2933
" />
<path d="M205.4580 193.6505
L205.5295 193.7219
" />
<path d="M205.5295 193.7219
L205.4580 193.7933
" />
<path d="M205.4580 193.7933
L205.3866 193.7219
" />
<path d="M205.3866 193.7219
L205.4580 193.6505
" />
<path d="M205.4580 193.6505
L205.4580 193.7933
" />
<path d="M205.4580 192.8648
L205.5295 192.9362
" />
<path d="M205.5295 192.9362
L205.4580 193.0076
" />
<path d="M205.4580 193.0076
L205.3866 192.9362
" />
<path d="M205.3866 192.9362
L205.4580 192.8648
" />
<path d="M205.4580 192.8648
L205.4580 193.0076
" />
</g></g>
<g style="fill:none; 
stroke:#000000; stroke-width:0.1500; stroke-opacity:1; 
stroke-linecap:round; stroke-linejoin:round;">
<path d="M177.0022 194.5072
L285.0022 194.5072
" />
</g>
<g style="fill:none; 
stroke:#000000; stroke-width:0.1500; stroke-opacity:1; 
stroke-linecap:round; stroke-linejoin:round;">
<text x="178.0022" y="196.6572"
textLength="20.8643" font-size="2.0000" lengthAdjust="spacingAndGlyphs"
text-anchor="start" opacity="0" stroke-opacity="0">KiCad E.D.A. 8.0.9</text>
<g class="stroked-text"><desc>KiCad E.D.A. 8.0.9</desc>
<path d="M178.4580 196.5933
L178.4580 195.0933
" />
<path d="M179.3152 196.5933
L178.6723 195.7362
" />
<path d="M179.3152 195.0933
L178.4580 195.9505
" />
<path d="M179.9580 196.5933
L179.9580 195.5933
" />
<path d="M179.9580 195.0933
L179.8866 195.1648
" />
<path d="M179.8866 195.1648
L179.9580 195.2362
" />
<path d="M179.9580 195.2362
L180.0295 195.1648
" />
<path d="M180.0295 195.1648
L179.9580 195.0933
" />
<path d="M179.9580 195.0933
L179.9580 195.2362
" />
<path d="M181.5295 196.4505
L181.4580 196.5219
" />
<path d="M181.4580 196.5219
L181.2437 196.5933
" />
<path d="M181.2437 196.5933
L181.1009 196.5933
" />
<path d="M181.1009 196.5933
L180.8866 196.5219
" />
<path d="M180.8866 196.5219
L180.7437 196.3790
" />
<path d="M180.7437 196.3790
L180.6723 196.2362
" />
<path d="M180.6723 196.2362
L180.6009 195.9505
" />
<path d="M180.6009 195.9505
L180.6009 195.7362
" />
<path d="M180.6009 195.7362
L180.6723 195.4505
" />
<path d="M180.6723 195.4505
L180.7437 195.3076
" />
<path d="M180.7437 195.3076
L180.8866 195.1648
" />
<path d="M180.8866 195.1648
L181.1009 195.0933
" />
<path d="M181.1009 195.0933
L181.2437 195.0933
" />
<path d="M181.2437 195.0933
L181.4580 195.1648
" />
<path d="M181.4580 195.1648
L181.5295 195.2362
" />
<path d="M182.8152 196.5933
L182.8152 195.8076
" />
<path d="M182.8152 195.8076
L182.7437 195.6648
" />
<path d="M182.7437 195.6648
L182.6009 195.5933
" />
<path d="M182.6009 195.5933
L182.3152 195.5933
" />
<path d="M182.3152 195.5933
L182.1723 195.6648
" />
<path d="M182.8152 196.5219
L182.6723 196.5933
" />
<path d="M182.6723 196.5933
L182.3152 196.5933
" />
<path d="M182.3152 196.5933
L182.1723 196.5219
" />
<path d="M182.1723 196.5219
L182.1009 196.3790
" />
<path d="M182.1009 196.3790
L182.1009 196.2362
" />
<path d="M182.1009 196.2362
L182.1723 196.0933
" />
<path d="M182.1723 196.0933
L182.3152 196.0219
" />
<path d="M182.3152 196.0219
L182.6723 196.0219
" />
<path d="M182.6723 196.0219
L182.8152 195.9505
" />
<path d="M184.1723 196.5933
L184.1723 195.0933
" />
<path d="M184.1723 196.5219
L184.0295 196.5933
" />
<path d="M184.0295 196.5933
L183.7437 196.5933
" />
<path d="M183.7437 196.5933
L183.6009 196.5219
" />
<path d="M183.6009 196.5219
L183.5295 196.4505
" />
<path d="M183.5295 196.4505
L183.4580 196.3076
" />
<path d="M183.4580 196.3076
L183.4580 195.8790
" />
<path d="M183.4580 195.8790
L183.5295 195.7362
" />
<path d="M183.5295 195.7362
L183.6009 195.6648
" />
<path d="M183.6009 195.6648
L183.7437 195.5933
" />
<path d="M183.7437 195.5933
L184.0295 195.5933
" />
<path d="M184.0295 195.5933
L184.1723 195.6648
" />
<path d="M186.0295 195.8076
L186.5295 195.8076
" />
<path d="M186.7437 196.5933
L186.0295 196.5933
" />
<path d="M186.0295 196.5933
L186.0295 195.0933
" />
<path d="M186.0295 195.0933
L186.7437 195.0933
" />
<path d="M187.3866 196.4505
L187.4580 196.5219
" />
<path d="M187.4580 196.5219
L187.3866 196.5933
" />
<path d="M187.3866 196.5933
L187.3152 196.5219
" />
<path d="M187.3152 196.5219
L187.3866 196.4505
" />
<path d="M187.3866 196.4505
L187.3866 196.5933
" />
<path d="M188.1009 196.5933
L188.1009 195.0933
" />
<path d="M188.1009 195.0933
L188.4580 195.0933
" />
<path d="M188.4580 195.0933
L188.6723 195.1648
" />
<path d="M188.6723 195.1648
L188.8152 195.3076
" />
<path d="M188.8152 195.3076
L188.8866 195.4505
" />
<path d="M188.8866 195.4505
L188.9580 195.7362
" />
<path d="M188.9580 195.7362
L188.9580 195.9505
" />
<path d="M188.9580 195.9505
L188.8866 196.2362
" />
<path d="M188.8866 196.2362
L188.8152 196.3790
" />
<path d="M188.8152 196.3790
L188.6723 196.5219
" />
<path d="M188.6723 196.5219
L188.4580 196.5933
" />
<path d="M188.4580 196.5933
L188.1009 196.5933
" />
<path d="M189.6009 196.4505
L189.6723 196.5219
" />
<path d="M189.6723 196.5219
L189.6009 196.5933
" />
<path d="M189.6009 196.5933
L189.5295 196.5219
" />
<path d="M189.5295 196.5219
L189.6009 196.4505
" />
<path d="M189.6009 196.4505
L189.6009 196.5933
" />
<path d="M190.2437 196.1648
L190.9580 196.1648
" />
<path d="M190.1009 196.5933
L190.6009 195.0933
" />
<path d="M190.6009 195.0933
L191.1009 196.5933
" />
<path d="M191.6009 196.4505
L191.6723 196.5219
" />
<path d="M191.6723 196.5219
L191.6009 196.5933
" />
<path d="M191.6009 196.5933
L191.5295 196.5219
" />
<path d="M191.5295 196.5219
L191.6009 196.4505
" />
<path d="M191.6009 196.4505
L191.6009 196.5933
" />
<path d="M193.6723 195.7362
L193.5295 195.6648
" />
<path d="M193.5295 195.6648
L193.4580 195.5933
" />
<path d="M193.4580 195.5933
L193.3866 195.4505
" />
<path d="M193.3866 195.4505
L193.3866 195.3790
" />
<path d="M193.3866 195.3790
L193.4580 195.2362
" />
<path d="M193.4580 195.2362
L193.5295 195.1648
" />
<path d="M193.5295 195.1648
L193.6723 195.0933
" />
<path d="M193.6723 195.0933
L193.9580 195.0933
" />
<path d="M193.9580 195.0933
L194.1009 195.1648
" />
<path d="M194.1009 195.1648
L194.1723 195.2362
" />
<path d="M194.1723 195.2362
L194.2437 195.3790
" />
<path d="M194.2437 195.3790
L194.2437 195.4505
" />
<path d="M194.2437 195.4505
L194.1723 195.5933
" />
<path d="M194.1723 195.5933
L194.1009 195.6648
" />
<path d="M194.1009 195.6648
L193.9580 195.7362
" />
<path d="M193.9580 195.7362
L193.6723 195.7362
" />
<path d="M193.6723 195.7362
L193.5295 195.8076
" />
<path d="M193.5295 195.8076
L193.4580 195.8790
" />
<path d="M193.4580 195.8790
L193.3866 196.0219
" />
<path d="M193.3866 196.0219
L193.3866 196.3076
" />
<path d="M193.3866 196.3076
L193.4580 196.4505
" />
<path d="M193.4580 196.4505
L193.5295 196.5219
" />
<path d="M193.5295 196.5219
L193.6723 196.5933
" />
<path d="M193.6723 196.5933
L193.9580 196.5933
" />
<path d="M193.9580 196.5933
L194.1009 196.5219
" />
<path d="M194.1009 196.5219
L194.1723 196.4505
" />
<path d="M194.1723 196.4505
L194.2437 196.3076
" />
<path d="M194.2437 196.3076
L194.2437 196.0219
" />
<path d="M194.2437 196.0219
L194.1723 195.8790
" />
<path d="M194.1723 195.8790
L194.1009 195.8076
" />
<path d="M194.1009 195.8076
L193.9580 195.7362
" />
<path d="M194.8866 196.4505
L194.9580 196.5219
" />
<path d="M194.9580 196.5219
L194.8866 196.5933
" />
<path d="M194.8866 196.5933
L194.8152 196.5219
" />
<path d="M194.8152 196.5219
L194.8866 196.4505
" />
<path d="M194.8866 196.4505
L194.8866 196.5933
" />
<path d="M195.8866 195.0933
L196.0295 195.0933
" />
<path d="M196.0295 195.0933
L196.1723 195.1648
" />
<path d="M196.1723 195.1648
L196.2437 195.2362
" />
<path d="M196.2437 195.2362
L196.3152 195.3790
" />
<path d="M196.3152 195.3790
L196.3866 195.6648
" />
<path d="M196.3866 195.6648
L196.3866 196.0219
" />
<path d="M196.3866 196.0219
L196.3152 196.3076
" />
<path d="M196.3152 196.3076
L196.2437 196.4505
" />
<path d="M196.2437 196.4505
L196.1723 196.5219
" />
<path d="M196.1723 196.5219
L196.0295 196.5933
" />
<path d="M196.0295 196.5933
L195.8866 196.5933
" />
<path d="M195.8866 196.5933
L195.7437 196.5219
" />
<path d="M195.7437 196.5219
L195.6723 196.4505
" />
<path d="M195.6723 196.4505
L195.6009 196.3076
" />
<path d="M195.6009 196.3076
L195.5295 196.0219
" />
<path d="M195.5295 196.0219
L195.5295 195.6648
" />
<path d="M195.5295 195.6648
L195.6009 195.3790
" />
<path d="M195.6009 195.3790
L195.6723 195.2362
" />
<path d="M195.6723 195.2362
L195.7437 195.1648
" />
<path d="M195.7437 195.1648
L195.8866 195.0933
" />
<path d="M197.0295 196.4505
L197.1009 196.5219
" />
<path d="M197.1009 196.5219
L197.0295 196.5933
" />
<path d="M197.0295 196.5933
L196.9580 196.5219
" />
<path d="M196.9580 196.5219
L197.0295 196.4505
" />
<path d="M197.0295 196.4505
L197.0295 196.5933
" />
<path d="M197.8152 196.5933
L198.1009 196.5933
" />
<path d="M198.1009 196.5933
L198.2437 196.5219
" />
<path d="M198.2437 196.5219
L198.3152 196.4505
" />
<path d="M198.3152 196.4505
L198.4580 196.2362
" />
<path d="M198.4580 196.2362
L198.5295 195.9505
" />
<path d="M198.5295 195.9505
L198.5295 195.3790
" />
<path d="M198.5295 195.3790
L198.4580 195.2362
" />
<path d="M198.4580 195.2362
L198.3866 195.1648
" />
<path d="M198.3866 195.1648
L198.2437 195.0933
" />
<path d="M198.2437 195.0933
L197.9580 195.0933
" />
<path d="M197.9580 195.0933
L197.8152 195.1648
" />
<path d="M197.8152 195.1648
L197.7437 195.2362
" />
<path d="M197.7437 195.2362
L197.6723 195.3790
" />
<path d="M197.6723 195.3790
L197.6723 195.7362
" />
<path d="M197.6723 195.7362
L197.7437 195.8790
" />
<path d="M197.7437 195.8790
L197.8152 195.9505
" />
<path d="M197.8152 195.9505
L197.9580 196.0219
" />
<path d="M197.9580 196.0219
L198.2437 196.0219
" />
<path d="M198.2437 196.0219
L198.3866 195.9505
" />
<path d="M198.3866 195.9505
L198.4580 195.8790
" />
<path d="M198.4580 195.8790
L198.5295 195.7362
" />
</g></g>
<g style="fill:none; 
stroke:#000000; stroke-width:0.1500; stroke-opacity:1; 
stroke-linecap:round; stroke-linejoin:round;">
<path d="M177.0022 191.5072
L285.0022 191.5072
" />
</g>
<g style="fill:none; 
stroke:#000000; stroke-width:0.3000; stroke-opacity:1; 
stroke-linecap:round; stroke-linejoin:round;">
<text x="263.0022" y="193.8572"
textLength="6.3857" font-size="2.0000" lengthAdjust="spacingAndGlyphs"
text-anchor="start" opacity="0" stroke-opacity="0">Rev: </text>
<g class="stroked-text"><desc>Rev: </desc>
<path d="M264.4139 193.7855
L263.9139 193.0712
" />
<path d="M263.5567 193.7855
L263.5567 192.2855
" />
<path d="M263.5567 192.2855
L264.1281 192.2855
" />
<path d="M264.1281 192.2855
L264.2710 192.3570
" />
<path d="M264.2710 192.3570
L264.3424 192.4284
" />
<path d="M264.3424 192.4284
L264.4139 192.5712
" />
<path d="M264.4139 192.5712
L264.4139 192.7855
" />
<path d="M264.4139 192.7855
L264.3424 192.9284
" />
<path d="M264.3424 192.9284
L264.2710 192.9998
" />
<path d="M264.2710 192.9998
L264.1281 193.0712
" />
<path d="M264.1281 193.0712
L263.5567 193.0712
" />
<path d="M265.6281 193.7141
L265.4853 193.7855
" />
<path d="M265.4853 193.7855
L265.1996 193.7855
" />
<path d="M265.1996 193.7855
L265.0567 193.7141
" />
<path d="M265.0567 193.7141
L264.9853 193.5712
" />
<path d="M264.9853 193.5712
L264.9853 192.9998
" />
<path d="M264.9853 192.9998
L265.0567 192.8570
" />
<path d="M265.0567 192.8570
L265.1996 192.7855
" />
<path d="M265.1996 192.7855
L265.4853 192.7855
" />
<path d="M265.4853 192.7855
L265.6281 192.8570
" />
<path d="M265.6281 192.8570
L265.6996 192.9998
" />
<path d="M265.6996 192.9998
L265.6996 193.1427
" />
<path d="M265.6996 193.1427
L264.9853 193.2855
" />
<path d="M266.1996 192.7855
L266.5567 193.7855
" />
<path d="M266.5567 193.7855
L266.9139 192.7855
" />
<path d="M267.4853 193.6427
L267.5567 193.7141
" />
<path d="M267.5567 193.7141
L267.4853 193.7855
" />
<path d="M267.4853 193.7855
L267.4139 193.7141
" />
<path d="M267.4139 193.7141
L267.4853 193.6427
" />
<path d="M267.4853 193.6427
L267.4853 193.7855
" />
<path d="M267.4853 192.8570
L267.5567 192.9284
" />
<path d="M267.5567 192.9284
L267.4853 192.9998
" />
<path d="M267.4853 192.9998
L267.4139 192.9284
" />
<path d="M267.4139 192.9284
L267.4853 192.8570
" />
<path d="M267.4853 192.8570
L267.4853 192.9998
" />
</g></g>
<g style="fill:none; 
stroke:#000000; stroke-width:0.1500; stroke-opacity:1; 
stroke-linecap:round; stroke-linejoin:round;">
<text x="178.0022" y="193.8572"
textLength="9.3643" font-size="2.0000" lengthAdjust="spacingAndGlyphs"
text-anchor="start" opacity="0" stroke-opacity="0">Size: A4</text>
<g class="stroked-text"><desc>Size: A4</desc>
<path d="M178.3866 193.7219
L178.6009 193.7933
" />
<path d="M178.6009 193.7933
L178.9580 193.7933
" />
<path d="M178.9580 193.7933
L179.1009 193.7219
" />
<path d="M179.1009 193.7219
L179.1723 193.6505
" />
<path d="M179.1723 193.6505
L179.2437 193.5076
" />
<path d="M179.2437 193.5076
L179.2437 193.3648
" />
<path d="M179.2437 193.3648
L179.1723 193.2219
" />
<path d="M179.1723 193.2219
L179.1009 193.1505
" />
<path d="M179.1009 193.1505
L178.9580 193.0790
" />
<path d="M178.9580 193.0790
L178.6723 193.0076
" />
<path d="M178.6723 193.0076
L178.5295 192.9362
" />
<path d="M178.5295 192.9362
L178.4580 192.8648
" />
<path d="M178.4580 192.8648
L178.3866 192.7219
" />
<path d="M178.3866 192.7219
L178.3866 192.5790
" />
<path d="M178.3866 192.5790
L178.4580 192.4362
" />
<path d="M178.4580 192.4362
L178.5295 192.3648
" />
<path d="M178.5295 192.3648
L178.6723 192.2933
" />
<path d="M178.6723 192.2933
L179.0295 192.2933
" />
<path d="M179.0295 192.2933
L179.2437 192.3648
" />
<path d="M179.8866 193.7933
L179.8866 192.7933
" />
<path d="M179.8866 192.2933
L179.8152 192.3648
" />
<path d="M179.8152 192.3648
L179.8866 192.4362
" />
<path d="M179.8866 192.4362
L179.9580 192.3648
" />
<path d="M179.9580 192.3648
L179.8866 192.2933
" />
<path d="M179.8866 192.2933
L179.8866 192.4362
" />
<path d="M180.4580 192.7933
L181.2437 192.7933
" />
<path d="M181.2437 192.7933
L180.4580 193.7933
" />
<path d="M180.4580 193.7933
L181.2437 193.7933
" />
<path d="M182.3866 193.7219
L182.2437 193.7933
" />
<path d="M182.2437 193.7933
L181.9580 193.7933
" />
<path d="M181.9580 193.7933
L181.8152 193.7219
" />
<path d="M181.8152 193.7219
L181.7437 193.5790
" />
<path d="M181.7437 193.5790
L181.7437 193.0076
" />
<path d="M181.7437 193.0076
L181.8152 192.8648
" />
<path d="M181.8152 192.8648
L181.9580 192.7933
" />
<path d="M181.9580 192.7933
L182.2437 192.7933
" />
<path d="M182.2437 192.7933
L182.3866 192.8648
" />
<path d="M182.3866 192.8648
L182.4580 193.0076
" />
<path d="M182.4580 193.0076
L182.4580 193.1505
" />
<path d="M182.4580 193.1505
L181.7437 193.2933
" />
<path d="M183.1009 193.6505
L183.1723 193.7219
" />
<path d="M183.1723 193.7219
L183.1009 193.7933
" />
<path d="M183.1009 193.7933
L183.0295 193.7219
" />
<path d="M183.0295 193.7219
L183.1009 193.6505
" />
<path d="M183.1009 193.6505
L183.1009 193.7933
" />
<path d="M183.1009 192.8648
L183.1723 192.9362
" />
<path d="M183.1723 192.9362
L183.1009 193.0076
" />
<path d="M183.1009 193.0076
L183.0295 192.9362
" />
<path d="M183.0295 192.9362
L183.1009 192.8648
" />
<path d="M183.1009 192.8648
L183.1009 193.0076
" />
<path d="M184.8866 193.3648
L185.6009 193.3648
" />
<path d="M184.7437 193.7933
L185.2437 192.2933
" />
<path d="M185.2437 192.2933
L185.7437 193.7933
" />
<path d="M186.8866 192.7933
L186.8866 193.7933
" />
<path d="M186.5295 192.2219
L186.1723 193.2933
" />
<path d="M186.1723 193.2933
L187.1009 193.2933
" />
</g></g>
<g style="fill:none; 
stroke:#000000; stroke-width:0.1500; stroke-opacity:1; 
stroke-linecap:round; stroke-linejoin:round;">
<text x="263.0022" y="196.6572"
textLength="8.5071" font-size="2.0000" lengthAdjust="spacingAndGlyphs"
text-anchor="start" opacity="0" stroke-opacity="0">Id: 1/1</text>
<g class="stroked-text"><desc>Id: 1/1</desc>
<path d="M263.4580 196.5933
L263.4580 195.0933
" />
<path d="M264.8152 196.5933
L264.8152 195.0933
" />
<path d="M264.8152 196.5219
L264.6723 196.5933
" />
<path d="M264.6723 196.5933
L264.3866 196.5933
" />
<path d="M264.3866 196.5933
L264.2437 196.5219
" />
<path d="M264.2437 196.5219
L264.1723 196.4505
" />
<path d="M264.1723 196.4505
L264.1009 196.3076
" />
<path d="M264.1009 196.3076
L264.1009 195.8790
" />
<path d="M264.1009 195.8790
L264.1723 195.7362
" />
<path d="M264.1723 195.7362
L264.2437 195.6648
" />
<path d="M264.2437 195.6648
L264.3866 195.5933
" />
<path d="M264.3866 195.5933
L264.6723 195.5933
" />
<path d="M264.6723 195.5933
L264.8152 195.6648
" />
<path d="M265.5295 196.4505
L265.6009 196.5219
" />
<path d="M265.6009 196.5219
L265.5295 196.5933
" />
<path d="M265.5295 196.5933
L265.4580 196.5219
" />
<path d="M265.4580 196.5219
L265.5295 196.4505
" />
<path d="M265.5295 196.4505
L265.5295 196.5933
" />
<path d="M265.5295 195.6648
L265.6009 195.7362
" />
<path d="M265.6009 195.7362
L265.5295 195.8076
" />
<path d="M265.5295 195.8076
L265.4580 195.7362
" />
<path d="M265.4580 195.7362
L265.5295 195.6648
" />
<path d="M265.5295 195.6648
L265.5295 195.8076
" />
<path d="M268.1723 196.5933
L267.3152 196.5933
" />
<path d="M267.7437 196.5933
L267.7437 195.0933
" />
<path d="M267.7437 195.0933
L267.6009 195.3076
" />
<path d="M267.6009 195.3076
L267.4580 195.4505
" />
<path d="M267.4580 195.4505
L267.3152 195.5219
" />
<path d="M269.8866 195.0219
L268.6009 196.9505
" />
<path d="M271.1723 196.5933
L270.3152 196.5933
" />
<path d="M270.7437 196.5933
L270.7437 195.0933
" />
<path d="M270.7437 195.0933
L270.6009 195.3076
" />
<path d="M270.6009 195.3076
L270.4580 195.4505
" />
<path d="M270.4580 195.4505
L270.3152 195.5219
" />
</g></g>
<g style="fill:none; 
stroke:#000000; stroke-width:0.1500; stroke-opacity:1; 
stroke-linecap:round; stroke-linejoin:round;">
<path d="M177.0022 187.5072
L285.0022 187.5072
" />
</g>
<g style="fill:none; 
stroke:#000000; stroke-width:0.4000; stroke-opacity:1; 
stroke-linecap:round; stroke-linejoin:round;">
<text x="178.0022" y="190.3072"
textLength="9.6571" font-size="2.6667" lengthAdjust="spacingAndGlyphs"
text-anchor="start" opacity="0" stroke-opacity="0">Title: </text>
<g class="stroked-text"><desc>Title: </desc>
<path d="M178.6939 188.2116
L179.8368 188.2116
" />
<path d="M179.0154 190.2116
L179.2654 188.2116
" />
<path d="M180.2535 190.2116
L180.4201 188.8783
" />
<path d="M180.5035 188.2116
L180.3963 188.3069
" />
<path d="M180.3963 188.3069
L180.4796 188.4021
" />
<path d="M180.4796 188.4021
L180.5868 188.3069
" />
<path d="M180.5868 188.3069
L180.5035 188.2116
" />
<path d="M180.5035 188.2116
L180.4796 188.4021
" />
<path d="M181.0868 188.8783
L181.8487 188.8783
" />
<path d="M181.4558 188.2116
L181.2415 189.9259
" />
<path d="M181.2415 189.9259
L181.3130 190.1164
" />
<path d="M181.3130 190.1164
L181.4915 190.2116
" />
<path d="M181.4915 190.2116
L181.6820 190.2116
" />
<path d="M182.6344 190.2116
L182.4558 190.1164
" />
<path d="M182.4558 190.1164
L182.3844 189.9259
" />
<path d="M182.3844 189.9259
L182.5987 188.2116
" />
<path d="M184.1701 190.1164
L183.9677 190.2116
" />
<path d="M183.9677 190.2116
L183.5868 190.2116
" />
<path d="M183.5868 190.2116
L183.4082 190.1164
" />
<path d="M183.4082 190.1164
L183.3368 189.9259
" />
<path d="M183.3368 189.9259
L183.4320 189.1640
" />
<path d="M183.4320 189.1640
L183.5511 188.9735
" />
<path d="M183.5511 188.9735
L183.7535 188.8783
" />
<path d="M183.7535 188.8783
L184.1344 188.8783
" />
<path d="M184.1344 188.8783
L184.3130 188.9735
" />
<path d="M184.3130 188.9735
L184.3844 189.1640
" />
<path d="M184.3844 189.1640
L184.3606 189.3545
" />
<path d="M184.3606 189.3545
L183.3844 189.5450
" />
<path d="M185.1344 190.0212
L185.2177 190.1164
" />
<path d="M185.2177 190.1164
L185.1106 190.2116
" />
<path d="M185.1106 190.2116
L185.0273 190.1164
" />
<path d="M185.0273 190.1164
L185.1344 190.0212
" />
<path d="M185.1344 190.0212
L185.1106 190.2116
" />
<path d="M185.2654 188.9735
L185.3487 189.0688
" />
<path d="M185.3487 189.0688
L185.2415 189.1640
" />
<path d="M185.2415 189.1640
L185.1582 189.0688
" />
<path d="M185.1582 189.0688
L185.2654 188.9735
" />
<path d="M185.2654 188.9735
L185.2415 189.1640
" />
</g></g>
<g style="fill:none; 
stroke:#000000; stroke-width:0.1500; stroke-opacity:1; 
stroke-linecap:round; stroke-linejoin:round;">
<text x="178.0022" y="186.4572"
textLength="28.8643" font-size="2.0000" lengthAdjust="spacingAndGlyphs"
text-anchor="start" opacity="0" stroke-opacity="0">File: macropad.kicad_pcb</text>
<g class="stroked-text"><desc>File: macropad.kicad_pcb</desc>
<path d="M178.9580 185.6076
L178.4580 185.6076
" />
<path d="M178.4580 186.3933
L178.4580 184.8933
" />
<path d="M178.4580 184.8933
L179.1723 184.8933
" />
<path d="M179.7437 186.3933
L179.7437 185.3933
" />
<path d="M179.7437 184.8933
L179.6723 184.9648
" />
<path d="M179.6723 184.9648
L179.7437 185.0362
" />
<path d="M179.7437 185.0362
L179.8152 184.9648
" />
<path d="M179.8152 184.9648
L179.7437 184.8933
" />
<path d="M179.7437 184.8933
L179.7437 185.0362
" />
<path d="M180.6723 186.3933
L180.5295 186.3219
" />
<path d="M180.5295 186.3219
L180.4580 186.1790
" />
<path d="M180.4580 186.1790
L180.4580 184.8933
" />
<path d="M181.8152 186.3219
L181.6723 186.3933
" />
<path d="M181.6723 186.3933
L181.3866 186.3933
" />
<path d="M181.3866 186.3933
L181.2437 186.3219
" />
<path d="M181.2437 186.3219
L181.1723 186.1790
" />
<path d="M181.1723 186.1790
L181.1723 185.6076
" />
<path d="M181.1723 185.6076
L181.2437 185.4648
" />
<path d="M181.2437 185.4648
L181.3866 185.3933
" />
<path d="M181.3866 185.3933
L181.6723 185.3933
" />
<path d="M181.6723 185.3933
L181.8152 185.4648
" />
<path d="M181.8152 185.4648
L181.8866 185.6076
" />
<path d="M181.8866 185.6076
L181.8866 185.7505
" />
<path d="M181.8866 185.7505
L181.1723 185.8933
" />
<path d="M182.5295 186.2505
L182.6009 186.3219
" />
<path d="M182.6009 186.3219
L182.5295 186.3933
" />
<path d="M182.5295 186.3933
L182.4580 186.3219
" />
<path d="M182.4580 186.3219
L182.5295 186.2505
" />
<path d="M182.5295 186.2505
L182.5295 186.3933
" />
<path d="M182.5295 185.4648
L182.6009 185.5362
" />
<path d="M182.6009 185.5362
L182.5295 185.6076
" />
<path d="M182.5295 185.6076
L182.4580 185.5362
" />
<path d="M182.4580 185.5362
L182.5295 185.4648
" />
<path d="M182.5295 185.4648
L182.5295 185.6076
" />
<path d="M184.3866 186.3933
L184.3866 185.3933
" />
<path d="M184.3866 185.5362
L184.4580 185.4648
" />
<path d="M184.4580 185.4648
L184.6009 185.3933
" />
<path d="M184.6009 185.3933
L184.8152 185.3933
" />
<path d="M184.8152 185.3933
L184.9580 185.4648
" />
<path d="M184.9580 185.4648
L185.0295 185.6076
" />
<path d="M185.0295 185.6076
L185.0295 186.3933
" />
<path d="M185.0295 185.6076
L185.1009 185.4648
" />
<path d="M185.1009 185.4648
L185.2437 185.3933
" />
<path d="M185.2437 185.3933
L185.4580 185.3933
" />
<path d="M185.4580 185.3933
L185.6009 185.4648
" />
<path d="M185.6009 185.4648
L185.6723 185.6076
" />
<path d="M185.6723 185.6076
L185.6723 186.3933
" />
<path d="M187.0295 186.3933
L187.0295 185.6076
" />
<path d="M187.0295 185.6076
L186.9580 185.4648
" />
<path d="M186.9580 185.4648
L186.8152 185.3933
" />
<path d="M186.8152 185.3933
L186.5295 185.3933
" />
<path d="M186.5295 185.3933
L186.3866 185.4648
" />
<path d="M187.0295 186.3219
L186.8866 186.3933
" />
<path d="M186.8866 186.3933
L186.5295 186.3933
" />
<path d="M186.5295 186.3933
L186.3866 186.3219
" />
<path d="M186.3866 186.3219
L186.3152 186.1790
" />
<path d="M186.3152 186.1790
L186.3152 186.0362
" />
<path d="M186.3152 186.0362
L186.3866 185.8933
" />
<path d="M186.3866 185.8933
L186.5295 185.8219
" />
<path d="M186.5295 185.8219
L186.8866 185.8219
" />
<path d="M186.8866 185.8219
L187.0295 185.7505
" />
<path d="M188.3866 186.3219
L188.2437 186.3933
" />
<path d="M188.2437 186.3933
L187.9580 186.3933
" />
<path d="M187.9580 186.3933
L187.8152 186.3219
" />
<path d="M187.8152 186.3219
L187.7437 186.2505
" />
<path d="M187.7437 186.2505
L187.6723 186.1076
" />
<path d="M187.6723 186.1076
L187.6723 185.6790
" />
<path d="M187.6723 185.6790
L187.7437 185.5362
" />
<path d="M187.7437 185.5362
L187.8152 185.4648
" />
<path d="M187.8152 185.4648
L187.9580 185.3933
" />
<path d="M187.9580 185.3933
L188.2437 185.3933
" />
<path d="M188.2437 185.3933
L188.3866 185.4648
" />
<path d="M189.0295 186.3933
L189.0295 185.3933
" />
<path d="M189.0295 185.6790
L189.1009 185.5362
" />
<path d="M189.1009 185.5362
L189.1723 185.4648
" />
<path d="M189.1723 185.4648
L189.3152 185.3933
" />
<path d="M189.3152 185.3933
L189.4580 185.3933
" />
<path d="M190.1723 186.3933
L190.0295 186.3219
" />
<path d="M190.0295 186.3219
L189.9580 186.2505
" />
<path d="M189.9580 186.2505
L189.8866 186.1076
" />
<path d="M189.8866 186.1076
L189.8866 185.6790
" />
<path d="M189.8866 185.6790
L189.9580 185.5362
" />
<path d="M189.9580 185.5362
L190.0295 185.4648
" />
<path d="M190.0295 185.4648
L190.1723 185.3933
" />
<path d="M190.1723 185.3933
L190.3866 185.3933
" />
<path d="M190.3866 185.3933
L190.5295 185.4648
" />
<path d="M190.5295 185.4648
L190.6009 185.5362
" />
<path d="M190.6009 185.5362
L190.6723 185.6790
" />
<path d="M190.6723 185.6790
L190.6723 186.1076
" />
<path d="M190.6723 186.1076
L190.6009 186.2505
" />
<path d="M190.6009 186.2505
L190.5295 186.3219
" />
<path d="M190.5295 186.3219
L190.3866 186.3933
" />
<path d="M190.3866 186.3933
L190.1723 186.3933
" />
<path d="M191.3152 185.3933
L191.3152 186.8933
" />
<path d="M191.3152 185.4648
L191.4580 185.3933
" />
<path d="M191.4580 185.3933
L191.7437 185.3933
" />
<path d="M191.7437 185.3933
L191.8866 185.4648
" />
<path d="M191.8866 185.4648
L191.9580 185.5362
" />
<path d="M191.9580 185.5362
L192.0295 185.6790
" />
<path d="M192.0295 185.6790
L192.0295 186.1076
" />
<path d="M192.0295 186.1076
L191.9580 186.2505
" />
<path d="M191.9580 186.2505
L191.8866 186.3219
" />
<path d="M191.8866 186.3219
L191.7437 186.3933
" />
<path d="M191.7437 186.3933
L191.4580 186.3933
" />
<path d="M191.4580 186.3933
L191.3152 186.3219
" />
<path d="M193.3152 186.3933
L193.3152 185.6076
" />
<path d="M193.3152 185.6076
L193.2437 185.4648
" />
<path d="M193.2437 185.4648
L193.1009 185.3933
" />
<path d="M193.1009 185.3933
L192.8152 185.3933
" />
<path d="M192.8152 185.3933
L192.6723 185.4648
" />
<path d="M193.3152 186.3219
L193.1723 186.3933
" />
<path d="M193.1723 186.3933
L192.8152 186.3933
" />
<path d="M192.8152 186.3933
L192.6723 186.3219
" />
<path d="M192.6723 186.3219
L192.6009 186.1790
" />
<path d="M192.6009 186.1790
L192.6009 186.0362
" />
<path d="M192.6009 186.0362
L192.6723 185.8933
" />
<path d="M192.6723 185.8933
L192.8152 185.8219
" />
<path d="M192.8152 185.8219
L193.1723 185.8219
" />
<path d="M193.1723 185.8219
L193.3152 185.7505
" />
<path d="M194.6723 186.3933
L194.6723 184.8933
" />
<path d="M194.6723 186.3219
L194.5295 186.3933
" />
<path d="M194.5295 186.3933
L194.2437 186.3933
" />
<path d="M194.2437 186.3933
L194.1009 186.3219
" />
<path d="M194.1009 186.3219
L194.0295 186.2505
" />
<path d="M194.0295 186.2505
L193.9580 186.1076
" />
<path d="M193.9580 186.1076
L193.9580 185.6790
" />
<path d="M193.9580 185.6790
L194.0295 185.5362
" />
<path d="M194.0295 185.5362
L194.1009 185.4648
" />
<path d="M194.1009 185.4648
L194.2437 185.3933
" />
<path d="M194.2437 185.3933
L194.5295 185.3933
" />
<path d="M194.5295 185.3933
L194.6723 185.4648
" />
<path d="M195.3866 186.2505
L195.4580 186.3219
" />
<path d="M195.4580 186.3219
L195.3866 186.3933
" />
<path d="M195.3866 186.3933
L195.3152 186.3219
" />
<path d="M195.3152 186.3219
L195.3866 186.2505
" />
<path d="M195.3866 186.2505
L195.3866 186.3933
" />
<path d="M196.1009 186.3933
L196.1009 184.8933
" />
<path d="M196.2437 185.8219
L196.6723 186.3933
" />
<path d="M196.6723 185.3933
L196.1009 185.9648
" />
<path d="M197.3152 186.3933
L197.3152 185.3933
" />
<path d="M197.3152 184.8933
L197.2437 184.9648
" />
<path d="M197.2437 184.9648
L197.3152 185.0362
" />
<path d="M197.3152 185.0362
L197.3866 184.9648
" />
<path d="M197.3866 184.9648
L197.3152 184.8933
" />
<path d="M197.3152 184.8933
L197.3152 185.0362
" />
<path d="M198.6723 186.3219
L198.5295 186.3933
" />
<path d="M198.5295 186.3933
L198.2437 186.3933
" />
<path d="M198.2437 186.3933
L198.1009 186.3219
" />
<path d="M198.1009 186.3219
L198.0295 186.2505
" />
<path d="M198.0295 186.2505
L197.9580 186.1076
" />
<path d="M197.9580 186.1076
L197.9580 185.6790
" />
<path d="M197.9580 185.6790
L198.0295 185.5362
" />
<path d="M198.0295 185.5362
L198.1009 185.4648
" />
<path d="M198.1009 185.4648
L198.2437 185.3933
" />
<path d="M198.2437 185.3933
L198.5295 185.3933
" />
<path d="M198.5295 185.3933
L198.6723 185.4648
" />
<path d="M199.9580 186.3933
L199.9580 185.6076
" />
<path d="M199.9580 185.6076
L199.8866 185.4648
" />
<path d="M199.8866 185.4648
L199.7437 185.3933
" />
<path d="M199.7437 185.3933
L199.4580 185.3933
" />
<path d="M199.4580 185.3933
L199.3152 185.4648
" />
<path d="M199.9580 186.3219
L199.8152 186.3933
" />
<path d="M199.8152 186.3933
L199.4580 186.3933
" />
<path d="M199.4580 186.3933
L199.3152 186.3219
" />
<path d="M199.3152 186.3219
L199.2437 186.1790
" />
<path d="M199.2437 186.1790
L199.2437 186.0362
" />
<path d="M199.2437 186.0362
L199.3152 185.8933
" />
<path d="M199.3152 185.8933
L199.4580 185.8219
" />
<path d="M199.4580 185.8219
L199.8152 185.8219
" />
<path d="M199.8152 185.8219
L199.9580 185.7505
" />
<path d="M201.3152 186.3933
L201.3152 184.8933
" />
<path d="M201.3152 186.3219
L201.1723 186.3933
" />
<path d="M201.1723 186.3933
L200.8866 186.3933
" />
<path d="M200.8866 186.3933
L200.7437 186.3219
" />
<path d="M200.7437 186.3219
L200.6723 186.2505
" />
<path d="M200.6723 186.2505
L200.6009 186.1076
" />
<path d="M200.6009 186.1076
L200.6009 185.6790
" />
<path d="M200.6009 185.6790
L200.6723 185.5362
" />
<path d="M200.6723 185.5362
L200.7437 185.4648
" />
<path d="M200.7437 185.4648
L200.8866 185.3933
" />
<path d="M200.8866 185.3933
L201.1723 185.3933
" />
<path d="M201.1723 185.3933
L201.3152 185.4648
" />
<path d="M201.6723 186.5362
L202.8152 186.5362
" />
<path d="M203.1723 185.3933
L203.1723 186.8933
" />
<path d="M203.1723 185.4648
L203.3152 185.3933
" />
<path d="M203.3152 185.3933
L203.6009 185.3933
" />
<path d="M203.6009 185.3933
L203.7437 185.4648
" />
<path d="M203.7437 185.4648
L203.8152 185.5362
" />
<path d="M203.8152 185.5362
L203.8866 185.6790
" />
<path d="M203.8866 185.6790
L203.8866 186.1076
" />
<path d="M203.8866 186.1076
L203.8152 186.2505
" />
<path d="M203.8152 186.2505
L203.7437 186.3219
" />
<path d="M203.7437 186.3219
L203.6009 186.3933
" />
<path d="M203.6009 186.3933
L203.3152 186.3933
" />
<path d="M203.3152 186.3933
L203.1723 186.3219
" />
<path d="M205.1723 186.3219
L205.0295 186.3933
" />
<path d="M205.0295 186.3933
L204.7437 186.3933
" />
<path d="M204.7437 186.3933
L204.6009 186.3219
" />
<path d="M204.6009 186.3219
L204.5295 186.2505
" />
<path d="M204.5295 186.2505
L204.4580 186.1076
" />
<path d="M204.4580 186.1076
L204.4580 185.6790
" />
<path d="M204.4580 185.6790
L204.5295 185.5362
" />
<path d="M204.5295 185.5362
L204.6009 185.4648
" />
<path d="M204.6009 185.4648
L204.7437 185.3933
" />
<path d="M204.7437 185.3933
L205.0295 185.3933
" />
<path d="M205.0295 185.3933
L205.1723 185.4648
" />
<path d="M205.8152 186.3933
L205.8152 184.8933
" />
<path d="M205.8152 185.4648
L205.9580 185.3933
" />
<path d="M205.9580 185.3933
L206.2437 185.3933
" />
<path d="M206.2437 185.3933
L206.3866 185.4648
" />
<path d="M206.3866 185.4648
L206.4580 185.5362
" />
<path d="M206.4580 185.5362
L206.5295 185.6790
" />
<path d="M206.5295 185.6790
L206.5295 186.1076
" />
<path d="M206.5295 186.1076
L206.4580 186.2505
" />
<path d="M206.4580 186.2505
L206.3866 186.3219
" />
<path d="M206.3866 186.3219
L206.2437 186.3933
" />
<path d="M206.2437 186.3933
L205.9580 186.3933
" />
<path d="M205.9580 186.3933
L205.8152 186.3219
" />
</g></g>
<g style="fill:none; 
stroke:#000000; stroke-width:0.1500; stroke-opacity:1; 
stroke-linecap:round; stroke-linejoin:round;">
<path d="M177.0022 181.5072
L285.0022 181.5072
" />
</g>
<g style="fill:none; 
stroke:#000000; stroke-width:0.1500; stroke-opacity:1; 
stroke-linecap:round; stroke-linejoin:round;">
<text x="178.0022" y="183.7572"
textLength="8.2214" font-size="2.0000" lengthAdjust="spacingAndGlyphs"
text-anchor="start" opacity="0" stroke-opacity="0">Sheet: </text>
<g class="stroked-text"><desc>Sheet: </desc>
<path d="M178.3866 183.6219
L178.6009 183.6933
" />
<path d="M178.6009 183.6933
L178.9580 183.6933
" />
<path d="M178.9580 183.6933
L179.1009 183.6219
" />
<path d="M179.1009 183.6219
L179.1723 183.5505
" />
<path d="M179.1723 183.5505
L179.2437 183.4076
" />
<path d="M179.2437 183.4076
L179.2437 183.2648
" />
<path d="M179.2437 183.2648
L179.1723 183.1219
" />
<path d="M179.1723 183.1219
L179.1009 183.0505
" />
<path d="M179.1009 183.0505
L178.9580 182.9790
" />
<path d="M178.9580 182.9790
L178.6723 182.9076
" />
<path d="M178.6723 182.9076
L178.5295 182.8362
" />
<path d="M178.5295 182.8362
L178.4580 182.7648
" />
<path d="M178.4580 182.7648
L178.3866 182.6219
" />
<path d="M178.3866 182.6219
L178.3866 182.4790
" />
<path d="M178.3866 182.4790
L178.4580 182.3362
" />
<path d="M178.4580 182.3362
L178.5295 182.2648
" />
<path d="M178.5295 182.2648
L178.6723 182.1933
" />
<path d="M178.6723 182.1933
L179.0295 182.1933
" />
<path d="M179.0295 182.1933
L179.2437 182.2648
" />
<path d="M179.8866 183.6933
L179.8866 182.1933
" />
<path d="M180.5295 183.6933
L180.5295 182.9076
" />
<path d="M180.5295 182.9076
L180.4580 182.7648
" />
<path d="M180.4580 182.7648
L180.3152 182.6933
" />
<path d="M180.3152 182.6933
L180.1009 182.6933
" />
<path d="M180.1009 182.6933
L179.9580 182.7648
" />
<path d="M179.9580 182.7648
L179.8866 182.8362
" />
<path d="M181.8152 183.6219
L181.6723 183.6933
" />
<path d="M181.6723 183.6933
L181.3866 183.6933
" />
<path d="M181.3866 183.6933
L181.2437 183.6219
" />
<path d="M181.2437 183.6219
L181.1723 183.4790
" />
<path d="M181.1723 183.4790
L181.1723 182.9076
" />
<path d="M181.1723 182.9076
L181.2437 182.7648
" />
<path d="M181.2437 182.7648
L181.3866 182.6933
" />
<path d="M181.3866 182.6933
L181.6723 182.6933
" />
<path d="M181.6723 182.6933
L181.8152 182.7648
" />
<path d="M181.8152 182.7648
L181.8866 182.9076
" />
<path d="M181.8866 182.9076
L181.8866 183.0505
" />
<path d="M181.8866 183.0505
L181.1723 183.1933
" />
<path d="M183.1009 183.6219
L182.9580 183.6933
" />
<path d="M182.9580 183.6933
L182.6723 183.6933
" />
<path d="M182.6723 183.6933
L182.5295 183.6219
" />
<path d="M182.5295 183.6219
L182.4580 183.4790
" />
<path d="M182.4580 183.4790
L182.4580 182.9076
" />
<path d="M182.4580 182.9076
L182.5295 182.7648
" />
<path d="M182.5295 182.7648
L182.6723 182.6933
" />
<path d="M182.6723 182.6933
L182.9580 182.6933
" />
<path d="M182.9580 182.6933
L183.1009 182.7648
" />
<path d="M183.1009 182.7648
L183.1723 182.9076
" />
<path d="M183.1723 182.9076
L183.1723 183.0505
" />
<path d="M183.1723 183.0505
L182.4580 183.1933
" />
<path d="M183.6009 182.6933
L184.1723 182.6933
" />
<path d="M183.8152 182.1933
L183.8152 183.4790
" />
<path d="M183.8152 183.4790
L183.8866 183.6219
" />
<path d="M183.8866 183.6219
L184.0295 183.6933
" />
<path d="M184.0295 183.6933
L184.1723 183.6933
" />
<path d="M184.6723 183.5505
L184.7437 183.6219
" />
<path d="M184.7437 183.6219
L184.6723 183.6933
" />
<path d="M184.6723 183.6933
L184.6009 183.6219
" />
<path d="M184.6009 183.6219
L184.6723 183.5505
" />
<path d="M184.6723 183.5505
L184.6723 183.6933
" />
<path d="M184.6723 182.7648
L184.7437 182.8362
" />
<path d="M184.7437 182.8362
L184.6723 182.9076
" />
<path d="M184.6723 182.9076
L184.6009 182.8362
" />
<path d="M184.6009 182.8362
L184.6723 182.7648
" />
<path d="M184.6723 182.7648
L184.6723 182.9076
" />
</g></g>
<g style="fill:none; 
stroke:#000000; stroke-width:0.3000; stroke-opacity:1; 
stroke-linecap:round; stroke-linejoin:round;">
<text x="178.0022" y="180.7572"
textLength="0.9000" font-size="2.0000" lengthAdjust="spacingAndGlyphs"
text-anchor="start" opacity="0" stroke-opacity="0"></text>
<g class="stroked-text"><desc></desc>
</g></g>
<g style="fill:none; 
stroke:#000000; stroke-width:0.1500; stroke-opacity:1; 
stroke-linecap:round; stroke-linejoin:round;">
<text x="178.0022" y="177.7572"
textLength="0.4500" font-size="2.0000" lengthAdjust="spacingAndGlyphs"
text-anchor="start" opacity="0" stroke-opacity="0"></text>
<g class="stroked-text"><desc></desc>
</g></g>
<g style="fill:none; 
stroke:#000000; stroke-width:0.1500; stroke-opacity:1; 
stroke-linecap:round; stroke-linejoin:round;">
<text x="178.0022" y="174.7572"
textLength="0.4500" font-size="2.0000" lengthAdjust="spacingAndGlyphs"
text-anchor="start" opacity="0" stroke-opacity="0"></text>
<g class="stroked-text"><desc></desc>
</g></g>
<g style="fill:none; 
stroke:#000000; stroke-width:0.1500; stroke-opacity:1; 
stroke-linecap:round; stroke-linejoin:round;">
<text x="178.0022" y="171.7572"
textLength="0.4500" font-size="2.0000" lengthAdjust="spacingAndGlyphs"
text-anchor="start" opacity="0" stroke-opacity="0"></text>
<g class="stroked-text"><desc></desc>
</g></g>
<g style="fill:none; 
stroke:#000000; stroke-width:0.1500; stroke-opacity:1; 
stroke-linecap:round; stroke-linejoin:round;">
<text x="178.0022" y="168.7572"
textLength="0.4500" font-size="2.0000" lengthAdjust="spacingAndGlyphs"
text-anchor="start" opacity="0" stroke-opacity="0"></text>
<g class="stroked-text"><desc></desc>
</g></g>
<g style="fill:none; 
stroke:#000000; stroke-width:0.1500; stroke-opacity:1; 
stroke-linecap:round; stroke-linejoin:round;">
<path d="M197.0022 191.5072
L197.0022 194.5072
" />
</g>
<g style="fill:none; 
stroke:#000000; stroke-width:0.1500; stroke-opacity:1; 
stroke-linecap:round; stroke-linejoin:round;">
<path d="M261.0022 191.5072
L261.0022 198.0072
" />
<path style="fill:none; 
stroke:#D0D2CD; stroke-width:0.0500; stroke-opacity:1; 
stroke-linecap:round; stroke-linejoin:round;fill:none"
d="M 200.0000,66.1000
197.5000,69.2000
197.5000,121.3000
183.5000,121.3000
183.5000,69.2000
180.8000,66.1000
180.8000,42.5000
200.0000,42.5000
Z" /> 
</g>
<g style="fill:#D0D2CD; fill-opacity:1.0000; stroke:none;">
<circle cx="198.0650" cy="44.1650" r="0.4000" /> 
</g>
<g style="fill:#D0D2CD; fill-opacity:1.0000; stroke:none;">
<circle cx="198.0650" cy="46.7050" r="0.4000" /> 
</g>
<g style="fill:#D0D2CD; fill-opacity:1.0000; stroke:none;">
<circle cx="198.0650" cy="49.2450" r="0.4000" /> 
</g>
<g style="fill:#D0D2CD; fill-opacity:1.0000; stroke:none;">
<circle cx="198.0650" cy="51.7850" r="0.4000" /> 
</g>
<g style="fill:#D0D2CD; fill-opacity:1.0000; stroke:none;">
<circle cx="198.0650" cy="54.3250" r="0.4000" /> 
</g>
<g style="fill:#D0D2CD; fill-opacity:1.0000; stroke:none;">
<circle cx="198.0650" cy="56.8650" r="0.4000" /> 
</g>
<g style="fill:#D0D2CD; fill-opacity:1.0000; stroke:none;">
<circle cx="198.0650" cy="59.4050" r="0.4000" /> 
</g>
<g style="fill:#D0D2CD; fill-opacity:1.0000; stroke:none;">
<circle cx="198.0650" cy="61.9450" r="0.4000" /> 
</g>
<g style="fill:#D0D2CD; fill-opacity:1.0000; stroke:none;">
<circle cx="198.0650" cy="64.4850" r="0.4000" /> 
</g>
<g style="fill:#D0D2CD; fill-opacity:1.0000; stroke:none;">
<circle cx="195.5250" cy="64.6950" r="0.4000" /> 
</g>
<g style="fill:#D0D2CD; fill-opacity:1.0000; stroke:none;">
<circle cx="192.9850" cy="64.6950" r="0.4000" /> 
</g>
<g style="fill:#D0D2CD; fill-opacity:1.0000; stroke:none;">
<circle cx="190.4450" cy="64.6950" r="0.4000" /> 
</g>
<g style="fill:#D0D2CD; fill-opacity:1.0000; stroke:none;">
<circle cx="187.9050" cy="64.6950" r="0.4000" /> 
</g>
<g style="fill:#D0D2CD; fill-opacity:1.0000; stroke:none;">
<circle cx="185.3650" cy="64.6950" r="0.4000" /> 
</g>
<g style="fill:#D0D2CD; fill-opacity:1.0000; stroke:none;">
<circle cx="182.8250" cy="64.4850" r="0.4000" /> 
</g>
<g style="fill:#D0D2CD; fill-opacity:1.0000; stroke:none;">
<circle cx="182.8250" cy="61.9450" r="0.4000" /> 
</g>
<g style="fill:#D0D2CD; fill-opacity:1.0000; stroke:none;">
<circle cx="182.8250" cy="59.4050" r="0.4000" /> 
</g>
<g style="fill:#D0D2CD; fill-opacity:1.0000; stroke:none;">
<circle cx="182.8250" cy="56.8650" r="0.4000" /> 
</g>
<g style="fill:#D0D2CD; fill-opacity:1.0000; stroke:none;">
<circle cx="182.8250" cy="44.1650" r="0.4000" /> 
</g>
<g style="fill:#D0D2CD; fill-opacity:1.0000; stroke:none;">
<circle cx="182.8250" cy="46.7050" r="0.4000" /> 
</g>
<g style="fill:#D0D2CD; fill-opacity:1.0000; stroke:none;">
<circle cx="182.8250" cy="49.2450" r="0.4000" /> 
</g>
<g style="fill:#D0D2CD; fill-opacity:1.0000; stroke:none;">
<circle cx="182.8250" cy="54.3250" r="0.4000" /> 
</g>
<g style="fill:#D0D2CD; fill-opacity:1.0000; stroke:none;">
<circle cx="182.8250" cy="51.7850" r="0.4000" /> 
</g>
<g style="fill:#D0D2CD; fill-opacity:1.0000; stroke:none;">
<circle cx="190.5000" cy="109.2200" r="0.8500" /> 
</g>
<g style="fill:#D0D2CD; fill-opacity:1.0000; stroke:none;">
<circle cx="190.5000" cy="114.3000" r="2.0000" /> 
</g>
<g style="fill:#D0D2CD; fill-opacity:1.0000; stroke:none;">
<circle cx="190.5000" cy="119.3800" r="0.8500" /> 
</g>
<g style="fill:#D0D2CD; fill-opacity:1.0000; stroke:none;">
<circle cx="195.5800" cy="116.8400" r="0.7500" /> 
</g>
<g style="fill:#D0D2CD; fill-opacity:1.0000; stroke:none;">
<circle cx="193.0400" cy="110.4900" r="0.7500" /> 
</g>
<g style="fill:#D0D2CD; fill-opacity:1.0000; stroke:none;">
<circle cx="190.5000" cy="90.1700" r="0.8500" /> 
</g>
<g style="fill:#D0D2CD; fill-opacity:1.0000; stroke:none;">
<circle cx="190.5000" cy="95.2500" r="2.0000" /> 
</g>
<g style="fill:#D0D2CD; fill-opacity:1.0000; stroke:none;">
<circle cx="190.5000" cy="100.3300" r="0.8500" /> 
</g>
<g style="fill:#D0D2CD; fill-opacity:1.0000; stroke:none;">
<circle cx="195.5800" cy="97.7900" r="0.7500" /> 
</g>
<g style="fill:#D0D2CD; fill-opacity:1.0000; stroke:none;">
<circle cx="193.0400" cy="91.4400" r="0.7500" /> 
</g>
<g style="fill:#D0D2CD; fill-opacity:1.0000; stroke:none;">
<circle cx="190.5000" cy="71.1200" r="0.8500" /> 
</g>
<g style="fill:#D0D2CD; fill-opacity:1.0000; stroke:none;">
<circle cx="190.5000" cy="76.2000" r="2.0000" /> 
</g>
<g style="fill:#D0D2CD; fill-opacity:1.0000; stroke:none;">
<circle cx="190.5000" cy="81.2800" r="0.8500" /> 
</g>
<g style="fill:#D0D2CD; fill-opacity:1.0000; stroke:none;">
<circle cx="195.5800" cy="78.7400" r="0.7500" /> 
</g>
<g style="fill:#D0D2CD; fill-opacity:1.0000; stroke:none;">
<circle cx="193.0400" cy="72.3900" r="0.7500" /> 
<path style="fill:#4D7FC4; fill-opacity:1.0000; stroke:none;fill-rule:evenodd;"
d="M 197.3650,43.7650
197.3846,43.6414
197.4414,43.5299
197.5299,43.4414
197.6414,43.3846
197.7650,43.3650
199.5650,43.3650
199.6886,43.3846
199.8001,43.4414
199.8886,43.5299
199.9454,43.6414
199.9650,43.7650
199.9650,44.5650
199.9454,44.6886
199.8886,44.8001
199.8001,44.8886
199.6886,44.9454
199.5650,44.9650
197.7650,44.9650
197.6414,44.9454
197.5299,44.8886
197.4414,44.8001
197.3846,44.6886
197.3650,44.5650
Z" /> 
<path style="fill:#4D7FC4; fill-opacity:1.0000; stroke:none;fill-rule:evenodd;"
d="M 197.3650,46.3050
197.3846,46.1814
197.4414,46.0699
197.5299,45.9814
197.6414,45.9246
197.7650,45.9050
199.5650,45.9050
199.6886,45.9246
199.8001,45.9814
199.8886,46.0699
199.9454,46.1814
199.9650,46.3050
199.9650,47.1050
199.9454,47.2286
199.8886,47.3401
199.8001,47.4286
199.6886,47.4854
199.5650,47.5050
197.7650,47.5050
197.6414,47.4854
197.5299,47.4286
197.4414,47.3401
197.3846,47.2286
197.3650,47.1050
Z" /> 
<path style="fill:#4D7FC4; fill-opacity:1.0000; stroke:none;fill-rule:evenodd;"
d="M 197.3650,48.8450
197.3846,48.7214
197.4414,48.6099
197.5299,48.5214
197.6414,48.4646
197.7650,48.4450
199.5650,48.4450
199.6886,48.4646
199.8001,48.5214
199.8886,48.6099
199.9454,48.7214
199.9650,48.8450
199.9650,49.6450
199.9454,49.7686
199.8886,49.8801
199.8001,49.9686
199.6886,50.0254
199.5650,50.0450
197.7650,50.0450
197.6414,50.0254
197.5299,49.9686
197.4414,49.8801
197.3846,49.7686
197.3650,49.6450
Z" /> 
<path style="fill:#4D7FC4; fill-opacity:1.0000; stroke:none;fill-rule:evenodd;"
d="M 197.3650,51.3850
197.3846,51.2614
197.4414,51.1499
197.5299,51.0614
197.6414,51.0046
197.7650,50.9850
199.5650,50.9850
199.6886,51.0046
199.8001,51.0614
199.8886,51.1499
199.9454,51.2614
199.9650,51.3850
199.9650,52.1850
199.9454,52.3086
199.8886,52.4201
199.8001,52.5086
199.6886,52.5654
199.5650,52.5850
197.7650,52.5850
197.6414,52.5654
197.5299,52.5086
197.4414,52.4201
197.3846,52.3086
197.3650,52.1850
Z" /> 
<path style="fill:#4D7FC4; fill-opacity:1.0000; stroke:none;fill-rule:evenodd;"
d="M 197.3650,53.9250
197.3846,53.8014
197.4414,53.6899
197.5299,53.6014
197.6414,53.5446
197.7650,53.5250
199.5650,53.5250
199.6886,53.5446
199.8001,53.6014
199.8886,53.6899
199.9454,53.8014
199.9650,53.9250
199.9650,54.7250
199.9454,54.8486
199.8886,54.9601
199.8001,55.0486
199.6886,55.1054
199.5650,55.1250
197.7650,55.1250
197.6414,55.1054
197.5299,55.0486
197.4414,54.9601
197.3846,54.8486
197.3650,54.7250
Z" /> 
<path style="fill:#4D7FC4; fill-opacity:1.0000; stroke:none;fill-rule:evenodd;"
d="M 197.3650,56.4649
197.3846,56.3413
197.4414,56.2298
197.5299,56.1413
197.6414,56.0845
197.7651,56.0649
199.5649,56.0649
199.6886,56.0845
199.8001,56.1413
199.8886,56.2298
199.9454,56.3413
199.9650,56.4649
199.9650,57.2650
199.9454,57.3887
199.8886,57.5002
199.8001,57.5887
199.6886,57.6455
199.5649,57.6651
197.7651,57.6651
197.6414,57.6455
197.5299,57.5887
197.4414,57.5002
197.3846,57.3887
197.3650,57.2650
Z" /> 
<path style="fill:#4D7FC4; fill-opacity:1.0000; stroke:none;fill-rule:evenodd;"
d="M 197.3650,59.0049
197.3846,58.8813
197.4414,58.7698
197.5299,58.6813
197.6414,58.6245
197.7651,58.6049
199.5649,58.6049
199.6886,58.6245
199.8001,58.6813
199.8886,58.7698
199.9454,58.8813
199.9650,59.0049
199.9650,59.8050
199.9454,59.9287
199.8886,60.0402
199.8001,60.1287
199.6886,60.1855
199.5649,60.2051
197.7651,60.2051
197.6414,60.1855
197.5299,60.1287
197.4414,60.0402
197.3846,59.9287
197.3650,59.8050
Z" /> 
<path style="fill:#4D7FC4; fill-opacity:1.0000; stroke:none;fill-rule:evenodd;"
d="M 197.3650,61.5450
197.3846,61.4213
197.4414,61.3098
197.5299,61.2213
197.6414,61.1645
197.7651,61.1449
199.5649,61.1449
199.6886,61.1645
199.8001,61.2213
199.8886,61.3098
199.9454,61.4213
199.9650,61.5450
199.9650,62.3451
199.9454,62.4687
199.8886,62.5802
199.8001,62.6687
199.6886,62.7255
199.5649,62.7451
197.7651,62.7451
197.6414,62.7255
197.5299,62.6687
197.4414,62.5802
197.3846,62.4687
197.3650,62.3451
Z" /> 
<path style="fill:#4D7FC4; fill-opacity:1.0000; stroke:none;fill-rule:evenodd;"
d="M 197.3650,64.0849
197.3846,63.9613
197.4414,63.8498
197.5299,63.7613
197.6414,63.7045
197.7651,63.6849
199.5649,63.6849
199.6886,63.7045
199.8001,63.7613
199.8886,63.8498
199.9454,63.9613
199.9650,64.0849
199.9650,64.8850
199.9454,65.0087
199.8886,65.1202
199.8001,65.2087
199.6886,65.2655
199.5649,65.2851
197.7651,65.2851
197.6414,65.2655
197.5299,65.2087
197.4414,65.1202
197.3846,65.0087
197.3650,64.8850
Z" /> 
<path style="fill:#4D7FC4; fill-opacity:1.0000; stroke:none;fill-rule:evenodd;"
d="M 194.7250,64.3950
194.7446,64.2714
194.8014,64.1599
194.8899,64.0714
195.0014,64.0146
195.1250,63.9950
195.9250,63.9950
196.0486,64.0146
196.1601,64.0714
196.2486,64.1599
196.3054,64.2714
196.3250,64.3950
196.3250,66.1950
196.3054,66.3186
196.2486,66.4301
196.1601,66.5186
196.0486,66.5754
195.9250,66.5950
195.1250,66.5950
195.0014,66.5754
194.8899,66.5186
194.8014,66.4301
194.7446,66.3186
194.7250,66.1950
Z" /> 
<path style="fill:#4D7FC4; fill-opacity:1.0000; stroke:none;fill-rule:evenodd;"
d="M 192.1976,64.3887
192.2169,64.2670
192.2728,64.1573
192.3599,64.0702
192.4696,64.0143
192.5913,63.9950
193.3787,63.9950
193.5004,64.0143
193.6101,64.0702
193.6972,64.1573
193.7531,64.2670
193.7724,64.3887
193.7724,66.2013
193.7531,66.3230
193.6972,66.4327
193.6101,66.5198
193.5004,66.5757
193.3787,66.5950
192.5913,66.5950
192.4696,66.5757
192.3599,66.5198
192.2728,66.4327
192.2169,66.3230
192.1976,66.2013
Z" /> 
<path style="fill:#4D7FC4; fill-opacity:1.0000; stroke:none;fill-rule:evenodd;"
d="M 189.6576,64.3887
189.6769,64.2670
189.7328,64.1573
189.8199,64.0702
189.9296,64.0143
190.0513,63.9950
190.8387,63.9950
190.9604,64.0143
191.0701,64.0702
191.1572,64.1573
191.2131,64.2670
191.2324,64.3887
191.2324,66.2013
191.2131,66.3230
191.1572,66.4327
191.0701,66.5198
190.9604,66.5757
190.8387,66.5950
190.0513,66.5950
189.9296,66.5757
189.8199,66.5198
189.7328,66.4327
189.6769,66.3230
189.6576,66.2013
Z" /> 
<path style="fill:#4D7FC4; fill-opacity:1.0000; stroke:none;fill-rule:evenodd;"
d="M 187.1176,64.3887
187.1369,64.2670
187.1928,64.1573
187.2799,64.0702
187.3896,64.0143
187.5113,63.9950
188.2987,63.9950
188.4204,64.0143
188.5301,64.0702
188.6172,64.1573
188.6731,64.2670
188.6924,64.3887
188.6924,66.2013
188.6731,66.3230
188.6172,66.4327
188.5301,66.5198
188.4204,66.5757
188.2987,66.5950
187.5113,66.5950
187.3896,66.5757
187.2799,66.5198
187.1928,66.4327
187.1369,66.3230
187.1176,66.2013
Z" /> 
<path style="fill:#4D7FC4; fill-opacity:1.0000; stroke:none;fill-rule:evenodd;"
d="M 184.5776,64.3887
184.5969,64.2670
184.6528,64.1573
184.7399,64.0702
184.8496,64.0143
184.9713,63.9950
185.7587,63.9950
185.8804,64.0143
185.9901,64.0702
186.0772,64.1573
186.1331,64.2670
186.1524,64.3887
186.1524,66.2013
186.1331,66.3230
186.0772,66.4327
185.9901,66.5198
185.8804,66.5757
185.7587,66.5950
184.9713,66.5950
184.8496,66.5757
184.7399,66.5198
184.6528,66.4327
184.5969,66.3230
184.5776,66.2013
Z" /> 
<path style="fill:#4D7FC4; fill-opacity:1.0000; stroke:none;fill-rule:evenodd;"
d="M 180.9250,64.0849
180.9446,63.9613
181.0014,63.8498
181.0899,63.7613
181.2014,63.7045
181.3251,63.6849
183.1249,63.6849
183.2486,63.7045
183.3601,63.7613
183.4486,63.8498
183.5054,63.9613
183.5250,64.0849
183.5250,64.8850
183.5054,65.0087
183.4486,65.1202
183.3601,65.2087
183.2486,65.2655
183.1249,65.2851
181.3251,65.2851
181.2014,65.2655
181.0899,65.2087
181.0014,65.1202
180.9446,65.0087
180.9250,64.8850
Z" /> 
<path style="fill:#4D7FC4; fill-opacity:1.0000; stroke:none;fill-rule:evenodd;"
d="M 180.9250,61.5450
180.9446,61.4213
181.0014,61.3098
181.0899,61.2213
181.2014,61.1645
181.3251,61.1449
183.1249,61.1449
183.2486,61.1645
183.3601,61.2213
183.4486,61.3098
183.5054,61.4213
183.5250,61.5450
183.5250,62.3451
183.5054,62.4687
183.4486,62.5802
183.3601,62.6687
183.2486,62.7255
183.1249,62.7451
181.3251,62.7451
181.2014,62.7255
181.0899,62.6687
181.0014,62.5802
180.9446,62.4687
180.9250,62.3451
Z" /> 
<path style="fill:#4D7FC4; fill-opacity:1.0000; stroke:none;fill-rule:evenodd;"
d="M 180.9250,59.0049
180.9446,58.8813
181.0014,58.7698
181.0899,58.6813
181.2014,58.6245
181.3251,58.6049
183.1249,58.6049
183.2486,58.6245
183.3601,58.6813
183.4486,58.7698
183.5054,58.8813
183.5250,59.0049
183.5250,59.8050
183.5054,59.9287
183.4486,60.0402
183.3601,60.1287
183.2486,60.1855
183.1249,60.2051
181.3251,60.2051
181.2014,60.1855
181.0899,60.1287
181.0014,60.0402
180.9446,59.9287
180.9250,59.8050
Z" /> 
<path style="fill:#4D7FC4; fill-opacity:1.0000; stroke:none;fill-rule:evenodd;"
d="M 180.9250,56.4649
180.9446,56.3413
181.0014,56.2298
181.0899,56.1413
181.2014,56.0845
181.3251,56.0649
183.1249,56.0649
183.2486,56.0845
183.3601,56.1413
183.4486,56.2298
183.5054,56.3413
183.5250,56.4649
183.5250,57.2650
183.5054,57.3887
183.4486,57.5002
183.3601,57.5887
183.2486,57.6455
183.1249,57.6651
181.3251,57.6651
181.2014,57.6455
181.0899,57.5887
181.0014,57.5002
180.9446,57.3887
180.9250,57.2650
Z" /> 
<path style="fill:#4D7FC4; fill-opacity:1.0000; stroke:none;fill-rule:evenodd;"
d="M 180.9250,43.7649
180.9446,43.6413
181.0014,43.5298
181.0899,43.4413
181.2014,43.3845
181.3251,43.3649
183.1249,43.3649
183.2486,43.3845
183.3601,43.4413
183.4486,43.5298
183.5054,43.6413
183.5250,43.7649
183.5250,44.5650
183.5054,44.6887
183.4486,44.8002
183.3601,44.8887
183.2486,44.9455
183.1249,44.9651
181.3251,44.9651
181.2014,44.9455
181.0899,44.8887
181.0014,44.8002
180.9446,44.6887
180.9250,44.5650
Z" /> 
<path style="fill:#4D7FC4; fill-opacity:1.0000; stroke:none;fill-rule:evenodd;"
d="M 180.9250,46.3049
180.9446,46.1813
181.0014,46.0698
181.0899,45.9813
181.2014,45.9245
181.3251,45.9049
183.1249,45.9049
183.2486,45.9245
183.3601,45.9813
183.4486,46.0698
183.5054,46.1813
183.5250,46.3049
183.5250,47.1050
183.5054,47.2287
183.4486,47.3402
183.3601,47.4287
183.2486,47.4855
183.1249,47.5051
181.3251,47.5051
181.2014,47.4855
181.0899,47.4287
181.0014,47.3402
180.9446,47.2287
180.9250,47.1050
Z" /> 
<path style="fill:#4D7FC4; fill-opacity:1.0000; stroke:none;fill-rule:evenodd;"
d="M 180.9250,48.8449
180.9446,48.7213
181.0014,48.6098
181.0899,48.5213
181.2014,48.4645
181.3251,48.4449
183.1249,48.4449
183.2486,48.4645
183.3601,48.5213
183.4486,48.6098
183.5054,48.7213
183.5250,48.8449
183.5250,49.6450
183.5054,49.7687
183.4486,49.8802
183.3601,49.9687
183.2486,50.0255
183.1249,50.0451
181.3251,50.0451
181.2014,50.0255
181.0899,49.9687
181.0014,49.8802
180.9446,49.7687
180.9250,49.6450
Z" /> 
<path style="fill:#4D7FC4; fill-opacity:1.0000; stroke:none;fill-rule:evenodd;"
d="M 180.9250,53.9249
180.9446,53.8013
181.0014,53.6898
181.0899,53.6013
181.2014,53.5445
181.3251,53.5249
183.1249,53.5249
183.2486,53.5445
183.3601,53.6013
183.4486,53.6898
183.5054,53.8013
183.5250,53.9249
183.5250,54.7250
183.5054,54.8487
183.4486,54.9602
183.3601,55.0487
183.2486,55.1055
183.1249,55.1251
181.3251,55.1251
181.2014,55.1055
181.0899,55.0487
181.0014,54.9602
180.9446,54.8487
180.9250,54.7250
Z" /> 
<path style="fill:#4D7FC4; fill-opacity:1.0000; stroke:none;fill-rule:evenodd;"
d="M 180.9250,51.3849
180.9446,51.2613
181.0014,51.1498
181.0899,51.0613
181.2014,51.0045
181.3251,50.9849
183.1249,50.9849
183.2486,51.0045
183.3601,51.0613
183.4486,51.1498
183.5054,51.2613
183.5250,51.3849
183.5250,52.1850
183.5054,52.3087
183.4486,52.4202
183.3601,52.5087
183.2486,52.5655
183.1249,52.5851
181.3251,52.5851
181.2014,52.5655
181.0899,52.5087
181.0014,52.4202
180.9446,52.3087
180.9250,52.1850
Z" /> 
</g>
<g style="fill:#4D7FC4; fill-opacity:1.0000; stroke:none;">
<circle cx="195.5800" cy="116.8400" r="1.1000" /> 
</g>
<g style="fill:#4D7FC4; fill-opacity:1.0000; stroke:none;">
<circle cx="193.0400" cy="110.4900" r="1.1000" /> 
</g>
<g style="fill:#4D7FC4; fill-opacity:1.0000; stroke:none;">
<circle cx="195.5800" cy="97.7900" r="1.1000" /> 
</g>
<g style="fill:#4D7FC4; fill-opacity:1.0000; stroke:none;">
<circle cx="193.0400" cy="91.4400" r="1.1000" /> 
</g>
<g style="fill:#4D7FC4; fill-opacity:1.0000; stroke:none;">
<circle cx="195.5800" cy="78.7400" r="1.1000" /> 
</g>
<g style="fill:#4D7FC4; fill-opacity:1.0000; stroke:none;">
<circle cx="193.0400" cy="72.3900" r="1.1000" /> 
</g>
<g style="fill:none; 
stroke:#4D7FC4; stroke-width:0.5000; stroke-opacity:1; 
stroke-linecap:round; stroke-linejoin:round;">
<path d="M190.4450 64.6950
L190.4450 67.2550
" />
<path d="M190.4450 67.2550
L189.9000 67.8000
" />
<path d="M186.3000 69.3000
L186.3000 115.0000
" />
<path d="M195.0200 117.4000
L195.5800 116.8400
" />
<path d="M189.9000 67.8000
L187.8000 67.8000
" />
<path d="M187.8000 67.8000
L186.3000 69.3000
" />
<path d="M186.3000 115.0000
L188.7000 117.4000
" />
<path d="M188.7000 117.4000
L195.0200 117.4000
" />
<path d="M192.9850 64.6950
L192.9850 66.6850
" />
<path d="M187.0000 70.2000
L187.0000 96.3000
" />
<path d="M192.9850 66.6850
L193.0000 66.7000
" />
<path d="M188.4000 68.8000
L187.0000 70.2000
" />
<path d="M194.9700 98.4000
L195.5800 97.7900
" />
<path d="M193.0000 66.7000
L193.0000 67.1000
" />
<path d="M193.0000 67.1000
L191.3000 68.8000
" />
<path d="M191.3000 68.8000
L188.4000 68.8000
" />
<path d="M189.1000 98.4000
L194.9700 98.4000
" />
<path d="M187.0000 96.3000
L189.1000 98.4000
" />
<path d="M195.5250 64.6950
L195.5800 64.7500
" />
<path d="M195.5800 64.7500
L195.5800 78.7400
" />
</g>
<g style="fill:#FFFFFF; fill-opacity:1.0000; stroke:none;">
<circle cx="198.0650" cy="44.1650" r="0.4000" /> 
</g>
<g style="fill:#FFFFFF; fill-opacity:1.0000; stroke:none;">
<circle cx="198.0650" cy="46.7050" r="0.4000" /> 
</g>
<g style="fill:#FFFFFF; fill-opacity:1.0000; stroke:none;">
<circle cx="198.0650" cy="49.2450" r="0.4000" /> 
</g>
<g style="fill:#FFFFFF; fill-opacity:1.0000; stroke:none;">
<circle cx="198.0650" cy="51.7850" r="0.4000" /> 
</g>
<g style="fill:#FFFFFF; fill-opacity:1.0000; stroke:none;">
<circle cx="198.0650" cy="54.3250" r="0.4000" /> 
</g>
<g style="fill:#FFFFFF; fill-opacity:1.0000; stroke:none;">
<circle cx="198.0650" cy="56.8650" r="0.4000" /> 
</g>
<g style="fill:#FFFFFF; fill-opacity:1.0000; stroke:none;">
<circle cx="198.0650" cy="59.4050" r="0.4000" /> 
</g>
<g style="fill:#FFFFFF; fill-opacity:1.0000; stroke:none;">
<circle cx="198.0650" cy="61.9450" r="0.4000" /> 
</g>
<g style="fill:#FFFFFF; fill-opacity:1.0000; stroke:none;">
<circle cx="198.0650" cy="64.4850" r="0.4000" /> 
</g>
<g style="fill:#FFFFFF; fill-opacity:1.0000; stroke:none;">
<circle cx="195.5250" cy="64.6950" r="0.4000" /> 
</g>
<g style="fill:#FFFFFF; fill-opacity:1.0000; stroke:none;">
<circle cx="192.9850" cy="64.6950" r="0.4000" /> 
</g>
<g style="fill:#FFFFFF; fill-opacity:1.0000; stroke:none;">
<circle cx="190.4450" cy="64.6950" r="0.4000" /> 
</g>
<g style="fill:#FFFFFF; fill-opacity:1.0000; stroke:none;">
<circle cx="187.9050" cy="64.6950" r="0.4000" /> 
</g>
<g style="fill:#FFFFFF; fill-opacity:1.0000; stroke:none;">
<circle cx="185.3650" cy="64.6950" r="0.4000" /> 
</g>
<g style="fill:#FFFFFF; fill-opacity:1.0000; stroke:none;">
<circle cx="182.8250" cy="64.4850" r="0.4000" /> 
</g>
<g style="fill:#FFFFFF; fill-opacity:1.0000; stroke:none;">
<circle cx="182.8250" cy="61.9450" r="0.4000" /> 
</g>
<g style="fill:#FFFFFF; fill-opacity:1.0000; stroke:none;">
<circle cx="182.8250" cy="59.4050" r="0.4000" /> 
</g>
<g style="fill:#FFFFFF; fill-opacity:1.0000; stroke:none;">
<circle cx="182.8250" cy="56.8650" r="0.4000" /> 
</g>
<g style="fill:#FFFFFF; fill-opacity:1.0000; stroke:none;">
<circle cx="182.8250" cy="44.1650" r="0.4000" /> 
</g>
<g style="fill:#FFFFFF; fill-opacity:1.0000; stroke:none;">
<circle cx="182.8250" cy="46.7050" r="0.4000" /> 
</g>
<g style="fill:#FFFFFF; fill-opacity:1.0000; stroke:none;">
<circle cx="182.8250" cy="49.2450" r="0.4000" /> 
</g>
<g style="fill:#FFFFFF; fill-opacity:1.0000; stroke:none;">
<circle cx="182.8250" cy="54.3250" r="0.4000" /> 
</g>
<g style="fill:#FFFFFF; fill-opacity:1.0000; stroke:none;">
<circle cx="182.8250" cy="51.7850" r="0.4000" /> 
</g>
<g style="fill:#FFFFFF; fill-opacity:1.0000; stroke:none;">
<circle cx="190.5000" cy="109.2200" r="0.8500" /> 
</g>
<g style="fill:#FFFFFF; fill-opacity:1.0000; stroke:none;">
<circle cx="190.5000" cy="114.3000" r="2.0000" /> 
</g>
<g style="fill:#FFFFFF; fill-opacity:1.0000; stroke:none;">
<circle cx="190.5000" cy="119.3800" r="0.8500" /> 
</g>
<g style="fill:#FFFFFF; fill-opacity:1.0000; stroke:none;">
<circle cx="195.5800" cy="116.8400" r="0.7500" /> 
</g>
<g style="fill:#FFFFFF; fill-opacity:1.0000; stroke:none;">
<circle cx="193.0400" cy="110.4900" r="0.7500" /> 
</g>
<g style="fill:#FFFFFF; fill-opacity:1.0000; stroke:none;">
<circle cx="190.5000" cy="90.1700" r="0.8500" /> 
</g>
<g style="fill:#FFFFFF; fill-opacity:1.0000; stroke:none;">
<circle cx="190.5000" cy="95.2500" r="2.0000" /> 
</g>
<g style="fill:#FFFFFF; fill-opacity:1.0000; stroke:none;">
<circle cx="190.5000" cy="100.3300" r="0.8500" /> 
</g>
<g style="fill:#FFFFFF; fill-opacity:1.0000; stroke:none;">
<circle cx="195.5800" cy="97.7900" r="0.7500" /> 
</g>
<g style="fill:#FFFFFF; fill-opacity:1.0000; stroke:none;">
<circle cx="193.0400" cy="91.4400" r="0.7500" /> 
</g>
<g style="fill:#FFFFFF; fill-opacity:1.0000; stroke:none;">
<circle cx="190.5000" cy="71.1200" r="0.8500" /> 
</g>
<g style="fill:#FFFFFF; fill-opacity:1.0000; stroke:none;">
<circle cx="190.5000" cy="76.2000" r="2.0000" /> 
</g>
<g style="fill:#FFFFFF; fill-opacity:1.0000; stroke:none;">
<circle cx="190.5000" cy="81.2800" r="0.8500" /> 
</g>
<g style="fill:#FFFFFF; fill-opacity:1.0000; stroke:none;">
<circle cx="195.5800" cy="78.7400" r="0.7500" /> 
</g>
<g style="fill:#FFFFFF; fill-opacity:1.0000; stroke:none;">
<circle cx="193.0400" cy="72.3900" r="0.7500" /> 
</g> 
</svg>
