%TF.GenerationSoftware,KiCad,Pcbnew,8.0.9-8.0.9-0~ubuntu22.04.1*%
%TF.CreationDate,2026-02-27T01:56:06+08:00*%
%TF.ProjectId,macropad,6d616372-6f70-4616-942e-6b696361645f,rev?*%
%TF.SameCoordinates,Original*%
%TF.FileFunction,Soldermask,Top*%
%TF.FilePolarity,Negative*%
%FSLAX46Y46*%
G04 Gerber Fmt 4.6, Leading zero omitted, Abs format (unit mm)*
G04 Created by KiCad (PCBNEW 8.0.9-8.0.9-0~ubuntu22.04.1) date 2026-02-27 01:56:06*
%MOMM*%
%LPD*%
G01*
G04 APERTURE LIST*
G04 Aperture macros list*
%AMRoundRect*
0 Rectangle with rounded corners*
0 $1 Rounding radius*
0 $2 $3 $4 $5 $6 $7 $8 $9 X,Y pos of 4 corners*
0 Add a 4 corners polygon primitive as box body*
4,1,4,$2,$3,$4,$5,$6,$7,$8,$9,$2,$3,0*
0 Add four circle primitives for the rounded corners*
1,1,$1+$1,$2,$3*
1,1,$1+$1,$4,$5*
1,1,$1+$1,$6,$7*
1,1,$1+$1,$8,$9*
0 Add four rect primitives between the rounded corners*
20,1,$1+$1,$2,$3,$4,$5,0*
20,1,$1+$1,$4,$5,$6,$7,0*
20,1,$1+$1,$6,$7,$8,$9,0*
20,1,$1+$1,$8,$9,$2,$3,0*%
G04 Aperture macros list end*
%ADD10C,0.000000*%
%ADD11C,1.700000*%
%ADD12C,4.000000*%
%ADD13C,2.200000*%
%ADD14C,5.000000*%
%ADD15RoundRect,0.400000X-0.900000X-0.400000X0.900000X-0.400000X0.900000X0.400000X-0.900000X0.400000X0*%
%ADD16RoundRect,0.400050X-0.899950X-0.400050X0.899950X-0.400050X0.899950X0.400050X-0.899950X0.400050X0*%
%ADD17RoundRect,0.400000X-0.400000X-0.900000X0.400000X-0.900000X0.400000X0.900000X-0.400000X0.900000X0*%
%ADD18RoundRect,0.393700X-0.393700X-0.906300X0.393700X-0.906300X0.393700X0.906300X-0.393700X0.906300X0*%
G04 APERTURE END LIST*
D10*
G36*
X80516845Y-119231890D02*
G01*
X80531982Y-119233935D01*
X80547037Y-119237123D01*
X80561951Y-119241480D01*
X80576664Y-119247029D01*
X80591117Y-119253797D01*
X80605251Y-119261807D01*
X80619005Y-119271084D01*
X80632322Y-119281652D01*
X80645142Y-119293537D01*
X82123896Y-120772293D01*
X82135782Y-120785113D01*
X82146353Y-120798432D01*
X82155633Y-120812190D01*
X82163647Y-120826328D01*
X82170420Y-120840787D01*
X82175976Y-120855507D01*
X82180340Y-120870428D01*
X82183535Y-120885492D01*
X82185588Y-120900639D01*
X82186521Y-120915809D01*
X82186361Y-120930944D01*
X82185130Y-120945983D01*
X82182854Y-120960868D01*
X82179558Y-120975538D01*
X82175265Y-120989936D01*
X82170000Y-121004000D01*
X82163788Y-121017672D01*
X82156654Y-121030893D01*
X82148621Y-121043602D01*
X82139714Y-121055742D01*
X82129959Y-121067251D01*
X82119378Y-121078071D01*
X82107998Y-121088143D01*
X82095842Y-121097406D01*
X82082935Y-121105802D01*
X82069301Y-121113272D01*
X82054965Y-121119755D01*
X82039952Y-121125193D01*
X82024285Y-121129525D01*
X82007990Y-121132694D01*
X81991091Y-121134638D01*
X81973612Y-121135300D01*
X81963076Y-121135037D01*
X81952613Y-121134255D01*
X81942240Y-121132961D01*
X81931974Y-121131162D01*
X81921831Y-121128865D01*
X81911830Y-121126078D01*
X81901987Y-121122807D01*
X81892319Y-121119062D01*
X81882844Y-121114848D01*
X81873577Y-121110173D01*
X81864537Y-121105045D01*
X81855741Y-121099471D01*
X81847204Y-121093458D01*
X81838945Y-121087014D01*
X81830981Y-121080146D01*
X81823329Y-121072861D01*
X80344574Y-119594101D01*
X80337292Y-119586492D01*
X80330431Y-119578561D01*
X80323999Y-119570325D01*
X80318003Y-119561803D01*
X80312448Y-119553012D01*
X80307342Y-119543971D01*
X80302691Y-119534698D01*
X80298502Y-119525212D01*
X80294780Y-119515531D01*
X80291534Y-119505672D01*
X80288769Y-119495654D01*
X80286492Y-119485496D01*
X80284709Y-119475215D01*
X80283428Y-119464830D01*
X80282654Y-119454359D01*
X80282395Y-119443821D01*
X80283056Y-119426365D01*
X80284998Y-119409487D01*
X80288163Y-119393209D01*
X80292491Y-119377557D01*
X80297922Y-119362556D01*
X80304398Y-119348230D01*
X80311860Y-119334604D01*
X80320247Y-119321702D01*
X80329501Y-119309550D01*
X80339562Y-119298171D01*
X80350372Y-119287591D01*
X80361870Y-119277834D01*
X80373997Y-119268925D01*
X80386695Y-119260889D01*
X80399903Y-119253749D01*
X80413563Y-119247532D01*
X80427615Y-119242261D01*
X80442001Y-119237961D01*
X80456659Y-119234656D01*
X80471532Y-119232372D01*
X80486560Y-119231134D01*
X80501684Y-119230965D01*
X80516845Y-119231890D01*
G37*
G36*
X80516845Y-113941017D02*
G01*
X80531982Y-113943062D01*
X80547037Y-113946250D01*
X80561951Y-113950607D01*
X80576664Y-113956156D01*
X80591117Y-113962923D01*
X80605251Y-113970933D01*
X80619005Y-113980210D01*
X80632322Y-113990778D01*
X80645142Y-114002663D01*
X82123896Y-115481422D01*
X82135782Y-115494266D01*
X82146353Y-115507605D01*
X82155633Y-115521380D01*
X82163647Y-115535533D01*
X82170420Y-115550004D01*
X82175976Y-115564734D01*
X82180340Y-115579663D01*
X82183535Y-115594732D01*
X82185588Y-115609883D01*
X82186521Y-115625055D01*
X82186361Y-115640190D01*
X82185130Y-115655228D01*
X82182854Y-115670110D01*
X82179558Y-115684777D01*
X82175265Y-115699169D01*
X82170000Y-115713228D01*
X82163788Y-115726894D01*
X82156654Y-115740107D01*
X82148621Y-115752809D01*
X82139714Y-115764940D01*
X82129959Y-115776441D01*
X82119378Y-115787253D01*
X82107998Y-115797317D01*
X82095842Y-115806573D01*
X82082935Y-115814961D01*
X82069301Y-115822424D01*
X82054965Y-115828901D01*
X82039952Y-115834333D01*
X82024285Y-115838661D01*
X82007990Y-115841826D01*
X81991091Y-115843768D01*
X81973612Y-115844429D01*
X81963076Y-115844167D01*
X81952613Y-115843385D01*
X81942240Y-115842092D01*
X81931974Y-115840294D01*
X81921831Y-115838001D01*
X81911830Y-115835220D01*
X81901987Y-115831957D01*
X81892319Y-115828222D01*
X81882844Y-115824022D01*
X81873577Y-115819364D01*
X81864537Y-115814257D01*
X81855741Y-115808708D01*
X81847204Y-115802725D01*
X81838945Y-115796316D01*
X81830981Y-115789488D01*
X81823329Y-115782249D01*
X80344574Y-114303493D01*
X80337292Y-114295841D01*
X80330431Y-114287877D01*
X80323999Y-114279617D01*
X80318003Y-114271078D01*
X80312448Y-114262278D01*
X80307342Y-114253232D01*
X80302691Y-114243958D01*
X80298502Y-114234471D01*
X80294780Y-114224789D01*
X80291534Y-114214929D01*
X80288769Y-114204906D01*
X80286492Y-114194738D01*
X80284709Y-114184442D01*
X80283428Y-114174033D01*
X80282654Y-114163529D01*
X80282395Y-114152946D01*
X80283056Y-114135491D01*
X80284998Y-114118612D01*
X80288163Y-114102335D01*
X80292491Y-114086683D01*
X80297922Y-114071682D01*
X80304398Y-114057356D01*
X80311860Y-114043730D01*
X80320247Y-114030828D01*
X80329501Y-114018676D01*
X80339562Y-114007298D01*
X80350372Y-113996718D01*
X80361870Y-113986961D01*
X80373997Y-113978052D01*
X80386695Y-113970016D01*
X80399903Y-113962876D01*
X80413563Y-113956659D01*
X80427615Y-113951388D01*
X80442001Y-113947088D01*
X80456659Y-113943783D01*
X80471532Y-113941500D01*
X80486560Y-113940261D01*
X80501684Y-113940092D01*
X80516845Y-113941017D01*
G37*
G36*
X80516845Y-121877413D02*
G01*
X80531982Y-121879466D01*
X80547037Y-121882662D01*
X80561951Y-121887026D01*
X80576664Y-121892582D01*
X80591117Y-121899355D01*
X80605251Y-121907369D01*
X80619005Y-121916649D01*
X80632322Y-121927220D01*
X80645142Y-121939106D01*
X82123896Y-123417858D01*
X82135782Y-123430678D01*
X82146353Y-123443995D01*
X82155633Y-123457750D01*
X82163647Y-123471884D01*
X82170420Y-123486337D01*
X82175976Y-123501051D01*
X82180340Y-123515964D01*
X82183535Y-123531020D01*
X82185588Y-123546157D01*
X82186521Y-123561317D01*
X82186361Y-123576441D01*
X82185130Y-123591469D01*
X82182854Y-123606342D01*
X82179558Y-123621001D01*
X82175265Y-123635386D01*
X82170000Y-123649438D01*
X82163788Y-123663098D01*
X82156654Y-123676306D01*
X82148621Y-123689004D01*
X82139714Y-123701131D01*
X82129959Y-123712629D01*
X82119378Y-123723438D01*
X82107998Y-123733500D01*
X82095842Y-123742753D01*
X82082935Y-123751141D01*
X82069301Y-123758602D01*
X82054965Y-123765078D01*
X82039952Y-123770510D01*
X82024285Y-123774838D01*
X82007990Y-123778002D01*
X81991091Y-123779945D01*
X81973612Y-123780605D01*
X81963076Y-123780346D01*
X81952613Y-123779572D01*
X81942240Y-123778291D01*
X81931974Y-123776508D01*
X81921831Y-123774230D01*
X81911830Y-123771465D01*
X81901987Y-123768219D01*
X81892319Y-123764497D01*
X81882844Y-123760308D01*
X81873577Y-123755656D01*
X81864537Y-123750550D01*
X81855741Y-123744996D01*
X81847204Y-123738999D01*
X81838945Y-123732568D01*
X81830981Y-123725708D01*
X81823329Y-123718426D01*
X80344574Y-122239673D01*
X80337292Y-122232021D01*
X80330431Y-122224057D01*
X80323999Y-122215798D01*
X80318003Y-122207262D01*
X80312448Y-122198465D01*
X80307342Y-122189425D01*
X80302691Y-122180158D01*
X80298502Y-122170682D01*
X80294780Y-122161014D01*
X80291534Y-122151171D01*
X80288769Y-122141169D01*
X80286492Y-122131026D01*
X80284709Y-122120760D01*
X80283428Y-122110386D01*
X80282654Y-122099922D01*
X80282395Y-122089386D01*
X80283056Y-122071907D01*
X80284998Y-122055008D01*
X80288163Y-122038713D01*
X80292491Y-122023047D01*
X80297922Y-122008033D01*
X80304398Y-121993698D01*
X80311860Y-121980064D01*
X80320247Y-121967157D01*
X80329501Y-121955001D01*
X80339562Y-121943621D01*
X80350372Y-121933041D01*
X80361870Y-121923285D01*
X80373997Y-121914379D01*
X80386695Y-121906346D01*
X80399903Y-121899212D01*
X80413563Y-121893000D01*
X80427615Y-121887736D01*
X80442001Y-121883443D01*
X80456659Y-121880146D01*
X80471532Y-121877871D01*
X80486560Y-121876640D01*
X80501684Y-121876480D01*
X80516845Y-121877413D01*
G37*
G36*
X80516845Y-124522717D02*
G01*
X80531982Y-124524770D01*
X80547037Y-124527966D01*
X80561951Y-124532330D01*
X80576664Y-124537886D01*
X80591117Y-124544659D01*
X80605251Y-124552674D01*
X80619005Y-124561954D01*
X80632322Y-124572525D01*
X80645142Y-124584411D01*
X82123896Y-126063164D01*
X82135782Y-126075984D01*
X82146353Y-126089303D01*
X82155633Y-126103062D01*
X82163647Y-126117200D01*
X82170420Y-126131659D01*
X82175976Y-126146379D01*
X82180340Y-126161301D01*
X82183535Y-126176365D01*
X82185588Y-126191513D01*
X82186521Y-126206683D01*
X82186361Y-126221818D01*
X82185130Y-126236858D01*
X82182854Y-126251743D01*
X82179558Y-126266414D01*
X82175265Y-126280811D01*
X82170000Y-126294876D01*
X82163788Y-126308548D01*
X82156654Y-126321769D01*
X82148621Y-126334479D01*
X82139714Y-126346618D01*
X82129959Y-126358128D01*
X82119378Y-126368948D01*
X82107998Y-126379020D01*
X82095842Y-126388284D01*
X82082935Y-126396680D01*
X82069301Y-126404150D01*
X82054965Y-126410633D01*
X82039952Y-126416071D01*
X82024285Y-126420404D01*
X82007990Y-126423572D01*
X81991091Y-126425516D01*
X81973612Y-126426178D01*
X81963076Y-126425916D01*
X81952613Y-126425133D01*
X81942240Y-126423839D01*
X81931974Y-126422039D01*
X81921831Y-126419742D01*
X81911830Y-126416954D01*
X81901987Y-126413684D01*
X81892319Y-126409938D01*
X81882844Y-126405723D01*
X81873577Y-126401048D01*
X81864537Y-126395919D01*
X81855741Y-126390345D01*
X81847204Y-126384331D01*
X81838945Y-126377886D01*
X81830981Y-126371017D01*
X81823329Y-126363731D01*
X80344574Y-124884971D01*
X80337292Y-124877364D01*
X80330431Y-124869433D01*
X80323999Y-124861197D01*
X80318003Y-124852675D01*
X80312448Y-124843884D01*
X80307342Y-124834844D01*
X80302691Y-124825571D01*
X80298502Y-124816085D01*
X80294780Y-124806403D01*
X80291534Y-124796545D01*
X80288769Y-124786527D01*
X80286492Y-124776369D01*
X80284709Y-124766088D01*
X80283428Y-124755704D01*
X80282654Y-124745233D01*
X80282395Y-124734695D01*
X80283056Y-124717216D01*
X80284998Y-124700317D01*
X80288163Y-124684022D01*
X80292491Y-124668355D01*
X80297922Y-124653341D01*
X80304398Y-124639005D01*
X80311860Y-124625371D01*
X80320247Y-124612464D01*
X80329501Y-124600307D01*
X80339562Y-124588927D01*
X80350372Y-124578346D01*
X80361870Y-124568591D01*
X80373997Y-124559684D01*
X80386695Y-124551651D01*
X80399903Y-124544517D01*
X80413563Y-124538305D01*
X80427615Y-124533040D01*
X80442001Y-124528747D01*
X80456659Y-124525451D01*
X80471532Y-124523175D01*
X80486560Y-124521944D01*
X80501684Y-124521784D01*
X80516845Y-124522717D01*
G37*
G36*
X80516845Y-111295669D02*
G01*
X80531982Y-111297721D01*
X80547037Y-111300917D01*
X80561951Y-111305281D01*
X80576664Y-111310837D01*
X80591117Y-111317610D01*
X80605251Y-111325624D01*
X80619005Y-111334904D01*
X80632322Y-111345475D01*
X80645142Y-111357361D01*
X82123896Y-112836117D01*
X82135782Y-112848936D01*
X82146353Y-112862253D01*
X82155633Y-112876008D01*
X82163647Y-112890142D01*
X82170420Y-112904594D01*
X82175976Y-112919307D01*
X82180340Y-112934221D01*
X82183535Y-112949276D01*
X82185588Y-112964413D01*
X82186521Y-112979573D01*
X82186361Y-112994696D01*
X82185130Y-113009724D01*
X82182854Y-113024597D01*
X82179558Y-113039255D01*
X82175265Y-113053640D01*
X82170000Y-113067692D01*
X82163788Y-113081351D01*
X82156654Y-113094559D01*
X82148621Y-113107257D01*
X82139714Y-113119384D01*
X82129959Y-113130881D01*
X82119378Y-113141690D01*
X82107998Y-113151751D01*
X82095842Y-113161005D01*
X82082935Y-113169392D01*
X82069301Y-113176853D01*
X82054965Y-113183329D01*
X82039952Y-113188761D01*
X82024285Y-113193089D01*
X82007990Y-113196253D01*
X81991091Y-113198196D01*
X81973612Y-113198856D01*
X81963076Y-113198597D01*
X81952613Y-113197823D01*
X81942240Y-113196542D01*
X81931974Y-113194759D01*
X81921831Y-113192482D01*
X81911830Y-113189717D01*
X81901987Y-113186471D01*
X81892319Y-113182750D01*
X81882844Y-113178561D01*
X81873577Y-113173910D01*
X81864537Y-113168804D01*
X81855741Y-113163250D01*
X81847204Y-113157254D01*
X81838945Y-113150822D01*
X81830981Y-113143963D01*
X81823329Y-113136680D01*
X80344574Y-111657928D01*
X80337292Y-111650275D01*
X80330431Y-111642311D01*
X80323999Y-111634051D01*
X80318003Y-111625515D01*
X80312448Y-111616718D01*
X80307342Y-111607677D01*
X80302691Y-111598410D01*
X80298502Y-111588934D01*
X80294780Y-111579266D01*
X80291534Y-111569423D01*
X80288769Y-111559421D01*
X80286492Y-111549279D01*
X80284709Y-111539013D01*
X80283428Y-111528640D01*
X80282654Y-111518176D01*
X80282395Y-111507641D01*
X80283056Y-111490162D01*
X80284998Y-111473264D01*
X80288163Y-111456969D01*
X80292491Y-111441303D01*
X80297922Y-111426290D01*
X80304398Y-111411954D01*
X80311860Y-111398320D01*
X80320247Y-111385413D01*
X80329501Y-111373258D01*
X80339562Y-111361877D01*
X80350372Y-111351297D01*
X80361870Y-111341542D01*
X80373997Y-111332635D01*
X80386695Y-111324603D01*
X80399903Y-111317468D01*
X80413563Y-111311256D01*
X80427615Y-111305992D01*
X80442001Y-111301699D01*
X80456659Y-111298402D01*
X80471532Y-111296127D01*
X80486560Y-111294896D01*
X80501684Y-111294735D01*
X80516845Y-111295669D01*
G37*
G36*
X80516845Y-116586540D02*
G01*
X80531982Y-116588592D01*
X80547037Y-116591788D01*
X80561951Y-116596152D01*
X80576664Y-116601708D01*
X80591117Y-116608480D01*
X80605251Y-116616495D01*
X80619005Y-116625775D01*
X80632322Y-116636346D01*
X80645142Y-116648231D01*
X82123896Y-118126987D01*
X82135782Y-118139807D01*
X82146353Y-118153124D01*
X82155633Y-118166879D01*
X82163647Y-118181012D01*
X82170420Y-118195465D01*
X82175976Y-118210178D01*
X82180340Y-118225092D01*
X82183535Y-118240147D01*
X82185588Y-118255284D01*
X82186521Y-118270444D01*
X82186361Y-118285568D01*
X82185130Y-118300596D01*
X82182854Y-118315469D01*
X82179558Y-118330127D01*
X82175265Y-118344512D01*
X82170000Y-118358564D01*
X82163788Y-118372224D01*
X82156654Y-118385432D01*
X82148621Y-118398130D01*
X82139714Y-118410257D01*
X82129959Y-118421755D01*
X82119378Y-118432564D01*
X82107998Y-118442625D01*
X82095842Y-118451879D01*
X82082935Y-118460266D01*
X82069301Y-118467728D01*
X82054965Y-118474204D01*
X82039952Y-118479635D01*
X82024285Y-118483963D01*
X82007990Y-118487128D01*
X81991091Y-118489070D01*
X81973612Y-118489731D01*
X81963076Y-118489471D01*
X81952613Y-118488698D01*
X81942240Y-118487416D01*
X81931974Y-118485634D01*
X81921831Y-118483357D01*
X81911830Y-118480592D01*
X81901987Y-118477346D01*
X81892319Y-118473625D01*
X81882844Y-118469435D01*
X81873577Y-118464784D01*
X81864537Y-118459679D01*
X81855741Y-118454124D01*
X81847204Y-118448128D01*
X81838945Y-118441697D01*
X81830981Y-118434837D01*
X81823329Y-118427555D01*
X80344574Y-116948799D01*
X80337292Y-116941146D01*
X80330431Y-116933182D01*
X80323999Y-116924923D01*
X80318003Y-116916386D01*
X80312448Y-116907590D01*
X80307342Y-116898550D01*
X80302691Y-116889284D01*
X80298502Y-116879808D01*
X80294780Y-116870141D01*
X80291534Y-116860298D01*
X80288769Y-116850297D01*
X80286492Y-116840155D01*
X80284709Y-116829888D01*
X80283428Y-116819515D01*
X80282654Y-116809052D01*
X80282395Y-116798515D01*
X80283056Y-116781037D01*
X80284998Y-116764138D01*
X80288163Y-116747843D01*
X80292491Y-116732176D01*
X80297922Y-116717163D01*
X80304398Y-116702827D01*
X80311860Y-116689193D01*
X80320247Y-116676286D01*
X80329501Y-116664130D01*
X80339562Y-116652749D01*
X80350372Y-116642169D01*
X80361870Y-116632413D01*
X80373997Y-116623507D01*
X80386695Y-116615474D01*
X80399903Y-116608339D01*
X80413563Y-116602127D01*
X80427615Y-116596863D01*
X80442001Y-116592570D01*
X80456659Y-116589273D01*
X80471532Y-116586997D01*
X80486560Y-116585767D01*
X80501684Y-116585606D01*
X80516845Y-116586540D01*
G37*
D11*
%TO.C,SW1*%
X96239935Y-94648942D03*
D12*
X96239935Y-99728942D03*
D11*
X96239935Y-104808942D03*
D13*
X101319935Y-102268942D03*
X98779935Y-95918942D03*
%TD*%
D14*
%TO.C,H1*%
X84279895Y-91399942D03*
%TD*%
%TO.C,H5*%
X96239935Y-153427582D03*
%TD*%
%TO.C,H3*%
X108200000Y-91400000D03*
%TD*%
D11*
%TO.C,SW2*%
X96239935Y-113698942D03*
D12*
X96239935Y-118778942D03*
D11*
X96239935Y-123858942D03*
D13*
X101319935Y-121318942D03*
X98779935Y-114968942D03*
%TD*%
D11*
%TO.C,SW3*%
X96239935Y-132748942D03*
D12*
X96239935Y-137828942D03*
D11*
X96239935Y-142908942D03*
D13*
X101319935Y-140368942D03*
X98779935Y-134018942D03*
%TD*%
D14*
%TO.C,H2*%
X108200000Y-146158004D03*
%TD*%
%TO.C,H4*%
X84279924Y-146158004D03*
%TD*%
D15*
%TO.C,RZ1*%
X104339935Y-64572902D03*
X104339935Y-67112902D03*
X104339935Y-69652902D03*
X104339935Y-72192902D03*
X104339935Y-74732902D03*
D16*
X104339935Y-77272902D03*
X104339935Y-79812902D03*
X104339935Y-82352902D03*
X104339935Y-84892902D03*
D17*
X101199935Y-85702902D03*
D18*
X98659935Y-85702902D03*
X96119935Y-85702902D03*
X93579935Y-85702902D03*
X91039935Y-85702902D03*
D16*
X87899935Y-84892902D03*
X87899935Y-82352902D03*
X87899935Y-79812902D03*
X87899935Y-77272902D03*
X87899935Y-64572902D03*
X87899935Y-67112902D03*
X87899935Y-69652902D03*
X87899935Y-74732902D03*
X87899935Y-72192902D03*
%TD*%
M02*
