M48
; DRILL file {KiCad 8.0.9-8.0.9-0~ubuntu22.04.1} date 2026-02-27T01:56:06+0800
; FORMAT={-:-/ absolute / inch / decimal}
; #@! TF.CreationDate,2026-02-27T01:56:06+08:00
; #@! TF.GenerationSoftware,Kicad,Pcbnew,8.0.9-8.0.9-0~ubuntu22.04.1
; #@! TF.FileFunction,Plated,1,2,PTH
FMAT,2
INCH
; #@! TA.AperFunction,Plated,PTH,ComponentDrill
T1C0.0315
; #@! TA.AperFunction,Plated,PTH,ComponentDrill
T2C0.0591
%
G90
G05
T1
X3.4842Y-2.5422
X3.4842Y-2.6422
X3.4842Y-2.7422
X3.4842Y-2.8422
X3.4842Y-2.9422
X3.4842Y-3.0422
X3.4842Y-3.1422
X3.4842Y-3.2422
X3.4842Y-3.3422
X3.5842Y-3.3505
X3.6842Y-3.3505
X3.7842Y-3.3505
X3.8842Y-3.3505
X3.9842Y-3.3505
X4.0842Y-2.5422
X4.0842Y-2.6422
X4.0842Y-2.7422
X4.0842Y-2.8422
X4.0842Y-2.9422
X4.0842Y-3.0422
X4.0842Y-3.1422
X4.0842Y-3.2422
X4.0842Y-3.3422
T2
X3.889Y-3.7763
X3.889Y-4.5263
X3.889Y-5.2763
X3.989Y-4.0263
X3.989Y-4.7763
X3.989Y-5.5263
M30
